<svg width="81" height="80" viewBox="0 0 81 80" fill="none" xmlns="http://www.w3.org/2000/svg">
<path d="M40.5654 1.32129C40.9092 2.00716 41.4353 2.93427 42.1641 3.90137C43.614 5.8254 45.9016 7.94895 49.1973 8.58691C54.8529 10.0909 59.8204 13.0274 63.5859 16.9229L63.5977 16.9346C67.4852 20.7014 70.4153 25.6687 71.917 31.3232C72.5542 34.6216 74.6773 36.9112 76.6006 38.3623C77.5672 39.0916 78.4942 39.6179 79.1797 39.9619C79.1878 39.966 79.1961 39.9696 79.2041 39.9736C78.5747 40.2611 77.7426 40.705 76.8564 41.3574C75.0534 42.6849 73.022 44.8749 72.0146 48.3369L71.9209 48.6758C70.314 54.7356 67.0666 60.0073 62.7588 63.8584L62.752 63.8643L62.7461 63.8701C59.0881 67.3715 54.4185 70.012 49.1533 71.4121C45.8576 72.0501 43.57 74.1746 42.1201 76.0986C41.3915 77.0656 40.8662 77.9929 40.5225 78.6787C40.5181 78.6875 40.5131 78.6964 40.5088 78.7051C40.2215 78.0753 39.7799 77.2422 39.1279 76.3555C37.8014 74.5514 35.6132 72.5179 32.1533 71.5098L31.8145 71.416C26.2433 69.9366 21.3386 67.0676 17.5928 63.2607L17.5811 63.249L17.2109 62.8896C13.5383 59.2643 10.741 54.5577 9.22656 49.2129L9.0791 48.6758C8.10878 45.0171 6.00471 42.7277 4.14355 41.3574C3.25705 40.7047 2.42445 40.2611 1.79492 39.9736C1.80322 39.9695 1.81195 39.9661 1.82031 39.9619C2.50581 39.6179 3.43284 39.0916 4.39941 38.3623C6.32261 36.9112 8.44476 34.6215 9.08203 31.3232C10.6693 25.3465 13.8527 20.1377 18.0752 16.3027L18.082 16.2969L18.0879 16.291C21.6576 12.8192 26.213 10.1742 31.3584 8.7207L31.8584 8.58398C35.5149 7.61288 37.8026 5.50676 39.1719 3.64453C39.8238 2.75781 40.2655 1.92467 40.5527 1.29492C40.5571 1.30358 40.5611 1.31255 40.5654 1.32129Z" fill="#FBF1E8" stroke="#B50000"/>
</svg>
