<svg width="125" height="20" viewBox="0 0 125 20" fill="none" xmlns="http://www.w3.org/2000/svg">
<path d="M8.88002 8.78924L12.6801 18.8986L10.9952 19.532L8.28448 12.3206C8.09098 12.7267 7.89883 13.0681 7.70804 13.3449C7.51725 13.6218 7.3194 13.8628 7.11451 14.068C6.92084 14.269 6.71451 14.4363 6.49552 14.5699C6.2723 14.6923 6.03713 14.7999 5.79001 14.8928C5.28454 15.0828 4.74876 15.1239 4.18267 15.0162C3.61657 14.9085 3.03836 14.581 2.44805 14.0338L0.5 12.2277L2.1065 11.0277L3.80803 12.7918C4.24794 13.1777 4.66458 13.4506 5.05797 13.6104C5.45135 13.7702 5.82777 13.7825 6.18721 13.6474C6.3894 13.5714 6.56068 13.4814 6.70104 13.3773C6.84141 13.2733 6.97684 13.139 7.10733 12.9746C7.23359 12.799 7.36054 12.591 7.48816 12.3507C7.62701 12.1062 7.78267 11.8041 7.95514 11.4445L7.19513 9.42258L8.88002 8.78924Z" fill="#C29862"/>
<path d="M15.0776 7.64117L13.7798 8.01296C13.4338 8.1121 13.1429 8.20791 12.9073 8.30038C12.6831 8.38955 12.4945 8.49352 12.3413 8.61231C12.1963 8.71626 12.0826 8.84244 12.0003 8.99084C11.918 9.13925 11.844 9.3165 11.7782 9.52258L10.986 8.06437L20.0705 5.46187L20.2595 6.90567C19.9181 6.71635 19.5612 6.62512 19.1887 6.63198C18.8129 6.6273 18.3654 6.69931 17.8463 6.84803L16.808 7.14546L19.584 16.8357L17.8536 17.3314L15.0776 7.64117Z" fill="#C29862"/>
<path d="M26.1241 3.82702C26.7814 3.68729 27.4289 3.70301 28.0664 3.87419C28.7039 4.04537 29.2935 4.33716 29.8351 4.74956C30.3766 5.16196 30.843 5.68235 31.2343 6.31074C31.623 6.92739 31.8984 7.61719 32.0606 8.38015C32.2228 9.1431 32.253 9.89117 32.1512 10.6244C32.047 11.3458 31.8313 12.005 31.5043 12.6021C31.1773 13.1991 30.7575 13.7055 30.2447 14.1212C29.7319 14.5369 29.1469 14.8146 28.4896 14.9544C27.8323 15.0941 27.1848 15.0784 26.5473 14.9072C25.9098 14.736 25.3202 14.4442 24.7786 14.0318C24.237 13.6194 23.7719 13.1049 23.3832 12.4883C22.992 11.8599 22.7153 11.1642 22.5531 10.4013C22.3909 9.6383 22.3619 8.8961 22.4662 8.17465C22.568 7.44147 22.7823 6.77635 23.1093 6.17931C23.4363 5.58226 23.8562 5.07589 24.369 4.66018C24.8818 4.24447 25.4668 3.96675 26.1241 3.82702ZM25.3867 5.03271C25.0228 5.11006 24.7188 5.26671 24.4745 5.50266C24.2277 5.72687 24.0357 6.00691 23.8986 6.34277C23.7732 6.67614 23.7001 7.05359 23.6792 7.47513C23.6559 7.88493 23.6917 8.31285 23.7865 8.75888C23.9412 9.48662 24.2108 10.1777 24.5953 10.832C24.9797 11.4864 25.4243 12.0482 25.9289 12.5176C26.4453 12.9844 26.992 13.3344 27.5691 13.5675C28.1461 13.8006 28.6988 13.861 29.227 13.7487C29.5439 13.6813 29.8224 13.5485 30.0624 13.3503C30.3117 13.1378 30.512 12.8683 30.6634 12.5416C30.8148 12.215 30.9068 11.8397 30.9393 11.4157C30.9718 10.9916 30.9345 10.5272 30.8272 10.0225C30.66 9.23609 30.3712 8.51232 29.9607 7.85122C29.5503 7.19011 29.0835 6.63912 28.5604 6.19826C28.0466 5.74316 27.5095 5.40955 26.9491 5.19743C26.3888 4.98531 25.868 4.9304 25.3867 5.03271Z" fill="#C29862"/>
<path d="M38.299 1.93319L40.0869 1.72456L40.7128 7.08816L45.017 3.59574L44.7353 1.18211L46.5232 0.97348L47.775 11.7007L45.9871 11.9093L45.1109 4.40028L40.8067 7.8927L41.3387 12.4518L39.5508 12.6604L38.299 1.93319Z" fill="#C29862"/>
<path d="M53.2275 4.59195C53.5147 4.3813 53.7225 4.15165 53.851 3.90299C53.9915 3.65357 54.0499 3.34324 54.0263 2.97199C54.011 2.73248 53.9359 2.49677 53.8009 2.26487C53.666 2.03297 53.4906 1.82768 53.2748 1.64902C53.059 1.47035 52.8096 1.3299 52.5266 1.22765C52.2435 1.12541 51.9403 1.08457 51.6169 1.10513C51.2936 1.1257 51.0242 1.23902 50.8089 1.4451C50.5928 1.63921 50.4946 1.89195 50.5144 2.20332C50.5327 2.49074 50.6254 2.71932 50.7925 2.88905L49.6526 3.683C49.5245 3.55888 49.4244 3.40292 49.3523 3.21511C49.2922 3.02655 49.2568 2.84843 49.2462 2.68077C49.2317 2.45323 49.2883 2.20915 49.416 1.94851C49.555 1.67515 49.7493 1.4223 49.9991 1.18998C50.2488 0.957665 50.5488 0.758227 50.8989 0.591669C51.249 0.425113 51.6337 0.328507 52.0528 0.301852C52.5079 0.272912 52.9369 0.305755 53.3397 0.400381C53.7537 0.48227 54.1169 0.615489 54.4292 0.800038C54.7416 0.984587 54.9904 1.20925 55.1755 1.47403C55.3719 1.72608 55.4796 2.0018 55.4987 2.30119C55.5322 2.82813 55.4286 3.27961 55.188 3.65564C54.9586 4.01893 54.5627 4.41085 54.0002 4.83139C54.7139 5.08662 55.3165 5.48718 55.8081 6.03308C56.3118 6.57821 56.5868 7.21604 56.6332 7.94657C56.6637 8.4256 56.5905 8.88117 56.4135 9.31327C56.2478 9.73263 56.0012 10.109 55.6737 10.4425C55.3462 10.776 54.9367 11.0485 54.4451 11.2601C53.9655 11.471 53.4323 11.5951 52.8455 11.6324C52.0551 11.6827 51.302 11.5622 50.586 11.2711C49.8821 10.9791 49.255 10.4779 48.7048 9.76742L50.3138 8.69113C50.7351 9.26555 51.2218 9.73361 51.7738 10.0953C52.3259 10.457 52.9013 10.6188 53.5001 10.5807C53.9312 10.5533 54.2866 10.3744 54.5662 10.044C54.8578 9.71281 54.9864 9.27777 54.9521 8.73886C54.9095 8.06821 54.6929 7.49881 54.3024 7.03065C53.9119 6.56249 53.4002 6.17418 52.7674 5.86572C52.5026 6.0509 52.2595 6.19862 52.038 6.3089C51.8158 6.4072 51.597 6.46321 51.3814 6.47691C50.9622 6.50357 50.6515 6.43916 50.4492 6.28368C50.2462 6.11623 50.1355 5.88879 50.1173 5.60138C50.1089 5.46964 50.1428 5.34123 50.219 5.21614C50.3065 5.07831 50.419 4.95693 50.5566 4.85198C50.7054 4.7343 50.8678 4.63981 51.0436 4.5685C51.2314 4.49644 51.4151 4.4547 51.5948 4.44327C51.9061 4.42347 52.2011 4.42877 52.4795 4.45915C52.77 4.48878 53.0193 4.53304 53.2275 4.59195ZM52.1013 5.60146C51.7912 5.45284 51.5045 5.38691 51.241 5.40366C51.1452 5.40975 51.0573 5.4454 50.9772 5.51061C50.9084 5.56309 50.8767 5.63124 50.882 5.71507C50.8874 5.7989 50.9275 5.86248 51.0024 5.90582C51.0765 5.93717 51.1555 5.95019 51.2393 5.94486C51.395 5.93496 51.5428 5.8955 51.6827 5.82648C51.8346 5.7567 51.9741 5.68169 52.1013 5.60146Z" fill="#C29862"/>
<path d="M59.1163 11.0068L58.9808 0.927742L58.6208 0.932581L58.6112 0.212646L62.9488 0.154338C63.2847 0.149822 63.603 0.169546 63.9037 0.213509C64.2161 0.245312 64.4871 0.313676 64.7165 0.418602C64.9458 0.511529 65.1275 0.641097 65.2618 0.807308C65.3959 0.96152 65.4644 1.15262 65.4675 1.38059C65.4717 1.69257 65.3314 1.97048 65.0467 2.21433C64.7739 2.45801 64.4709 2.68411 64.1377 2.89261C63.8043 3.0891 63.4947 3.26728 63.2088 3.42714C62.9349 3.58683 62.799 3.74468 62.8011 3.90066C62.8027 4.02065 62.9004 4.14535 63.0942 4.27476C63.2878 4.39216 63.5295 4.52093 63.8194 4.66104C64.1093 4.80116 64.4176 4.96503 64.7441 5.15266C65.0827 5.34013 65.3976 5.55191 65.6888 5.78802C65.9799 6.02413 66.2237 6.30288 66.4201 6.62427C66.6162 6.93366 66.7171 7.29233 66.7225 7.7003C66.7301 8.26425 66.6227 8.75173 66.4002 9.16276C66.1895 9.56163 65.894 9.89563 65.5136 10.1648C65.133 10.4219 64.6796 10.62 64.1534 10.7591C63.6391 10.886 63.0819 10.9535 62.482 10.9616L59.1163 11.0068ZM60.9065 10.2627L62.4003 10.2426C62.7243 10.2383 63.066 10.2157 63.4255 10.1748C63.7848 10.122 64.1137 10.0336 64.412 9.90955C64.7224 9.78537 64.978 9.60792 65.1789 9.3772C65.3799 9.14647 65.4778 8.84513 65.4728 8.47316C65.4678 8.1012 65.3676 7.79052 65.1723 7.54112C64.9767 7.27972 64.7336 7.04897 64.4429 6.84886C64.1522 6.64875 63.8378 6.47296 63.4997 6.32149C63.1735 6.15786 62.8652 5.98799 62.5748 5.81188C62.2844 5.63576 62.0418 5.44101 61.8469 5.22761C61.6518 5.00221 61.5522 4.73352 61.548 4.42155C61.5443 4.14558 61.6491 3.91015 61.8625 3.71526C62.0879 3.52021 62.3315 3.33692 62.5932 3.16539C62.8668 2.9817 63.1163 2.79233 63.3417 2.59728C63.5669 2.39023 63.6775 2.13672 63.6735 1.83675C63.672 1.72876 63.6226 1.62141 63.5251 1.51471C63.4395 1.39585 63.3241 1.2894 63.1788 1.19534C63.0455 1.10112 62.8945 1.02515 62.7257 0.967411C62.5689 0.909513 62.4125 0.881613 62.2565 0.883709L60.7807 0.903548L60.9065 10.2627Z" fill="#C29862"/>
<path d="M73.0074 0.00363708C73.6788 0.0307487 74.3023 0.206044 74.8777 0.529523C75.4531 0.853001 75.9522 1.28149 76.375 1.81498C76.7979 2.34847 77.1211 2.96802 77.3449 3.67362C77.5691 4.36723 77.6654 5.10372 77.6339 5.88308C77.6025 6.66245 77.4468 7.39476 77.1669 8.08003C76.8875 8.75331 76.5156 9.33878 76.0512 9.83644C75.5867 10.3341 75.0547 10.721 74.455 10.997C73.8554 11.273 73.2199 11.3975 72.5484 11.3704C71.877 11.3433 71.2535 11.168 70.6781 10.8445C70.1027 10.521 69.6036 10.0925 69.1808 9.55903C68.7579 9.02554 68.4344 8.41199 68.2102 7.71838C67.9865 7.01278 67.8904 6.2703 67.9219 5.49093C67.9533 4.71157 68.1088 3.98525 68.3882 3.31197C68.668 2.6267 69.0402 2.03524 69.5046 1.53757C69.9691 1.0399 70.5011 0.653053 71.1008 0.37702C71.7004 0.100986 72.3359 -0.0234746 73.0074 0.00363708ZM71.9948 0.989587C71.6231 0.974579 71.2897 1.05119 70.9947 1.21943C70.7002 1.37567 70.4449 1.59955 70.229 1.89108C70.025 2.18309 69.8609 2.53075 69.7365 2.93406C69.6126 3.32538 69.5415 3.74886 69.5231 4.20448C69.493 4.94788 69.5834 5.68412 69.7942 6.41322C70.0049 7.14232 70.2968 7.79662 70.6697 8.37614C71.0546 8.95614 71.4978 9.43041 71.9994 9.79895C72.5009 10.1675 73.0215 10.3626 73.561 10.3844C73.8848 10.3975 74.1874 10.3377 74.469 10.2049C74.7631 10.0607 75.0238 9.84901 75.2513 9.56996C75.4787 9.2909 75.6606 8.94997 75.797 8.54714C75.9333 8.14431 76.0119 7.68511 76.0327 7.16953C76.0652 6.36618 75.9643 5.59348 75.73 4.85143C75.4958 4.10937 75.1797 3.46009 74.7818 2.90359C74.3964 2.33558 73.9585 1.87954 73.468 1.53547C72.9774 1.1914 72.4864 1.00944 71.9948 0.989587Z" fill="#C29862"/>
<path d="M87.6764 12.2322L85.7056 12.0413L83.302 2.87494C82.9236 3.67017 82.5743 4.41396 82.254 5.10632C81.9469 5.78789 81.6523 6.46464 81.3702 7.13658C81.1012 7.79773 80.8365 8.47737 80.576 9.17551C80.3155 9.87365 80.0546 10.6381 79.7933 11.4687L78.36 11.3299L83.0408 1.83694L82.7872 0.908161L84.7221 1.09555L87.6764 12.2322Z" fill="#C29862"/>
<path d="M91.0494 1.78368L92.8276 2.06336L91.9885 7.39778L97.0732 5.19102L97.4507 2.79053L99.2289 3.07022L97.5508 13.7391L95.7726 13.4594L96.9473 5.99118L91.8627 8.19794L91.1495 12.7322L89.3713 12.4525L91.0494 1.78368Z" fill="#C29862"/>
<path d="M104.404 4.87338L103.086 4.58154C102.735 4.50371 102.433 4.44928 102.182 4.41824C101.943 4.38979 101.727 4.39125 101.536 4.42264C101.359 4.4449 101.199 4.50165 101.056 4.59287C100.913 4.68409 100.763 4.8046 100.607 4.9544L100.606 3.29489L109.832 5.33776L109.31 6.69701C109.1 6.36787 108.83 6.11753 108.499 5.94597C108.171 5.7627 107.743 5.6127 107.216 5.49597L106.162 5.26249L103.983 15.1041L102.225 14.715L104.404 4.87338Z" fill="#C29862"/>
<path d="M111.702 6.59307L111.356 6.49393L111.554 5.80177L118.13 7.68549L117.525 9.01032C117.336 8.66898 117.082 8.4026 116.762 8.21117C116.446 8.0082 116.028 7.83236 115.509 7.68364L113.432 7.08879L112.342 10.8957L115.456 11.7879L115.258 12.4801L112.143 11.5878L110.855 16.0868L112.844 16.6569C113.364 16.8056 113.846 16.8876 114.291 16.9027C114.736 16.9179 115.179 16.8077 115.621 16.5723L115.415 18.1422L108.58 16.1841L108.778 15.492L109.124 15.5911L111.702 6.59307Z" fill="#C29862"/>
<path d="M119.078 9.2451C119.701 8.91558 120.254 8.71418 120.737 8.64087C121.235 8.56018 121.768 8.61846 122.334 8.81572C122.64 8.92223 122.929 9.06078 123.2 9.23135C123.471 9.40192 123.702 9.59663 123.892 9.81547C124.098 10.0649 124.233 10.3342 124.297 10.6235C124.377 10.9054 124.358 11.2163 124.239 11.5563C124.168 11.7603 124.05 11.9542 123.884 12.1379C123.734 12.3143 123.553 12.4865 123.342 12.6545C123.135 12.8111 122.906 12.9599 122.653 13.1008C122.401 13.2416 122.147 13.3692 121.891 13.4835C121.33 13.7455 120.871 13.9671 120.516 14.1484C120.176 14.3222 119.947 14.5792 119.828 14.9192C119.746 15.1572 119.771 15.3947 119.904 15.6317C120.038 15.8688 120.235 16.0517 120.495 16.1804L119.566 16.7145C119.313 16.5632 119.123 16.3444 118.994 16.058C118.88 15.7643 118.88 15.4531 118.995 15.1244C119.145 14.6938 119.381 14.325 119.704 14.0181C120.038 13.7151 120.549 13.3974 121.236 13.0649C121.679 12.8507 121.992 12.629 122.173 12.3999C122.358 12.1595 122.5 11.8976 122.599 11.6143C122.686 11.365 122.714 11.1205 122.683 10.8811C122.652 10.6416 122.575 10.4242 122.452 10.229C122.333 10.0225 122.173 9.84583 121.97 9.69894C121.782 9.54465 121.569 9.42608 121.331 9.34323C120.991 9.22488 120.68 9.20558 120.398 9.28534C120.128 9.36905 119.803 9.49758 119.425 9.67095L119.078 9.2451ZM119.334 17.4344C119.572 17.5173 119.735 17.6883 119.822 17.9475C119.925 18.1994 119.928 18.467 119.829 18.7503C119.73 19.0336 119.561 19.2477 119.319 19.3925C119.094 19.5299 118.862 19.5572 118.624 19.4744C118.386 19.3915 118.215 19.2242 118.113 18.9724C118.025 18.7131 118.03 18.4419 118.129 18.1585C118.228 17.8752 118.39 17.6648 118.616 17.5274C118.857 17.3826 119.096 17.3516 119.334 17.4344Z" fill="#C29862"/>
</svg>
