<svg width="49" height="48" viewBox="0 0 49 48" fill="none" xmlns="http://www.w3.org/2000/svg">
<path d="M24.5371 1.21973C24.7374 1.58472 25.0032 2.01554 25.3389 2.46094C26.222 3.63282 27.6266 4.94323 29.6602 5.34375C33.0221 6.23653 35.9733 7.98109 38.208 10.293L38.2139 10.2988L38.2197 10.3037C40.3828 12.3996 42.0482 15.1243 42.9824 18.2266L43.1592 18.8525C43.5593 20.8873 44.8687 22.293 46.04 23.1768C46.4853 23.5127 46.9164 23.7781 47.2812 23.9785C46.9587 24.1463 46.5851 24.3664 46.1953 24.6533C45.0502 25.4964 43.7554 26.9059 43.1592 29.1543C42.2047 32.7538 40.2763 35.8823 37.7217 38.166L37.7158 38.1719L37.709 38.1777C35.5377 40.256 32.7636 41.8251 29.6338 42.6562C27.6003 43.0568 26.1956 44.3672 25.3125 45.5391C24.977 45.9843 24.712 46.4154 24.5117 46.7803C24.3441 46.4577 24.1244 46.084 23.8379 45.6943C22.9954 44.5486 21.5869 43.253 19.3398 42.6562C16.0309 41.7776 13.1201 40.0742 10.8984 37.8164L10.8867 37.8047L10.4512 37.375C8.30746 35.1821 6.68936 32.3542 5.84082 29.1543C5.24456 26.9059 3.94982 25.4964 2.80469 24.6533C2.41461 24.3661 2.0405 24.1464 1.71777 23.9785C2.08278 23.778 2.5144 23.513 2.95996 23.1768C4.13126 22.293 5.44065 20.8873 5.84082 18.8525C6.783 15.2995 8.67404 12.2054 11.1797 9.92969L11.1855 9.92383L11.1924 9.91797C13.3781 7.79228 16.1885 6.18759 19.3662 5.34375C21.6132 4.74703 23.0218 3.45139 23.8643 2.30566C24.1507 1.91613 24.3695 1.54219 24.5371 1.21973Z" stroke="#C29862"/>
<path d="M22.2872 32.5001C22.2872 32.5001 18.5298 31.4874 18.5002 28.1206C18.4707 24.7537 21.2432 23.3569 22.2872 20.3174C22.9113 18.5001 21.5064 14.9492 21.566 15.0006C25.9691 18.7936 25.7288 22.1801 25.7288 22.1801C25.7288 22.1801 27.5247 21.649 27.5247 19.639C26.6569 15.9366 35.125 30.75 25.3907 32.5001" stroke="#B50000"/>
</svg>
