<svg width="49" height="48" viewBox="0 0 49 48" fill="none" xmlns="http://www.w3.org/2000/svg">
<path d="M24.5371 1.21973C24.7374 1.58472 25.0032 2.01554 25.3389 2.46094C26.222 3.63282 27.6266 4.94323 29.6602 5.34375C33.0221 6.23653 35.9733 7.98109 38.208 10.293L38.2139 10.2988L38.2197 10.3037C40.3828 12.3996 42.0482 15.1243 42.9824 18.2266L43.1592 18.8525C43.5593 20.8873 44.8687 22.293 46.04 23.1768C46.4853 23.5127 46.9164 23.7781 47.2812 23.9785C46.9587 24.1463 46.5851 24.3664 46.1953 24.6533C45.0502 25.4964 43.7554 26.9059 43.1592 29.1543C42.2047 32.7538 40.2763 35.8823 37.7217 38.166L37.7158 38.1719L37.709 38.1777C35.5377 40.256 32.7636 41.8251 29.6338 42.6562C27.6003 43.0568 26.1956 44.3672 25.3125 45.5391C24.977 45.9843 24.712 46.4154 24.5117 46.7803C24.3441 46.4577 24.1244 46.084 23.8379 45.6943C22.9954 44.5486 21.5869 43.253 19.3398 42.6562C16.0309 41.7776 13.1201 40.0742 10.8984 37.8164L10.8867 37.8047L10.4512 37.375C8.30746 35.1821 6.68936 32.3542 5.84082 29.1543C5.24456 26.9059 3.94982 25.4964 2.80469 24.6533C2.41461 24.3661 2.0405 24.1464 1.71777 23.9785C2.08278 23.778 2.5144 23.513 2.95996 23.1768C4.13126 22.293 5.44065 20.8873 5.84082 18.8525C6.783 15.2995 8.67404 12.2054 11.1797 9.92969L11.1855 9.92383L11.1924 9.91797C13.3781 7.79228 16.1885 6.18759 19.3662 5.34375C21.6132 4.74703 23.0218 3.45139 23.8643 2.30566C24.1507 1.91613 24.3695 1.54219 24.5371 1.21973Z" stroke="#C29862"/>
<path d="M24.1807 17C25.9998 17 27.4745 18.4747 27.4746 20.2939C27.4746 21.7231 26.5642 22.9385 25.292 23.3945C26.9214 23.6315 28.4431 24.3865 29.6211 25.5645C31.0624 27.0058 31.872 28.9617 31.8721 31H30.8721C30.872 29.2269 30.1678 27.5253 28.9141 26.2715C27.6602 25.0177 25.9587 24.3135 24.1855 24.3135C22.4126 24.3136 20.7117 25.0178 19.458 26.2715C18.2042 27.5253 17.5001 29.2269 17.5 31H16.5C16.5001 28.9616 17.3097 27.0058 18.751 25.5645C19.927 24.3885 21.4452 23.6338 23.0713 23.3955C21.798 22.94 20.8867 21.7238 20.8867 20.2939C20.8868 18.4748 22.3615 17 24.1807 17ZM24.1807 18C22.9138 18 21.8868 19.027 21.8867 20.2939C21.8867 21.5609 22.9138 22.5879 24.1807 22.5879C25.4476 22.5879 26.4746 21.561 26.4746 20.2939C26.4745 19.027 25.4475 18 24.1807 18Z" fill="#B50000"/>
</svg>
