<svg width="54" height="54" viewBox="0 0 54 54" fill="none" xmlns="http://www.w3.org/2000/svg">
<path d="M27.4697 2.79395L27.4688 2.79492C27.4691 2.79566 27.4701 2.79663 27.4707 2.79785C27.4728 2.80231 27.4764 2.80995 27.4814 2.82031C27.4917 2.84136 27.5086 2.87397 27.5312 2.91699C27.5766 3.00326 27.6464 3.13075 27.7432 3.28711C27.9371 3.60046 28.236 4.02776 28.6494 4.47754C29.4248 5.32112 30.5937 6.23141 32.2334 6.62793L32.5674 6.7002L32.585 6.70312L32.6016 6.70801C36.2492 7.67664 39.4633 9.5708 41.9072 12.0947L42.373 12.5625C44.5121 14.7862 46.1548 17.5843 47.1025 20.7314L47.2949 21.4111L47.2998 21.4287L47.3027 21.4463C47.6497 23.2638 48.6244 24.5396 49.5234 25.3672C49.9729 25.7809 50.4007 26.0793 50.7139 26.2734C50.87 26.3702 50.9968 26.441 51.083 26.4863C51.1261 26.509 51.1596 26.5249 51.1807 26.5352C51.1911 26.5402 51.1987 26.5438 51.2031 26.5459L51.2061 26.5479L52.3311 27.0576L51.1689 27.4746L51.1523 27.4805C51.1359 27.4871 51.1084 27.4984 51.0723 27.5146C51 27.5471 50.8906 27.5998 50.7539 27.6768C50.4803 27.8309 50.0973 28.0822 49.6777 28.4629C48.8939 29.1742 47.972 30.3473 47.4033 32.2129L47.2949 32.5957C46.2595 36.5004 44.1649 39.9076 41.374 42.4072L41.375 42.4082C39.0007 44.6809 35.9765 46.3887 32.5752 47.292L32.5576 47.2969L32.54 47.2998C30.7239 47.647 29.4491 48.6227 28.6221 49.5225C28.2088 49.9721 27.9108 50.3996 27.7168 50.7129C27.62 50.8693 27.5492 50.9967 27.5039 51.083C27.4813 51.1261 27.4643 51.1586 27.4541 51.1797C27.449 51.1901 27.4454 51.1977 27.4434 51.2021L27.4414 51.2051L27.4424 51.2061L26.9326 52.333L26.5156 51.168C26.5145 51.165 26.512 51.1593 26.5088 51.1514C26.5022 51.1349 26.4916 51.108 26.4756 51.0723C26.4432 51 26.3904 50.8907 26.3135 50.7539C26.1594 50.4799 25.908 50.0959 25.5273 49.6758C24.8164 48.8913 23.6445 47.9694 21.7803 47.4004L21.3984 47.292C17.8083 46.3386 14.6382 44.4889 12.209 42.0244L11.7324 41.5537C9.54391 39.315 7.86415 36.48 6.90039 33.2852L6.70508 32.5957C6.15097 30.5061 5.15839 29.2217 4.32227 28.4629C3.90272 28.0822 3.51975 27.8309 3.24609 27.6768C3.10939 27.5998 3 27.5471 2.92773 27.5146C2.89162 27.4984 2.86407 27.4871 2.84766 27.4805L2.83105 27.4746L1.66895 27.0576L2.79395 26.5479C2.79469 26.5475 2.79552 26.5465 2.79688 26.5459C2.80128 26.5438 2.8089 26.5402 2.81934 26.5352C2.84035 26.5249 2.87391 26.509 2.91699 26.4863C3.00319 26.441 3.12999 26.3702 3.28613 26.2734C3.59926 26.0793 4.02707 25.7809 4.47656 25.3672C5.37559 24.5396 6.35026 23.2638 6.69727 21.4463L6.7002 21.4287L6.70508 21.4111C7.72877 17.551 9.78698 14.1761 12.5303 11.6846C14.9189 9.36571 17.9785 7.62344 21.4258 6.70801L21.8076 6.59961C23.6718 6.03062 24.8438 5.10867 25.5547 4.32422C25.9354 3.90412 26.1857 3.52007 26.3398 3.24609C26.4169 3.10915 26.4705 3.00007 26.5029 2.92773C26.519 2.89195 26.5295 2.86506 26.5361 2.84863C26.5393 2.84068 26.5419 2.83495 26.543 2.83203C26.5435 2.83061 26.5439 2.82912 26.5439 2.8291L26.959 1.66699L27.4697 2.79395Z" stroke="#C29862"/>
<path d="M24.8411 30.0969C28.0505 33.3063 30.5171 34.1119 33.4246 31.2045C33.8796 30.7373 34.3052 30.1469 33.7014 29.5432L31.3479 27.7435C30.6051 27.3439 30.315 27.6281 29.9635 28.0203C28.6786 29.4545 27.2925 28.9785 26.3642 28.0203L24.9797 26.6359C24.0216 25.7075 23.5456 24.3211 24.9797 23.0365C25.3721 22.685 25.6562 22.3948 25.2566 21.6521L23.4568 19.2986C22.853 18.6948 22.2627 19.1204 21.7954 19.5754C18.8882 22.4827 19.6936 24.9495 22.903 28.159L24.8411 30.0969Z" fill="#B50000"/>
</svg>
