<svg width="163" height="32" viewBox="0 0 163 32" fill="none" xmlns="http://www.w3.org/2000/svg">
<path d="M2.426 22.3414C2.92205 21.9843 3.46681 21.7602 4.06028 21.6691C4.65376 21.5781 5.25149 21.605 5.85346 21.7499C6.45544 21.8949 7.03438 22.1572 7.59029 22.5371C8.13983 22.9081 8.62186 23.3814 9.0364 23.9572C9.45094 24.533 9.75014 25.1447 9.93402 25.7924C10.1115 26.4312 10.1735 27.059 10.12 27.6759C10.0665 28.2928 9.90243 28.8682 9.62783 29.4021C9.35323 29.9361 8.96791 30.3816 8.47186 30.7387C7.97582 31.0959 7.43106 31.32 6.83758 31.411C6.2441 31.5021 5.64638 31.4751 5.0444 31.3302C4.44242 31.1853 3.86667 30.9273 3.31713 30.5564C2.76122 30.1765 2.276 29.6987 1.86146 29.123C1.44693 28.5472 1.15091 27.9399 0.973407 27.3011C0.78953 26.6534 0.724347 26.0211 0.77786 25.4042C0.831372 24.7874 0.995429 24.212 1.27003 23.678C1.54463 23.1441 1.92996 22.6985 2.426 22.3414ZM2.25378 23.6153C1.97919 23.813 1.78342 24.0549 1.6665 24.3408C1.54319 24.6179 1.48596 24.9213 1.49482 25.2512C1.51253 25.5747 1.58994 25.9157 1.72705 26.2743C1.85779 26.624 2.04433 26.9671 2.28667 27.3037C2.68207 27.8529 3.15968 28.3295 3.71949 28.7334C4.2793 29.1373 4.85523 29.4422 5.44728 29.6481C6.04819 29.8476 6.63157 29.9387 7.19741 29.9213C7.76325 29.904 8.24547 29.7518 8.64408 29.4648C8.88324 29.2926 9.06643 29.08 9.19363 28.8271C9.32331 28.5588 9.39135 28.261 9.39773 27.9337C9.40411 27.6063 9.34318 27.2601 9.21492 26.8952C9.08667 26.5302 8.88542 26.1573 8.61119 25.7764C8.1839 25.1829 7.6783 24.6862 7.0944 24.2861C6.5105 23.8861 5.92004 23.5984 5.32303 23.423C4.72849 23.2324 4.15911 23.1514 3.61489 23.1801C3.07066 23.2088 2.61696 23.3539 2.25378 23.6153Z" fill="#C29862"/>
<path d="M8.25413 19.5031L7.97175 19.6689L7.64018 19.1042L12.8642 16.0371L13.3579 17.2661C13.0143 17.1767 12.6792 17.1773 12.3526 17.2677C12.0205 17.3488 11.6427 17.5137 11.2191 17.7624L9.66602 18.6742L14.308 26.5808L12.8962 27.4097L8.25413 19.5031Z" fill="#C29862"/>
<path d="M14.0953 15.3466L15.5687 14.6327L17.4249 18.4635L21.2557 16.6072L19.3995 12.7765L20.8728 12.0625L25.1565 20.9028L23.6831 21.6167L21.5413 17.1966L17.7105 19.0528L19.8523 23.473L18.3789 24.1869L14.0953 15.3466Z" fill="#C29862"/>
<path d="M23.9918 10.7146L25.5224 10.1334L27.2659 14.7253L30.2866 10.6888L29.502 8.62243L31.0327 8.04127L34.5196 17.225L32.9889 17.8062L30.5481 11.3776L27.5274 15.4141L29.0093 19.3172L27.4787 19.8983L23.9918 10.7146Z" fill="#C29862"/>
<path d="M36.3365 16.6342L33.7115 7.84943L33.3978 7.94318L33.2103 7.3157L36.9909 6.18602C37.2837 6.09852 37.5671 6.03662 37.841 6.00033C38.1223 5.95045 38.3764 5.94289 38.6032 5.97763C38.8269 6.00192 39.0182 6.07009 39.1769 6.18213C39.3326 6.28371 39.4401 6.43385 39.4995 6.63255C39.5807 6.90446 39.5271 7.18249 39.3386 7.46665C39.1606 7.74769 38.9517 8.02085 38.712 8.28613C38.4692 8.54096 38.2426 8.77385 38.0322 8.9848C37.8323 9.19263 37.7527 9.36452 37.7933 9.50048C37.8246 9.60506 37.941 9.68987 38.1427 9.75491C38.3413 9.80949 38.5849 9.86203 38.8734 9.91252C39.1618 9.96302 39.4723 10.0297 39.8046 10.1127C40.1475 10.1925 40.4756 10.2995 40.7891 10.4337C41.1026 10.5678 41.3852 10.7511 41.6369 10.9835C41.8855 11.2054 42.0629 11.4941 42.1691 11.8497C42.316 12.3412 42.3432 12.7945 42.2508 13.2094C42.1657 13.6108 41.9901 13.9765 41.7242 14.3066C41.4552 14.6262 41.1078 14.9123 40.682 15.1648C40.2636 15.4038 39.7929 15.6014 39.27 15.7576L36.3365 16.6342ZM37.7177 15.5379L39.0198 15.1489C39.3021 15.0645 39.5955 14.9597 39.8999 14.8346C40.2011 14.699 40.4668 14.5399 40.697 14.3572C40.9377 14.1714 41.1172 13.9525 41.2356 13.7007C41.354 13.4489 41.3648 13.1609 41.2679 12.8367C41.1711 12.5125 41.0061 12.2656 40.7732 12.0959C40.5371 11.9159 40.267 11.7744 39.9629 11.6717C39.6588 11.5689 39.34 11.4932 39.0065 11.4448C38.6804 11.3828 38.3684 11.3108 38.0706 11.2289C37.7727 11.1471 37.512 11.037 37.2884 10.8988C37.0617 10.7501 36.9077 10.5397 36.8265 10.2678C36.7546 10.0273 36.7878 9.79525 36.926 9.57167C37.0747 9.34497 37.2422 9.12403 37.4286 8.90887C37.6222 8.68013 37.7934 8.4524 37.9421 8.2257C38.0877 7.98854 38.1214 7.73923 38.0433 7.47778C38.0152 7.38366 37.9452 7.30204 37.8334 7.23292C37.729 7.15021 37.6015 7.08578 37.451 7.03961C37.311 6.99032 37.1599 6.96141 36.9979 6.95287C36.8463 6.94121 36.7025 6.95568 36.5666 6.99631L35.2802 7.38068L37.7177 15.5379Z" fill="#C29862"/>
<path d="M45.6154 3.65891C46.2115 3.5235 46.8005 3.5296 47.3825 3.67721C47.9645 3.82482 48.5044 4.08273 49.0022 4.45095C49.5 4.81916 49.9307 5.28655 50.2945 5.85311C50.6558 6.40902 50.9151 7.0329 51.0723 7.72474C51.2294 8.41658 51.2664 9.09656 51.1831 9.76467C51.0974 10.4221 50.9096 11.0245 50.6198 11.5716C50.33 12.1187 49.9545 12.5846 49.4934 12.9692C49.0323 13.3538 48.5037 13.6137 47.9077 13.7492C47.3116 13.8846 46.7226 13.8785 46.1406 13.7309C45.5586 13.5832 45.0187 13.3253 44.521 12.9571C44.0232 12.5889 43.5936 12.1268 43.2322 11.5709C42.8685 11.0044 42.608 10.3752 42.4508 9.68332C42.2937 8.99148 42.2579 8.31682 42.3436 7.65935C42.4269 6.99124 42.6135 6.38361 42.9033 5.83646C43.1931 5.28932 43.5686 4.82346 44.0297 4.43888C44.4908 4.05431 45.0194 3.79431 45.6154 3.65891ZM44.96 4.7648C44.6301 4.83976 44.3555 4.98608 44.1363 5.20377C43.9147 5.41082 43.7437 5.66794 43.6232 5.97514C43.5133 6.27992 43.4516 6.62413 43.438 7.00778C43.422 7.38079 43.46 7.76952 43.5519 8.17398C43.7018 8.83389 43.9557 9.45898 44.3137 10.0492C44.6716 10.6395 45.083 11.1449 45.5479 11.5653C46.0235 11.9834 46.5251 12.2947 47.0529 12.4994C47.5807 12.7041 48.0841 12.7521 48.5631 12.6433C48.8505 12.578 49.1021 12.4537 49.3178 12.2703C49.5419 12.0739 49.7206 11.8262 49.8542 11.5273C49.9878 11.2283 50.0666 10.8858 50.0909 10.4997C50.1151 10.1136 50.0752 9.69176 49.9712 9.23408C49.8092 8.52095 49.5374 7.86635 49.1557 7.27028C48.7741 6.67421 48.3426 6.179 47.8612 5.78467C47.3881 5.37727 46.8954 5.08066 46.3831 4.89483C45.8708 4.70901 45.3964 4.66566 44.96 4.7648Z" fill="#C29862"/>
<path d="M56.4677 7.09941L64.5861 6.04797L64.6702 6.69744L56.5518 7.74888L56.4677 7.09941Z" fill="#C29862"/>
<path d="M70.7848 0.952151L70.4576 0.966413L70.4291 0.312138L76.3176 0.0554203L76.1783 1.37253C75.9166 1.13265 75.6202 0.976232 75.2893 0.903258C74.9579 0.819379 74.5468 0.788136 74.0561 0.809529L72.4204 0.88084L72.7913 9.3864L73.9853 9.33434C74.2797 9.32151 74.5898 9.2916 74.9155 9.24463C75.2407 9.18675 75.5373 9.09734 75.8051 8.97641C76.0839 8.855 76.3115 8.68667 76.4878 8.4714C76.6642 8.25613 76.745 7.97947 76.7302 7.64143C76.7155 7.30339 76.6213 7.02344 76.4478 6.80157C76.2738 6.5688 76.0575 6.37065 75.7991 6.20711C75.5402 6.03267 75.2553 5.88667 74.9443 5.76913C74.6436 5.64021 74.3594 5.51057 74.0915 5.38022C73.8236 5.24987 73.588 5.10719 73.3846 4.95218C73.1807 4.78626 73.0517 4.58431 72.9976 4.34631L73.9007 3.25811C73.9415 3.44206 74.0633 3.60609 74.2663 3.7502C74.4796 3.88292 74.726 4.01968 75.0052 4.16045C75.2954 4.30076 75.6024 4.45125 75.9262 4.61194C76.2501 4.77263 76.5479 4.96176 76.8195 5.17935C77.1017 5.38555 77.3364 5.63207 77.5237 5.91888C77.7214 6.19432 77.8286 6.52287 77.8453 6.90453C77.8676 7.41704 77.7833 7.86319 77.5922 8.24298C77.4116 8.61139 77.1521 8.92315 76.8136 9.17826C76.4746 9.42247 76.0679 9.61501 75.5933 9.75588C75.1292 9.88537 74.6245 9.962 74.0793 9.98577L71.1841 10.112L70.7848 0.952151Z" fill="#C29862"/>
<path d="M84.2564 8.29524C83.9046 8.55381 83.5748 8.79621 83.267 9.02246C82.9592 9.2487 82.6516 9.44766 82.3443 9.61933C82.0481 9.7802 81.7357 9.90816 81.4074 10.0032C81.0899 10.0984 80.7511 10.1442 80.3909 10.1407C80.0744 10.1377 79.8021 10.075 79.5741 9.95273C79.346 9.83045 79.1566 9.66488 79.0058 9.45603C78.855 9.24718 78.7427 9.00595 78.669 8.73235C78.5953 8.44784 78.56 8.14732 78.5631 7.8308C78.5682 7.30691 78.6495 6.80013 78.807 6.31046C78.9647 5.80988 79.188 5.29356 79.4769 4.7615C79.766 4.21852 80.1099 3.64879 80.5086 3.0523C80.9073 2.45581 81.3558 1.79431 81.854 1.0678L81.4878 0L83.3214 0.0177476L86.6153 9.87352L84.7653 9.85561L84.2564 8.29524ZM82.1089 1.80706C81.6881 2.42517 81.3388 2.98939 81.061 3.49972C80.7942 3.99925 80.5769 4.46105 80.409 4.88513C80.2413 5.29829 80.123 5.67919 80.0541 6.02782C79.9854 6.36553 79.9495 6.68719 79.9465 6.99279C79.944 7.25474 79.9689 7.50603 80.0211 7.74668C80.0734 7.98732 80.1478 8.19544 80.2443 8.37102C80.3408 8.5466 80.4595 8.68965 80.6003 8.80017C80.7522 8.89987 80.9209 8.95063 81.1064 8.95242C81.6412 8.9576 82.1336 8.84229 82.5834 8.60651C83.0332 8.37072 83.5112 8.04243 84.0174 7.62163L82.1089 1.80706Z" fill="#C29862"/>
<path d="M88.3706 0.112326L90.0041 0.223277L89.7156 4.47031L93.9626 4.75878L94.2511 0.51175L95.8846 0.622701L95.2189 10.4235L93.5854 10.3126L93.9183 5.41217L89.6712 5.1237L89.3384 10.0241L87.7049 9.91318L88.3706 0.112326Z" fill="#C29862"/>
<path d="M98.4993 0.864512L100.122 1.07878L99.5654 5.29899L103.786 5.8561L104.343 1.63589L105.966 1.85016L104.68 11.5891L103.057 11.3748L103.7 6.50536L99.4796 5.94825L98.8368 10.8177L97.2137 10.6035L98.4993 0.864512Z" fill="#C29862"/>
<path d="M112.523 2.78193C113.123 2.90228 113.658 3.14886 114.128 3.5217C114.599 3.89453 114.986 4.35078 115.29 4.89045C115.593 5.43012 115.795 6.03286 115.895 6.69866C115.997 7.35376 115.979 8.0291 115.839 8.72469C115.699 9.42027 115.455 10.0558 115.105 10.6314C114.758 11.1962 114.34 11.669 113.852 12.0496C113.364 12.4302 112.83 12.7017 112.252 12.8639C111.674 13.0261 111.086 13.0471 110.486 12.9267C109.887 12.8064 109.352 12.5598 108.881 12.187C108.411 11.8141 108.024 11.3579 107.72 10.8182C107.417 10.2786 107.214 9.68117 107.111 9.02607C107.011 8.36026 107.031 7.67957 107.171 6.98399C107.311 6.28841 107.554 5.65819 107.901 5.09335C108.251 4.5178 108.669 4.03971 109.158 3.65907C109.646 3.27843 110.179 3.00699 110.757 2.84476C111.336 2.68253 111.924 2.66159 112.523 2.78193ZM111.473 3.52282C111.141 3.4562 110.831 3.47736 110.542 3.58631C110.255 3.68455 109.994 3.84917 109.758 4.08017C109.533 4.31331 109.336 4.60214 109.166 4.94664C108.999 5.28044 108.875 5.65067 108.793 6.05732C108.66 6.7208 108.636 7.39506 108.721 8.08012C108.806 8.76518 108.975 9.39464 109.227 9.96852C109.49 10.5445 109.82 11.0339 110.218 11.4367C110.616 11.8394 111.055 12.0891 111.537 12.1859C111.826 12.2439 112.106 12.2334 112.378 12.1544C112.663 12.0669 112.927 11.914 113.172 11.6959C113.416 11.4777 113.628 11.1975 113.808 10.8551C113.988 10.5128 114.124 10.1115 114.217 9.65136C114.361 8.93437 114.38 8.22585 114.276 7.52579C114.172 6.82574 113.981 6.19732 113.703 5.64055C113.438 5.07523 113.11 4.60297 112.718 4.22377C112.327 3.84458 111.912 3.61093 111.473 3.52282Z" fill="#C29862"/>
<path d="M119.025 5.14823L118.708 5.0635L118.878 4.43091L124.887 6.04081L124.359 7.25515C124.181 6.94769 123.946 6.70943 123.652 6.54035C123.361 6.36073 122.978 6.20738 122.504 6.08028L120.606 5.57189L119.674 9.05114L122.521 9.81372L122.351 10.4463L119.505 9.68373L118.403 13.7956L120.222 14.2828C120.696 14.4099 121.136 14.4768 121.541 14.4836C121.946 14.4904 122.348 14.3833 122.746 14.1623L122.583 15.5932L116.336 13.9198L116.505 13.2872L116.822 13.3719L119.025 5.14823Z" fill="#C29862"/>
<path d="M134.779 9.39582L134.735 19.1763L135.348 19.407C134.912 20.316 134.386 21.0333 133.768 21.5588C133.16 22.0881 132.435 22.4972 131.591 22.7861L131.095 21.6893C131.937 21.5282 132.638 21.2909 133.2 20.9774C133.757 20.6741 134.166 20.2684 134.428 19.7603L128.912 17.6833C128.605 17.5679 128.341 17.4801 128.119 17.4197C127.907 17.3632 127.714 17.3317 127.542 17.3251C127.376 17.3325 127.223 17.3681 127.082 17.4317C126.941 17.4954 126.791 17.5847 126.631 17.6994L126.844 16.205L127.61 16.4935C128.216 15.9054 128.767 15.3428 129.26 14.8056C129.754 14.2684 130.216 13.7248 130.644 13.1748C131.083 12.6286 131.498 12.0677 131.89 11.4921C132.292 10.9203 132.702 10.3109 133.121 9.66377L133.139 8.77849L134.779 9.39582ZM133.11 10.9017C132.754 11.4441 132.399 11.9521 132.046 12.4255C131.703 12.9029 131.34 13.3725 130.956 13.8344C130.576 14.2862 130.167 14.7506 129.731 15.2278C129.295 15.705 128.818 16.2134 128.3 16.7531L133.05 18.5416L133.11 10.9017Z" fill="#C29862"/>
<path d="M140.424 11.6329L141.902 12.3381L139.786 16.7708L144.792 16.1664L145.744 14.1717L147.221 14.877L142.99 23.7423L141.512 23.0371L144.474 16.8313L139.469 17.4357L137.671 21.2035L136.193 20.4983L140.424 11.6329Z" fill="#C29862"/>
<path d="M144.477 24.5394L149.144 16.6476L148.863 16.481L149.196 15.9173L152.592 17.9258C152.855 18.0814 153.093 18.2474 153.306 18.4239C153.533 18.5965 153.711 18.7779 153.84 18.9681C153.974 19.1488 154.054 19.3355 154.079 19.5281C154.11 19.7114 154.073 19.8922 153.968 20.0707C153.823 20.315 153.583 20.4644 153.246 20.519C152.919 20.5791 152.576 20.6112 152.219 20.6153C151.867 20.6101 151.542 20.6019 151.244 20.5906C150.956 20.585 150.776 20.6432 150.704 20.7654C150.648 20.8593 150.665 21.0024 150.754 21.1946C150.849 21.3775 150.976 21.592 151.134 21.838C151.293 22.0841 151.455 22.3573 151.62 22.6577C151.794 22.9636 151.938 23.2771 152.053 23.5984C152.167 23.9196 152.224 24.2515 152.225 24.5941C152.23 24.9273 152.139 25.2536 151.95 25.573C151.689 26.0146 151.375 26.3423 151.007 26.5561C150.655 26.7661 150.267 26.8856 149.844 26.9145C149.427 26.934 148.981 26.8732 148.506 26.732C148.047 26.5871 147.582 26.3757 147.112 26.0979L144.477 24.5394ZM146.22 24.8091L147.389 25.5009C147.643 25.6509 147.919 25.7951 148.218 25.9336C148.522 26.0627 148.819 26.1498 149.109 26.1947C149.409 26.2452 149.692 26.2285 149.957 26.1444C150.222 26.0604 150.441 25.8727 150.613 25.5815C150.786 25.2902 150.855 25.0015 150.821 24.7153C150.793 24.4197 150.714 24.1254 150.583 23.8323C150.452 23.5393 150.291 23.2539 150.1 22.9762C149.924 22.6946 149.765 22.4167 149.623 22.1425C149.481 21.8682 149.385 21.6021 149.334 21.3441C149.289 21.0766 149.339 20.8208 149.484 20.5765C149.612 20.3605 149.804 20.2273 150.062 20.177C150.33 20.1322 150.606 20.1052 150.89 20.0959C151.19 20.0828 151.473 20.0538 151.741 20.0091C152.013 19.9549 152.219 19.8104 152.358 19.5755C152.408 19.491 152.421 19.3842 152.396 19.2552C152.385 19.1224 152.346 18.985 152.278 18.8432C152.219 18.7069 152.138 18.5764 152.034 18.4516C151.94 18.3324 151.831 18.2367 151.709 18.1645L150.554 17.4811L146.22 24.8091Z" fill="#C29862"/>
<path d="M160.624 22.9304C161.115 23.2944 161.494 23.7453 161.761 24.2831C162.028 24.8208 162.184 25.3985 162.229 26.016C162.274 26.6336 162.2 27.2649 162.007 27.9099C161.82 28.5462 161.516 29.1493 161.093 29.7192C160.671 30.2891 160.179 30.76 159.618 31.132C159.063 31.4952 158.484 31.7451 157.88 31.8815C157.276 32.018 156.678 32.0366 156.085 31.9372C155.493 31.8378 154.952 31.6061 154.461 31.2421C153.97 30.878 153.591 30.4271 153.324 29.8894C153.057 29.3516 152.901 28.774 152.856 28.1564C152.811 27.5389 152.882 26.912 153.068 26.2757C153.261 25.6306 153.569 25.0232 153.991 24.4533C154.414 23.8834 154.903 23.4168 155.457 23.0536C156.018 22.6816 156.601 22.4273 157.205 22.2909C157.809 22.1544 158.407 22.1359 158.999 22.2352C159.591 22.3346 160.133 22.5663 160.624 22.9304ZM159.358 23.1534C159.086 22.9519 158.796 22.8388 158.488 22.8143C158.187 22.781 157.88 22.8187 157.569 22.9274C157.266 23.0426 156.964 23.22 156.665 23.4596C156.371 23.6904 156.101 23.9724 155.854 24.3055C155.451 24.8491 155.142 25.449 154.927 26.1051C154.712 26.7611 154.597 27.4025 154.581 28.0291C154.573 28.6622 154.664 29.2457 154.852 29.7795C155.041 30.3133 155.332 30.7265 155.727 31.019C155.964 31.1946 156.222 31.3045 156.501 31.3488C156.796 31.3908 157.101 31.3652 157.415 31.2718C157.728 31.1784 158.04 31.0151 158.348 30.782C158.657 30.5489 158.951 30.2439 159.231 29.8669C159.666 29.2794 159.986 28.6468 160.19 27.969C160.393 27.2911 160.488 26.6411 160.474 26.0191C160.475 25.3947 160.379 24.8276 160.186 24.3179C159.993 23.8081 159.717 23.4199 159.358 23.1534Z" fill="#C29862"/>
</svg>
