<svg width="68" height="13" viewBox="0 0 68 13" fill="none" xmlns="http://www.w3.org/2000/svg">
<path opacity="0.5" fill-rule="evenodd" clip-rule="evenodd" d="M11.3356 2.90252C11.2143 2.78829 11.1024 2.68296 11 2.59578C10.8976 2.68296 10.7857 2.78829 10.6644 2.90252C10.3457 3.20266 9.96172 3.56417 9.51323 3.81878C9.25307 3.96739 8.33024 4.47515 6.96971 4.86437C6.96971 4.86437 6.6076 4.96698 6.07675 5.07137C5.98799 5.08129 5.89445 5.09053 5.79484 5.10037L5.7945 5.1004C5.73444 5.10634 5.67217 5.11249 5.60743 5.11914L5.54456 5.1257C5.15532 5.16637 4.72931 5.21087 4.28909 5.27129C4.12385 5.27306 3.95862 5.26952 3.79691 5.2589C3.7846 5.2589 3.7723 5.25713 3.7723 5.25713C3.56664 5.24121 3.14125 5.20759 2.76509 5.04306L2.76132 5.0414C2.52881 4.93936 2.29839 4.83822 2.13404 4.58307C2.09713 4.52469 1.89674 4.19915 1.99518 3.80993C2.00748 3.76216 2.06373 3.5534 2.27291 3.34994C2.59634 3.03502 3.01821 2.99433 3.96917 2.93241C4.45961 2.90059 4.66922 2.89032 4.80735 2.88355C4.9227 2.87789 4.98821 2.87468 5.12579 2.86341C6.29999 2.7661 7.06287 2.6918 7.49353 2.15219C7.54978 2.08143 7.71149 1.86558 7.76423 1.54536C7.77478 1.47813 7.88376 0.740375 7.36873 0.381228C6.91522 0.0663114 6.2912 0.26446 5.96953 0.581146C5.62676 0.917293 5.57754 1.4339 5.64785 1.46751C5.67018 1.47843 5.70061 1.43762 5.74905 1.37265C5.8341 1.25859 5.97467 1.07006 6.22441 0.956217C6.44413 0.855373 6.81503 0.781065 6.98201 0.965061C7.1033 1.09775 7.09803 1.3419 7.02244 1.49405C6.8216 1.89988 6.05509 1.87609 5.29026 1.85236C5.16483 1.84847 5.03945 1.84458 4.91661 1.84258L4.91097 1.84249C3.53536 1.81947 1.10113 1.77874 0.304186 2.95718C-0.166901 3.65424 -0.0438557 4.7476 0.353403 5.42344C0.573128 5.79674 0.893045 6.07804 1.08289 6.22134C0.893045 6.36642 0.571369 6.64595 0.353403 7.01925C-0.0420971 7.69685 -0.165144 8.78845 0.304186 9.48551C1.10113 10.664 3.53536 10.6232 4.91097 10.6002L4.91661 10.6001C5.03567 10.5979 5.15711 10.594 5.27867 10.5901C6.04734 10.5655 6.82058 10.5408 7.02244 10.9486C7.09803 11.1008 7.10154 11.3449 6.98201 11.4776C6.81503 11.6616 6.44413 11.5873 6.22441 11.4865C5.97751 11.3723 5.83757 11.1859 5.75205 11.072C5.7024 11.0058 5.6711 10.9641 5.64785 10.9752C5.57754 11.0106 5.62676 11.5272 5.96953 11.8633C6.2912 12.1782 6.91522 12.3799 7.36873 12.0615C7.88376 11.7041 7.77478 10.9646 7.76423 10.8991C7.71149 10.5806 7.54978 10.363 7.49353 10.2923C7.06287 9.75266 6.29999 9.68012 5.12579 9.58105C4.98821 9.56978 4.9227 9.56657 4.80735 9.56091C4.66922 9.55414 4.45959 9.54387 3.96917 9.51205C3.01821 9.44836 2.59634 9.40944 2.27291 9.09452C2.07222 8.89938 2.01305 8.69596 1.99668 8.63969L1.99518 8.63453C1.89674 8.24531 2.09713 7.91977 2.13404 7.86139C2.29598 7.60727 2.52692 7.50592 2.7585 7.40429L2.76509 7.4014C3.14125 7.23686 3.56664 7.20325 3.7723 7.18733C3.7723 7.18733 3.78284 7.18733 3.79691 7.18556C3.95687 7.17494 4.1221 7.16963 4.28909 7.17317C4.75314 7.23686 5.20138 7.28463 5.60743 7.32532L5.69694 7.33459C5.83306 7.34867 5.95966 7.36177 6.07675 7.37486C6.60585 7.47747 6.96971 7.58186 6.96971 7.58186C8.33199 7.97108 9.25307 8.47884 9.51323 8.62745C9.96175 8.88085 10.3457 9.24285 10.6645 9.54341C10.7858 9.65777 10.8976 9.76324 11 9.85044C11.1024 9.76324 11.2142 9.65777 11.3355 9.54341C11.6543 9.24285 12.0383 8.88085 12.4868 8.62745C12.7469 8.47884 13.668 7.97108 15.0303 7.58186C15.0303 7.58186 15.3942 7.47747 15.9232 7.37486C16.0403 7.36177 16.1669 7.34867 16.3031 7.33459L16.3926 7.32532C16.7986 7.28463 17.2469 7.23686 17.7109 7.17317C17.8779 7.16963 18.0431 7.17494 18.2031 7.18556C18.2172 7.18733 18.2277 7.18733 18.2277 7.18733C18.4334 7.20325 18.8587 7.23686 19.2349 7.4014L19.2415 7.40429C19.4731 7.50592 19.704 7.60727 19.866 7.86139C19.9029 7.91977 20.1033 8.24531 20.0048 8.63453L20.0033 8.63969C19.987 8.69596 19.9278 8.89938 19.7271 9.09452C19.4037 9.40944 18.9818 9.44836 18.0308 9.51205C17.5404 9.54387 17.3308 9.55414 17.1927 9.56091C17.0773 9.56657 17.0118 9.56978 16.8742 9.58105C15.7 9.68012 14.9371 9.75266 14.5065 10.2923C14.4502 10.363 14.2885 10.5806 14.2358 10.8991C14.2252 10.9646 14.1162 11.7041 14.6313 12.0615C15.0848 12.3799 15.7088 12.1782 16.0305 11.8633C16.3732 11.5272 16.4225 11.0106 16.3521 10.9752C16.3289 10.9641 16.2976 11.0058 16.2479 11.072C16.1624 11.1859 16.0225 11.3723 15.7756 11.4865C15.5559 11.5873 15.185 11.6616 15.018 11.4776C14.8985 11.3449 14.902 11.1008 14.9776 10.9486C15.1794 10.5408 15.9527 10.5655 16.7213 10.5901C16.8429 10.594 16.9643 10.5979 17.0834 10.6001L17.089 10.6002C18.4646 10.6232 20.8989 10.664 21.6958 9.48551C22.1651 8.78845 22.0421 7.69685 21.6466 7.01925C21.4286 6.64595 21.107 6.36642 20.9171 6.22134C21.107 6.07804 21.4269 5.79674 21.6466 5.42344C22.0439 4.7476 22.1669 3.65424 21.6958 2.95718C20.8989 1.77874 18.4646 1.81947 17.089 1.84249L17.0834 1.84258C16.9606 1.84458 16.8352 1.84847 16.7098 1.85236C15.9449 1.87609 15.1784 1.89988 14.9776 1.49405C14.902 1.3419 14.8967 1.09775 15.018 0.965061C15.185 0.781065 15.5559 0.855373 15.7756 0.956217C16.0253 1.07006 16.1659 1.25859 16.2509 1.37265C16.2994 1.43762 16.3298 1.47843 16.3521 1.46751C16.4225 1.4339 16.3732 0.917293 16.0305 0.581146C15.7088 0.26446 15.0848 0.0663114 14.6313 0.381228C14.1162 0.740375 14.2252 1.47813 14.2358 1.54536C14.2885 1.86558 14.4502 2.08143 14.5065 2.15219C14.9371 2.6918 15.7 2.7661 16.8742 2.86341C17.0118 2.87468 17.0773 2.87789 17.1926 2.88355C17.3308 2.89032 17.5404 2.90059 18.0308 2.93241C18.9818 2.99433 19.4037 3.03502 19.7271 3.34994C19.9363 3.5534 19.9925 3.76216 20.0048 3.80993C20.1033 4.19915 19.9029 4.52469 19.866 4.58307C19.7016 4.83822 19.4712 4.93936 19.2387 5.0414L19.2349 5.04306C18.8587 5.20759 18.4334 5.24121 18.2277 5.25713C18.2277 5.25713 18.2154 5.2589 18.2031 5.2589C18.0414 5.26952 17.8761 5.27306 17.7109 5.27129C17.2707 5.21087 16.8447 5.16637 16.4555 5.12571L16.3926 5.11914C16.3278 5.11249 16.2656 5.10634 16.2056 5.10041L16.2052 5.10037C16.1056 5.09054 16.012 5.08129 15.9232 5.07137C15.3924 4.96698 15.0303 4.86437 15.0303 4.86437C13.6698 4.47515 12.7469 3.96739 12.4868 3.81878C12.0383 3.56417 11.6543 3.20266 11.3356 2.90252ZM11 8.07432C10.922 7.93045 10.8368 7.79232 10.7419 7.66501C10.2761 7.02987 9.59408 6.55572 9.18979 6.30804C9.59408 6.06212 10.2761 5.5862 10.7419 4.95106C10.8355 4.82226 10.9215 4.68479 11 4.54119C11.0785 4.68479 11.1645 4.82226 11.2581 4.95106C11.7239 5.5862 12.4059 6.06212 12.8102 6.30804C12.4059 6.55572 11.7239 7.02987 11.2581 7.66501C11.1632 7.79232 11.078 7.93045 11 8.07432Z" fill="#C29862"/>
<path opacity="0.5" fill-rule="evenodd" clip-rule="evenodd" d="M34.3356 2.90252C34.2143 2.78829 34.1024 2.68296 34 2.59578C33.8976 2.68296 33.7857 2.78829 33.6644 2.90252C33.3457 3.20266 32.9617 3.56417 32.5132 3.81878C32.2531 3.96739 31.3302 4.47515 29.9697 4.86437C29.9697 4.86437 29.6076 4.96698 29.0768 5.07137C28.988 5.08129 28.8944 5.09053 28.7948 5.10037L28.7945 5.1004C28.7344 5.10634 28.6722 5.11249 28.6074 5.11914L28.5446 5.1257C28.1553 5.16637 27.7293 5.21087 27.2891 5.27129C27.1239 5.27306 26.9586 5.26952 26.7969 5.2589C26.7846 5.2589 26.7723 5.25713 26.7723 5.25713C26.5666 5.24121 26.1413 5.20759 25.7651 5.04306L25.7613 5.0414C25.5288 4.93936 25.2984 4.83822 25.134 4.58307C25.0971 4.52469 24.8967 4.19915 24.9952 3.80993C25.0075 3.76216 25.0637 3.5534 25.2729 3.34994C25.5963 3.03502 26.0182 2.99433 26.9692 2.93241C27.4596 2.90059 27.6692 2.89032 27.8074 2.88355C27.9227 2.87789 27.9882 2.87468 28.1258 2.86341C29.3 2.7661 30.0629 2.6918 30.4935 2.15219C30.5498 2.08143 30.7115 1.86558 30.7642 1.54536C30.7748 1.47813 30.8838 0.740375 30.3687 0.381228C29.9152 0.0663114 29.2912 0.26446 28.9695 0.581146C28.6268 0.917293 28.5775 1.4339 28.6479 1.46751C28.6702 1.47843 28.7006 1.43762 28.7491 1.37265C28.8341 1.25859 28.9747 1.07006 29.2244 0.956217C29.4441 0.855373 29.815 0.781065 29.982 0.965061C30.1033 1.09775 30.098 1.3419 30.0224 1.49405C29.8216 1.89988 29.0551 1.87609 28.2903 1.85236C28.1648 1.84847 28.0394 1.84458 27.9166 1.84258L27.911 1.84249C26.5354 1.81947 24.1011 1.77874 23.3042 2.95718C22.8331 3.65424 22.9561 4.7476 23.3534 5.42344C23.5731 5.79674 23.893 6.07804 24.0829 6.22134C23.893 6.36642 23.5714 6.64595 23.3534 7.01925C22.9579 7.69685 22.8349 8.78845 23.3042 9.48551C24.1011 10.664 26.5354 10.6232 27.911 10.6002L27.9166 10.6001C28.0357 10.5979 28.1571 10.594 28.2787 10.5901C29.0473 10.5655 29.8206 10.5408 30.0224 10.9486C30.098 11.1008 30.1015 11.3449 29.982 11.4776C29.815 11.6616 29.4441 11.5873 29.2244 11.4865C28.9775 11.3723 28.8376 11.1859 28.7521 11.072C28.7024 11.0058 28.6711 10.9641 28.6479 10.9752C28.5775 11.0106 28.6268 11.5272 28.9695 11.8633C29.2912 12.1782 29.9152 12.3799 30.3687 12.0615C30.8838 11.7041 30.7748 10.9646 30.7642 10.8991C30.7115 10.5806 30.5498 10.363 30.4935 10.2923C30.0629 9.75266 29.3 9.68012 28.1258 9.58105C27.9882 9.56978 27.9227 9.56657 27.8074 9.56091C27.6692 9.55414 27.4596 9.54387 26.9692 9.51205C26.0182 9.44836 25.5963 9.40944 25.2729 9.09452C25.0722 8.89938 25.013 8.69596 24.9967 8.63969L24.9952 8.63453C24.8967 8.24531 25.0971 7.91977 25.134 7.86139C25.296 7.60727 25.5269 7.50592 25.7585 7.40429L25.7651 7.4014C26.1413 7.23686 26.5666 7.20325 26.7723 7.18733C26.7723 7.18733 26.7828 7.18733 26.7969 7.18556C26.9569 7.17494 27.1221 7.16963 27.2891 7.17317C27.7531 7.23686 28.2014 7.28463 28.6074 7.32532L28.6969 7.33459C28.8331 7.34867 28.9597 7.36177 29.0768 7.37486C29.6058 7.47747 29.9697 7.58186 29.9697 7.58186C31.332 7.97108 32.2531 8.47884 32.5132 8.62745C32.9617 8.88085 33.3457 9.24285 33.6645 9.54341C33.7858 9.65777 33.8976 9.76324 34 9.85044C34.1024 9.76324 34.2142 9.65777 34.3355 9.54341C34.6543 9.24285 35.0383 8.88085 35.4868 8.62745C35.7469 8.47884 36.668 7.97108 38.0303 7.58186C38.0303 7.58186 38.3942 7.47747 38.9232 7.37486C39.0403 7.36177 39.1669 7.34867 39.3031 7.33459L39.3926 7.32532C39.7986 7.28463 40.2469 7.23686 40.7109 7.17317C40.8779 7.16963 41.0431 7.17494 41.2031 7.18556C41.2172 7.18733 41.2277 7.18733 41.2277 7.18733C41.4334 7.20325 41.8587 7.23686 42.2349 7.4014L42.2415 7.40429C42.4731 7.50592 42.704 7.60727 42.866 7.86139C42.9029 7.91977 43.1033 8.24531 43.0048 8.63453L43.0033 8.63969C42.987 8.69596 42.9278 8.89938 42.7271 9.09452C42.4037 9.40944 41.9818 9.44836 41.0308 9.51205C40.5404 9.54387 40.3308 9.55414 40.1927 9.56091C40.0773 9.56657 40.0118 9.56978 39.8742 9.58105C38.7 9.68012 37.9371 9.75266 37.5065 10.2923C37.4502 10.363 37.2885 10.5806 37.2358 10.8991C37.2252 10.9646 37.1162 11.7041 37.6313 12.0615C38.0848 12.3799 38.7088 12.1782 39.0305 11.8633C39.3732 11.5272 39.4225 11.0106 39.3521 10.9752C39.3289 10.9641 39.2976 11.0058 39.2479 11.072C39.1624 11.1859 39.0225 11.3723 38.7756 11.4865C38.5559 11.5873 38.185 11.6616 38.018 11.4776C37.8985 11.3449 37.902 11.1008 37.9776 10.9486C38.1794 10.5408 38.9527 10.5655 39.7213 10.5901C39.8429 10.594 39.9643 10.5979 40.0834 10.6001L40.089 10.6002C41.4646 10.6232 43.8989 10.664 44.6958 9.48551C45.1651 8.78845 45.0421 7.69685 44.6466 7.01925C44.4286 6.64595 44.107 6.36642 43.9171 6.22134C44.107 6.07804 44.4269 5.79674 44.6466 5.42344C45.0439 4.7476 45.1669 3.65424 44.6958 2.95718C43.8989 1.77874 41.4646 1.81947 40.089 1.84249L40.0834 1.84258C39.9606 1.84458 39.8352 1.84847 39.7098 1.85236C38.9449 1.87609 38.1784 1.89988 37.9776 1.49405C37.902 1.3419 37.8967 1.09775 38.018 0.965061C38.185 0.781065 38.5559 0.855373 38.7756 0.956217C39.0253 1.07006 39.1659 1.25859 39.2509 1.37265C39.2994 1.43762 39.3298 1.47843 39.3521 1.46751C39.4225 1.4339 39.3732 0.917293 39.0305 0.581146C38.7088 0.26446 38.0848 0.0663114 37.6313 0.381228C37.1162 0.740375 37.2252 1.47813 37.2358 1.54536C37.2885 1.86558 37.4502 2.08143 37.5065 2.15219C37.9371 2.6918 38.7 2.7661 39.8742 2.86341C40.0118 2.87468 40.0773 2.87789 40.1926 2.88355C40.3308 2.89032 40.5404 2.90059 41.0308 2.93241C41.9818 2.99433 42.4037 3.03502 42.7271 3.34994C42.9363 3.5534 42.9925 3.76216 43.0048 3.80993C43.1033 4.19915 42.9029 4.52469 42.866 4.58307C42.7016 4.83822 42.4712 4.93936 42.2387 5.0414L42.2349 5.04306C41.8587 5.20759 41.4334 5.24121 41.2277 5.25713C41.2277 5.25713 41.2154 5.2589 41.2031 5.2589C41.0414 5.26952 40.8761 5.27306 40.7109 5.27129C40.2707 5.21087 39.8447 5.16637 39.4555 5.12571L39.3926 5.11914C39.3278 5.11249 39.2656 5.10634 39.2056 5.10041L39.2052 5.10037C39.1056 5.09054 39.012 5.08129 38.9232 5.07137C38.3924 4.96698 38.0303 4.86437 38.0303 4.86437C36.6698 4.47515 35.7469 3.96739 35.4868 3.81878C35.0383 3.56417 34.6543 3.20266 34.3356 2.90252ZM34 8.07432C33.922 7.93045 33.8368 7.79232 33.7419 7.66501C33.2761 7.02987 32.5941 6.55572 32.1898 6.30804C32.5941 6.06212 33.2761 5.5862 33.7419 4.95106C33.8355 4.82226 33.9215 4.68479 34 4.54119C34.0785 4.68479 34.1645 4.82226 34.2581 4.95106C34.7239 5.5862 35.4059 6.06212 35.8102 6.30804C35.4059 6.55572 34.7239 7.02987 34.2581 7.66501C34.1632 7.79232 34.078 7.93045 34 8.07432Z" fill="#C29862"/>
<path opacity="0.5" fill-rule="evenodd" clip-rule="evenodd" d="M57.3356 2.90252C57.2143 2.78829 57.1024 2.68296 57 2.59578C56.8976 2.68296 56.7857 2.78829 56.6644 2.90252C56.3457 3.20266 55.9617 3.56417 55.5132 3.81878C55.2531 3.96739 54.3302 4.47515 52.9697 4.86437C52.9697 4.86437 52.6076 4.96698 52.0768 5.07137C51.988 5.08129 51.8944 5.09053 51.7948 5.10037L51.7945 5.1004C51.7344 5.10634 51.6722 5.11249 51.6074 5.11914L51.5446 5.1257C51.1553 5.16637 50.7293 5.21087 50.2891 5.27129C50.1239 5.27306 49.9586 5.26952 49.7969 5.2589C49.7846 5.2589 49.7723 5.25713 49.7723 5.25713C49.5666 5.24121 49.1413 5.20759 48.7651 5.04306L48.7613 5.0414C48.5288 4.93936 48.2984 4.83822 48.134 4.58307C48.0971 4.52469 47.8967 4.19915 47.9952 3.80993C48.0075 3.76216 48.0637 3.5534 48.2729 3.34994C48.5963 3.03502 49.0182 2.99433 49.9692 2.93241C50.4596 2.90059 50.6692 2.89032 50.8074 2.88355C50.9227 2.87789 50.9882 2.87468 51.1258 2.86341C52.3 2.7661 53.0629 2.6918 53.4935 2.15219C53.5498 2.08143 53.7115 1.86558 53.7642 1.54536C53.7748 1.47813 53.8838 0.740375 53.3687 0.381228C52.9152 0.0663114 52.2912 0.26446 51.9695 0.581146C51.6268 0.917293 51.5775 1.4339 51.6479 1.46751C51.6702 1.47843 51.7006 1.43762 51.7491 1.37265C51.8341 1.25859 51.9747 1.07006 52.2244 0.956217C52.4441 0.855373 52.815 0.781065 52.982 0.965061C53.1033 1.09775 53.098 1.3419 53.0224 1.49405C52.8216 1.89988 52.0551 1.87609 51.2903 1.85236C51.1648 1.84847 51.0394 1.84458 50.9166 1.84258L50.911 1.84249C49.5354 1.81947 47.1011 1.77874 46.3042 2.95718C45.8331 3.65424 45.9561 4.7476 46.3534 5.42344C46.5731 5.79674 46.893 6.07804 47.0829 6.22134C46.893 6.36642 46.5714 6.64595 46.3534 7.01925C45.9579 7.69685 45.8349 8.78845 46.3042 9.48551C47.1011 10.664 49.5354 10.6232 50.911 10.6002L50.9166 10.6001C51.0357 10.5979 51.1571 10.594 51.2787 10.5901C52.0473 10.5655 52.8206 10.5408 53.0224 10.9486C53.098 11.1008 53.1015 11.3449 52.982 11.4776C52.815 11.6616 52.4441 11.5873 52.2244 11.4865C51.9775 11.3723 51.8376 11.1859 51.7521 11.072C51.7024 11.0058 51.6711 10.9641 51.6479 10.9752C51.5775 11.0106 51.6268 11.5272 51.9695 11.8633C52.2912 12.1782 52.9152 12.3799 53.3687 12.0615C53.8838 11.7041 53.7748 10.9646 53.7642 10.8991C53.7115 10.5806 53.5498 10.363 53.4935 10.2923C53.0629 9.75266 52.3 9.68012 51.1258 9.58105C50.9882 9.56978 50.9227 9.56657 50.8074 9.56091C50.6692 9.55414 50.4596 9.54387 49.9692 9.51205C49.0182 9.44836 48.5963 9.40944 48.2729 9.09452C48.0722 8.89938 48.013 8.69596 47.9967 8.63969L47.9952 8.63453C47.8967 8.24531 48.0971 7.91977 48.134 7.86139C48.296 7.60727 48.5269 7.50592 48.7585 7.40429L48.7651 7.4014C49.1413 7.23686 49.5666 7.20325 49.7723 7.18733C49.7723 7.18733 49.7828 7.18733 49.7969 7.18556C49.9569 7.17494 50.1221 7.16963 50.2891 7.17317C50.7531 7.23686 51.2014 7.28463 51.6074 7.32532L51.6969 7.33459C51.8331 7.34867 51.9597 7.36177 52.0768 7.37486C52.6058 7.47747 52.9697 7.58186 52.9697 7.58186C54.332 7.97108 55.2531 8.47884 55.5132 8.62745C55.9617 8.88085 56.3457 9.24285 56.6645 9.54341C56.7858 9.65777 56.8976 9.76324 57 9.85044C57.1024 9.76324 57.2142 9.65777 57.3355 9.54341C57.6543 9.24285 58.0383 8.88085 58.4868 8.62745C58.7469 8.47884 59.668 7.97108 61.0303 7.58186C61.0303 7.58186 61.3942 7.47747 61.9232 7.37486C62.0403 7.36177 62.1669 7.34867 62.3031 7.33459L62.3926 7.32532C62.7986 7.28463 63.2469 7.23686 63.7109 7.17317C63.8779 7.16963 64.0431 7.17494 64.2031 7.18556C64.2172 7.18733 64.2277 7.18733 64.2277 7.18733C64.4334 7.20325 64.8587 7.23686 65.2349 7.4014L65.2415 7.40429C65.4731 7.50592 65.704 7.60727 65.866 7.86139C65.9029 7.91977 66.1033 8.24531 66.0048 8.63453L66.0033 8.63969C65.987 8.69596 65.9278 8.89938 65.7271 9.09452C65.4037 9.40944 64.9818 9.44836 64.0308 9.51205C63.5404 9.54387 63.3308 9.55414 63.1927 9.56091C63.0773 9.56657 63.0118 9.56978 62.8742 9.58105C61.7 9.68012 60.9371 9.75266 60.5065 10.2923C60.4502 10.363 60.2885 10.5806 60.2358 10.8991C60.2252 10.9646 60.1162 11.7041 60.6313 12.0615C61.0848 12.3799 61.7088 12.1782 62.0305 11.8633C62.3732 11.5272 62.4225 11.0106 62.3521 10.9752C62.3289 10.9641 62.2976 11.0058 62.2479 11.072C62.1624 11.1859 62.0225 11.3723 61.7756 11.4865C61.5559 11.5873 61.185 11.6616 61.018 11.4776C60.8985 11.3449 60.902 11.1008 60.9776 10.9486C61.1794 10.5408 61.9527 10.5655 62.7213 10.5901C62.8429 10.594 62.9643 10.5979 63.0834 10.6001L63.089 10.6002C64.4646 10.6232 66.8989 10.664 67.6958 9.48551C68.1651 8.78845 68.0421 7.69685 67.6466 7.01925C67.4286 6.64595 67.107 6.36642 66.9171 6.22134C67.107 6.07804 67.4269 5.79674 67.6466 5.42344C68.0439 4.7476 68.1669 3.65424 67.6958 2.95718C66.8989 1.77874 64.4646 1.81947 63.089 1.84249L63.0834 1.84258C62.9606 1.84458 62.8352 1.84847 62.7098 1.85236C61.9449 1.87609 61.1784 1.89988 60.9776 1.49405C60.902 1.3419 60.8967 1.09775 61.018 0.965061C61.185 0.781065 61.5559 0.855373 61.7756 0.956217C62.0253 1.07006 62.1659 1.25859 62.2509 1.37265C62.2994 1.43762 62.3298 1.47843 62.3521 1.46751C62.4225 1.4339 62.3732 0.917293 62.0305 0.581146C61.7088 0.26446 61.0848 0.0663114 60.6313 0.381228C60.1162 0.740375 60.2252 1.47813 60.2358 1.54536C60.2885 1.86558 60.4502 2.08143 60.5065 2.15219C60.9371 2.6918 61.7 2.7661 62.8742 2.86341C63.0118 2.87468 63.0773 2.87789 63.1926 2.88355C63.3308 2.89032 63.5404 2.90059 64.0308 2.93241C64.9818 2.99433 65.4037 3.03502 65.7271 3.34994C65.9363 3.5534 65.9925 3.76216 66.0048 3.80993C66.1033 4.19915 65.9029 4.52469 65.866 4.58307C65.7016 4.83822 65.4712 4.93936 65.2387 5.0414L65.2349 5.04306C64.8587 5.20759 64.4334 5.24121 64.2277 5.25713C64.2277 5.25713 64.2154 5.2589 64.2031 5.2589C64.0414 5.26952 63.8761 5.27306 63.7109 5.27129C63.2707 5.21087 62.8447 5.16637 62.4555 5.12571L62.3926 5.11914C62.3278 5.11249 62.2656 5.10634 62.2056 5.10041L62.2052 5.10037C62.1056 5.09054 62.012 5.08129 61.9232 5.07137C61.3924 4.96698 61.0303 4.86437 61.0303 4.86437C59.6698 4.47515 58.7469 3.96739 58.4868 3.81878C58.0383 3.56417 57.6543 3.20266 57.3356 2.90252ZM57 8.07432C56.922 7.93045 56.8368 7.79232 56.7419 7.66501C56.2761 7.02987 55.5941 6.55572 55.1898 6.30804C55.5941 6.06212 56.2761 5.5862 56.7419 4.95106C56.8355 4.82226 56.9215 4.68479 57 4.54119C57.0785 4.68479 57.1645 4.82226 57.2581 4.95106C57.7239 5.5862 58.4059 6.06212 58.8102 6.30804C58.4059 6.55572 57.7239 7.02987 57.2581 7.66501C57.1632 7.79232 57.078 7.93045 57 8.07432Z" fill="#C29862"/>
</svg>
