<svg width="537" height="24" viewBox="0 0 537 24" fill="none" xmlns="http://www.w3.org/2000/svg">
<path opacity="0.5" fill-rule="evenodd" clip-rule="evenodd" d="M426.133 5.3607C425.89 5.13225 425.665 4.92158 425.46 4.74722C425.255 4.92158 425.031 5.13225 424.788 5.3607C424.149 5.96099 423.38 6.684 422.482 7.19321C421.96 7.49044 420.112 8.50596 417.386 9.28441C417.386 9.28441 416.66 9.48963 415.597 9.6984C415.419 9.71825 415.232 9.73673 415.032 9.7564L415.031 9.75647C414.911 9.76834 414.786 9.78063 414.657 9.79394L414.531 9.80707C413.751 9.88839 412.897 9.9774 412.015 10.0982C411.684 10.1018 411.353 10.0947 411.029 10.0735C411.005 10.0735 410.98 10.0699 410.98 10.0699C410.568 10.0381 409.716 9.97085 408.962 9.64178L408.955 9.63847C408.489 9.43438 408.027 9.23211 407.698 8.7218C407.624 8.60504 407.222 7.95397 407.42 7.17552C407.444 7.07999 407.557 6.66246 407.976 6.25554C408.624 5.62571 409.469 5.54433 411.374 5.42048C412.357 5.35685 412.777 5.3363 413.054 5.32276C413.285 5.31145 413.416 5.30503 413.692 5.28249C416.044 5.08787 417.572 4.93926 418.435 3.86005C418.548 3.71851 418.872 3.28683 418.978 2.64638C418.999 2.51192 419.217 1.03641 418.185 0.318121C417.277 -0.311713 416.026 0.0845833 415.382 0.717956C414.695 1.39025 414.597 2.42346 414.738 2.49069C414.782 2.51252 414.843 2.43091 414.94 2.30097C415.111 2.07285 415.392 1.69579 415.893 1.4681C416.333 1.26641 417.076 1.11779 417.41 1.48579C417.653 1.75117 417.643 2.23947 417.491 2.54377C417.089 3.35541 415.553 3.30785 414.021 3.26038C413.77 3.2526 413.519 3.24482 413.273 3.24083L413.261 3.24064C410.505 3.1946 405.628 3.11314 404.032 5.47002C403.088 6.86415 403.335 9.05087 404.13 10.4025C404.571 11.1491 405.212 11.7117 405.592 11.9984C405.212 12.2885 404.567 12.8476 404.13 13.5942C403.338 14.9494 403.092 17.1326 404.032 18.5267C405.628 20.8836 410.505 20.8021 413.261 20.7561L413.273 20.7559C413.511 20.7515 413.754 20.7437 413.998 20.736C415.538 20.6867 417.087 20.6372 417.491 21.4529C417.643 21.7572 417.65 22.2455 417.41 22.5109C417.076 22.8789 416.333 22.7303 415.893 22.5286C415.398 22.3003 415.118 21.9274 414.946 21.6996C414.847 21.5673 414.784 21.4839 414.738 21.506C414.597 21.5768 414.695 22.61 415.382 23.2823C416.026 23.9121 417.277 24.3155 418.185 23.6786C419.217 22.9638 418.999 21.4848 418.978 21.3539C418.872 20.717 418.548 20.2817 418.435 20.1402C417.572 19.061 416.044 18.9159 413.692 18.7178C413.416 18.6952 413.285 18.6888 413.054 18.6775C412.777 18.6639 412.357 18.6434 411.374 18.5798C409.469 18.4524 408.624 18.3745 407.976 17.7447C407.574 17.3544 407.455 16.9476 407.423 16.835L407.42 16.8247C407.222 16.0463 407.624 15.3952 407.698 15.2784C408.022 14.7702 408.485 14.5675 408.949 14.3642L408.962 14.3585C409.716 14.0294 410.568 13.9622 410.98 13.9303C410.98 13.9303 411.001 13.9303 411.029 13.9268C411.35 13.9055 411.681 13.8949 412.015 13.902C412.945 14.0294 413.843 14.1249 414.657 14.2063L414.836 14.2248C415.109 14.253 415.362 14.2792 415.597 14.3054C416.657 14.5106 417.386 14.7194 417.386 14.7194C420.115 15.4978 421.96 16.5133 422.482 16.8106C423.38 17.3174 424.149 18.0414 424.788 18.6425C425.031 18.8712 425.255 19.0821 425.46 19.2565C425.665 19.0821 425.889 18.8712 426.132 18.6425C426.771 18.0414 427.54 17.3174 428.439 16.8106C428.96 16.5133 430.805 15.4978 433.535 14.7194C433.535 14.7194 434.264 14.5106 435.324 14.3054C435.558 14.2792 435.812 14.253 436.085 14.2248L436.264 14.2063C437.077 14.1249 437.975 14.0294 438.905 13.902C439.24 13.8949 439.571 13.9055 439.891 13.9268C439.919 13.9303 439.94 13.9303 439.94 13.9303C440.353 13.9622 441.205 14.0294 441.958 14.3585L441.972 14.3642C442.436 14.5675 442.898 14.7702 443.223 15.2784C443.297 15.3952 443.698 16.0463 443.501 16.8247L443.498 16.835C443.465 16.9476 443.346 17.3544 442.944 17.7447C442.296 18.3745 441.451 18.4524 439.546 18.5798C438.564 18.6434 438.144 18.6639 437.867 18.6775C437.636 18.6888 437.504 18.6952 437.229 18.7178C434.876 18.9159 433.348 19.061 432.485 20.1402C432.373 20.2817 432.049 20.717 431.943 21.3539C431.922 21.4848 431.703 22.9638 432.735 23.6786C433.644 24.3155 434.894 23.9121 435.538 23.2823C436.225 22.61 436.324 21.5768 436.183 21.506C436.136 21.4839 436.074 21.5673 435.974 21.6996C435.803 21.9274 435.522 22.3003 435.028 22.5286C434.588 22.7303 433.845 22.8789 433.51 22.5109C433.271 22.2455 433.278 21.7572 433.429 21.4529C433.833 20.6372 435.383 20.6867 436.923 20.736C437.166 20.7437 437.409 20.7515 437.648 20.7559L437.659 20.7561C440.415 20.8021 445.292 20.8836 446.889 18.5267C447.829 17.1326 447.582 14.9494 446.79 13.5942C446.353 12.8476 445.709 12.2885 445.329 11.9984C445.709 11.7117 446.35 11.1491 446.79 10.4025C447.586 9.05087 447.832 6.86415 446.889 5.47002C445.292 3.11314 440.415 3.1946 437.659 3.24064L437.648 3.24083C437.402 3.24482 437.151 3.2526 436.899 3.26038C435.367 3.30785 433.831 3.35541 433.429 2.54377C433.278 2.23947 433.267 1.75117 433.51 1.48579C433.845 1.11779 434.588 1.26641 435.028 1.4681C435.528 1.69579 435.81 2.07285 435.98 2.30097C436.077 2.43091 436.138 2.51252 436.183 2.49069C436.324 2.42346 436.225 1.39025 435.538 0.717956C434.894 0.0845833 433.644 -0.311713 432.735 0.318121C431.703 1.03641 431.922 2.51192 431.943 2.64638C432.049 3.28683 432.373 3.71851 432.485 3.86005C433.348 4.93926 434.876 5.08787 437.229 5.28249C437.504 5.30503 437.636 5.31145 437.867 5.32276C438.144 5.3363 438.564 5.35685 439.546 5.42048C441.451 5.54433 442.296 5.62571 442.944 6.25554C443.363 6.66246 443.476 7.07999 443.501 7.17552C443.698 7.95397 443.297 8.60504 443.223 8.7218C442.893 9.23211 442.432 9.43438 441.966 9.63847L441.958 9.64178C441.205 9.97085 440.353 10.0381 439.94 10.0699C439.94 10.0699 439.916 10.0735 439.891 10.0735C439.567 10.0947 439.236 10.1018 438.905 10.0982C438.023 9.9774 437.17 9.8884 436.39 9.80708L436.264 9.79394C436.134 9.78064 436.01 9.76834 435.889 9.75648L435.889 9.75641C435.689 9.73673 435.502 9.71825 435.324 9.6984C434.26 9.48963 433.535 9.28441 433.535 9.28441C430.809 8.50596 428.96 7.49044 428.439 7.19321C427.54 6.684 426.771 5.96099 426.133 5.3607ZM425.46 15.7043C425.304 15.4166 425.133 15.1403 424.943 14.8857C424.01 13.6154 422.644 12.6671 421.834 12.1717C422.644 11.6799 424.01 10.7281 424.943 9.45778C425.131 9.20019 425.303 8.92525 425.46 8.63805C425.617 8.92525 425.79 9.20019 425.977 9.45778C426.911 10.7281 428.277 11.6799 429.087 12.1717C428.277 12.6671 426.911 13.6154 425.977 14.8857C425.787 15.1403 425.617 15.4166 425.46 15.7043Z" fill="#C29862"/>
<path opacity="0.5" fill-rule="evenodd" clip-rule="evenodd" d="M381.308 5.3607C381.065 5.13225 380.841 4.92158 380.636 4.74722C380.431 4.92158 380.207 5.13225 379.964 5.3607C379.325 5.96099 378.556 6.684 377.657 7.19321C377.136 7.49044 375.287 8.50596 372.562 9.28441C372.562 9.28441 371.836 9.48963 370.773 9.6984C370.595 9.71825 370.407 9.73673 370.208 9.7564L370.207 9.75647C370.087 9.76834 369.962 9.78063 369.832 9.79394L369.706 9.80707C368.927 9.88839 368.073 9.9774 367.191 10.0982C366.86 10.1018 366.529 10.0947 366.205 10.0735C366.18 10.0735 366.156 10.0699 366.156 10.0699C365.744 10.0381 364.892 9.97085 364.138 9.64178L364.13 9.63847C363.665 9.43438 363.203 9.23211 362.874 8.7218C362.8 8.60504 362.398 7.95397 362.595 7.17552C362.62 7.07999 362.733 6.66246 363.152 6.25554C363.8 5.62571 364.645 5.54433 366.55 5.42048C367.533 5.35685 367.953 5.3363 368.229 5.32276C368.461 5.31145 368.592 5.30503 368.867 5.28249C371.22 5.08787 372.748 4.93926 373.611 3.86005C373.724 3.71851 374.048 3.28683 374.153 2.64638C374.174 2.51192 374.393 1.03641 373.361 0.318121C372.452 -0.311713 371.202 0.0845833 370.558 0.717956C369.871 1.39025 369.772 2.42346 369.913 2.49069C369.958 2.51252 370.019 2.43091 370.116 2.30097C370.286 2.07285 370.568 1.69579 371.068 1.4681C371.509 1.26641 372.252 1.11779 372.586 1.48579C372.829 1.75117 372.819 2.23947 372.667 2.54377C372.265 3.35541 370.729 3.30785 369.197 3.26038C368.946 3.2526 368.694 3.24482 368.448 3.24083L368.437 3.24064C365.681 3.1946 360.804 3.11314 359.208 5.47002C358.264 6.86415 358.51 9.05087 359.306 10.4025C359.746 11.1491 360.387 11.7117 360.768 11.9984C360.387 12.2885 359.743 12.8476 359.306 13.5942C358.514 14.9494 358.267 17.1326 359.208 18.5267C360.804 20.8836 365.681 20.8021 368.437 20.7561L368.448 20.7559C368.687 20.7515 368.93 20.7437 369.174 20.736C370.714 20.6867 372.263 20.6372 372.667 21.4529C372.819 21.7572 372.826 22.2455 372.586 22.5109C372.252 22.8789 371.509 22.7303 371.068 22.5286C370.574 22.3003 370.293 21.9274 370.122 21.6996C370.023 21.5673 369.96 21.4839 369.913 21.506C369.772 21.5768 369.871 22.61 370.558 23.2823C371.202 23.9121 372.452 24.3155 373.361 23.6786C374.393 22.9638 374.174 21.4848 374.153 21.3539C374.048 20.717 373.724 20.2817 373.611 20.1402C372.748 19.061 371.22 18.9159 368.867 18.7178C368.592 18.6952 368.461 18.6888 368.229 18.6775C367.953 18.6639 367.533 18.6434 366.55 18.5798C364.645 18.4524 363.8 18.3745 363.152 17.7447C362.75 17.3544 362.631 16.9476 362.598 16.835L362.595 16.8247C362.398 16.0463 362.8 15.3952 362.874 15.2784C363.198 14.7702 363.661 14.5675 364.125 14.3642L364.138 14.3585C364.892 14.0294 365.744 13.9622 366.156 13.9303C366.156 13.9303 366.177 13.9303 366.205 13.9268C366.526 13.9055 366.857 13.8949 367.191 13.902C368.121 14.0294 369.019 14.1249 369.832 14.2063L370.012 14.2248C370.284 14.253 370.538 14.2792 370.773 14.3054C371.833 14.5106 372.562 14.7194 372.562 14.7194C375.291 15.4978 377.136 16.5133 377.657 16.8106C378.556 17.3174 379.325 18.0414 379.964 18.6425C380.207 18.8712 380.431 19.0821 380.636 19.2565C380.841 19.0821 381.065 18.8712 381.308 18.6425C381.947 18.0414 382.716 17.3174 383.615 16.8106C384.136 16.5133 385.981 15.4978 388.71 14.7194C388.71 14.7194 389.439 14.5106 390.499 14.3054C390.734 14.2792 390.988 14.253 391.26 14.2248L391.44 14.2063C392.253 14.1249 393.151 14.0294 394.081 13.902C394.415 13.8949 394.747 13.9055 395.067 13.9268C395.095 13.9303 395.116 13.9303 395.116 13.9303C395.528 13.9622 396.381 14.0294 397.134 14.3585L397.147 14.3642C397.611 14.5675 398.074 14.7702 398.398 15.2784C398.472 15.3952 398.874 16.0463 398.677 16.8247L398.674 16.835C398.641 16.9476 398.522 17.3544 398.12 17.7447C397.472 18.3745 396.627 18.4524 394.722 18.5798C393.739 18.6434 393.319 18.6639 393.043 18.6775C392.812 18.6888 392.68 18.6952 392.405 18.7178C390.052 18.9159 388.524 19.061 387.661 20.1402C387.548 20.2817 387.224 20.717 387.119 21.3539C387.098 21.4848 386.879 22.9638 387.911 23.6786C388.82 24.3155 390.07 23.9121 390.714 23.2823C391.401 22.61 391.5 21.5768 391.359 21.506C391.312 21.4839 391.249 21.5673 391.15 21.6996C390.979 21.9274 390.698 22.3003 390.204 22.5286C389.763 22.7303 389.02 22.8789 388.686 22.5109C388.446 22.2455 388.453 21.7572 388.605 21.4529C389.009 20.6372 390.558 20.6867 392.098 20.736C392.342 20.7437 392.585 20.7515 392.824 20.7559L392.835 20.7561C395.591 20.8021 400.468 20.8836 402.064 18.5267C403.005 17.1326 402.758 14.9494 401.966 13.5942C401.529 12.8476 400.885 12.2885 400.504 11.9984C400.885 11.7117 401.526 11.1491 401.966 10.4025C402.762 9.05087 403.008 6.86415 402.064 5.47002C400.468 3.11314 395.591 3.1946 392.835 3.24064L392.824 3.24083C392.578 3.24482 392.326 3.2526 392.075 3.26038C390.543 3.30785 389.007 3.35541 388.605 2.54377C388.453 2.23947 388.443 1.75117 388.686 1.48579C389.02 1.11779 389.763 1.26641 390.204 1.4681C390.704 1.69579 390.986 2.07285 391.156 2.30097C391.253 2.43091 391.314 2.51252 391.359 2.49069C391.5 2.42346 391.401 1.39025 390.714 0.717956C390.07 0.0845833 388.82 -0.311713 387.911 0.318121C386.879 1.03641 387.098 2.51192 387.119 2.64638C387.224 3.28683 387.548 3.71851 387.661 3.86005C388.524 4.93926 390.052 5.08787 392.405 5.28249C392.68 5.30503 392.812 5.31145 393.043 5.32276C393.319 5.3363 393.739 5.35685 394.722 5.42048C396.627 5.54433 397.472 5.62571 398.12 6.25554C398.539 6.66246 398.652 7.07999 398.677 7.17552C398.874 7.95397 398.472 8.60504 398.398 8.7218C398.069 9.23211 397.608 9.43438 397.142 9.63847L397.134 9.64178C396.381 9.97085 395.528 10.0381 395.116 10.0699C395.116 10.0699 395.092 10.0735 395.067 10.0735C394.743 10.0947 394.412 10.1018 394.081 10.0982C393.199 9.9774 392.346 9.8884 391.566 9.80708L391.44 9.79394C391.31 9.78064 391.185 9.76834 391.065 9.75648L391.064 9.75641C390.865 9.73673 390.677 9.71825 390.499 9.6984C389.436 9.48963 388.71 9.28441 388.71 9.28441C385.985 8.50596 384.136 7.49044 383.615 7.19321C382.716 6.684 381.947 5.96099 381.308 5.3607ZM380.636 15.7043C380.48 15.4166 380.309 15.1403 380.119 14.8857C379.186 13.6154 377.819 12.6671 377.009 12.1717C377.819 11.6799 379.186 10.7281 380.119 9.45778C380.306 9.20019 380.479 8.92525 380.636 8.63805C380.793 8.92525 380.966 9.20019 381.153 9.45778C382.086 10.7281 383.453 11.6799 384.263 12.1717C383.453 12.6671 382.086 13.6154 381.153 14.8857C380.963 15.1403 380.792 15.4166 380.636 15.7043Z" fill="#C29862"/>
<path opacity="0.5" fill-rule="evenodd" clip-rule="evenodd" d="M515.533 5.3607C515.29 5.13225 515.066 4.92158 514.861 4.74722C514.655 4.92158 514.431 5.13225 514.188 5.3607C513.55 5.96099 512.781 6.684 511.882 7.19321C511.361 7.49044 509.512 8.50596 506.786 9.28441C506.786 9.28441 506.061 9.48963 504.997 9.6984C504.819 9.71825 504.632 9.73673 504.432 9.7564L504.432 9.75647C504.311 9.76834 504.187 9.78063 504.057 9.79394L503.931 9.80707C503.151 9.88839 502.298 9.9774 501.416 10.0982C501.085 10.1018 500.754 10.0947 500.43 10.0735C500.405 10.0735 500.38 10.0699 500.38 10.0699C499.968 10.0381 499.116 9.97085 498.363 9.64178L498.355 9.63847C497.889 9.43438 497.428 9.23211 497.098 8.7218C497.024 8.60504 496.623 7.95397 496.82 7.17552C496.845 7.07999 496.957 6.66246 497.376 6.25554C498.024 5.62571 498.87 5.54433 500.775 5.42048C501.757 5.35685 502.177 5.3363 502.454 5.32276C502.685 5.31145 502.816 5.30503 503.092 5.28249C505.444 5.08787 506.973 4.93926 507.836 3.86005C507.948 3.71851 508.272 3.28683 508.378 2.64638C508.399 2.51192 508.617 1.03641 507.586 0.318121C506.677 -0.311713 505.427 0.0845833 504.782 0.717956C504.096 1.39025 503.997 2.42346 504.138 2.49069C504.183 2.51252 504.244 2.43091 504.341 2.30097C504.511 2.07285 504.793 1.69579 505.293 1.4681C505.733 1.26641 506.476 1.11779 506.811 1.48579C507.054 1.75117 507.043 2.23947 506.892 2.54377C506.489 3.35541 504.954 3.30785 503.422 3.26038C503.17 3.2526 502.919 3.24482 502.673 3.24083L502.662 3.24064C499.906 3.1946 495.029 3.11314 493.432 5.47002C492.488 6.86415 492.735 9.05087 493.531 10.4025C493.971 11.1491 494.612 11.7117 494.992 11.9984C494.612 12.2885 493.968 12.8476 493.531 13.5942C492.739 14.9494 492.492 17.1326 493.432 18.5267C495.029 20.8836 499.906 20.8021 502.662 20.7561L502.673 20.7559C502.911 20.7515 503.155 20.7437 503.398 20.736C504.938 20.6867 506.487 20.6372 506.892 21.4529C507.043 21.7572 507.05 22.2455 506.811 22.5109C506.476 22.8789 505.733 22.7303 505.293 22.5286C504.798 22.3003 504.518 21.9274 504.347 21.6996C504.247 21.5673 504.185 21.4839 504.138 21.506C503.997 21.5768 504.096 22.61 504.782 23.2823C505.427 23.9121 506.677 24.3155 507.586 23.6786C508.617 22.9638 508.399 21.4848 508.378 21.3539C508.272 20.717 507.948 20.2817 507.836 20.1402C506.973 19.061 505.444 18.9159 503.092 18.7178C502.816 18.6952 502.685 18.6888 502.454 18.6775C502.177 18.6639 501.757 18.6434 500.775 18.5798C498.87 18.4524 498.024 18.3745 497.376 17.7447C496.974 17.3544 496.856 16.9476 496.823 16.835L496.82 16.8247C496.623 16.0463 497.024 15.3952 497.098 15.2784C497.423 14.7702 497.885 14.5675 498.349 14.3642L498.363 14.3585C499.116 14.0294 499.968 13.9622 500.38 13.9303C500.38 13.9303 500.402 13.9303 500.43 13.9268C500.75 13.9055 501.081 13.8949 501.416 13.902C502.345 14.0294 503.243 14.1249 504.057 14.2063L504.236 14.2248C504.509 14.253 504.763 14.2792 504.997 14.3054C506.057 14.5106 506.786 14.7194 506.786 14.7194C509.515 15.4978 511.361 16.5133 511.882 16.8106C512.781 17.3174 513.55 18.0414 514.188 18.6425C514.431 18.8712 514.656 19.0821 514.861 19.2565C515.066 19.0821 515.29 18.8712 515.533 18.6425C516.172 18.0414 516.941 17.3174 517.839 16.8106C518.36 16.5133 520.206 15.4978 522.935 14.7194C522.935 14.7194 523.664 14.5106 524.724 14.3054C524.959 14.2792 525.212 14.253 525.485 14.2248L525.664 14.2063C526.478 14.1249 527.376 14.0294 528.306 13.902C528.64 13.8949 528.971 13.9055 529.292 13.9268C529.32 13.9303 529.341 13.9303 529.341 13.9303C529.753 13.9622 530.605 14.0294 531.359 14.3585L531.372 14.3642C531.836 14.5675 532.299 14.7702 532.623 15.2784C532.697 15.3952 533.098 16.0463 532.901 16.8247L532.898 16.835C532.865 16.9476 532.747 17.3544 532.345 17.7447C531.697 18.3745 530.852 18.4524 528.946 18.5798C527.964 18.6434 527.544 18.6639 527.267 18.6775C527.036 18.6888 526.905 18.6952 526.629 18.7178C524.277 18.9159 522.748 19.061 521.886 20.1402C521.773 20.2817 521.449 20.717 521.343 21.3539C521.322 21.4848 521.104 22.9638 522.136 23.6786C523.044 24.3155 524.294 23.9121 524.939 23.2823C525.626 22.61 525.724 21.5768 525.583 21.506C525.537 21.4839 525.474 21.5673 525.375 21.6996C525.203 21.9274 524.923 22.3003 524.428 22.5286C523.988 22.7303 523.245 22.8789 522.91 22.5109C522.671 22.2455 522.678 21.7572 522.829 21.4529C523.234 20.6372 524.783 20.6867 526.323 20.736C526.566 20.7437 526.81 20.7515 527.048 20.7559L527.06 20.7561C529.816 20.8021 534.692 20.8836 536.289 18.5267C537.229 17.1326 536.983 14.9494 536.19 13.5942C535.754 12.8476 535.109 12.2885 534.729 11.9984C535.109 11.7117 535.75 11.1491 536.19 10.4025C536.986 9.05087 537.233 6.86415 536.289 5.47002C534.692 3.11314 529.816 3.1946 527.06 3.24064L527.048 3.24083C526.802 3.24482 526.551 3.2526 526.3 3.26038C524.767 3.30785 523.232 3.35541 522.829 2.54377C522.678 2.23947 522.667 1.75117 522.91 1.48579C523.245 1.11779 523.988 1.26641 524.428 1.4681C524.929 1.69579 525.21 2.07285 525.381 2.30097C525.478 2.43091 525.539 2.51252 525.583 2.49069C525.724 2.42346 525.626 1.39025 524.939 0.717956C524.294 0.0845833 523.044 -0.311713 522.136 0.318121C521.104 1.03641 521.322 2.51192 521.343 2.64638C521.449 3.28683 521.773 3.71851 521.886 3.86005C522.748 4.93926 524.277 5.08787 526.629 5.28249C526.905 5.30503 527.036 5.31145 527.267 5.32276C527.544 5.3363 527.964 5.35685 528.946 5.42048C530.852 5.54433 531.697 5.62571 532.345 6.25554C532.764 6.66246 532.877 7.07999 532.901 7.17552C533.098 7.95397 532.697 8.60504 532.623 8.7218C532.294 9.23211 531.832 9.43438 531.366 9.63847L531.359 9.64178C530.605 9.97085 529.753 10.0381 529.341 10.0699C529.341 10.0699 529.316 10.0735 529.292 10.0735C528.968 10.0947 528.637 10.1018 528.306 10.0982C527.424 9.9774 526.57 9.8884 525.79 9.80708L525.664 9.79394C525.535 9.78064 525.41 9.76834 525.29 9.75648L525.289 9.75641C525.089 9.73673 524.902 9.71825 524.724 9.6984C523.661 9.48963 522.935 9.28441 522.935 9.28441C520.209 8.50596 518.36 7.49044 517.839 7.19321C516.941 6.684 516.172 5.96099 515.533 5.3607ZM514.861 15.7043C514.704 15.4166 514.534 15.1403 514.344 14.8857C513.41 13.6154 512.044 12.6671 511.234 12.1717C512.044 11.6799 513.41 10.7281 514.344 9.45778C514.531 9.20019 514.703 8.92525 514.861 8.63805C515.018 8.92525 515.19 9.20019 515.378 9.45778C516.311 10.7281 517.677 11.6799 518.487 12.1717C517.677 12.6671 516.311 13.6154 515.378 14.8857C515.188 15.1403 515.017 15.4166 514.861 15.7043Z" fill="#C29862"/>
<path opacity="0.5" fill-rule="evenodd" clip-rule="evenodd" d="M470.709 5.3607C470.466 5.13225 470.242 4.92158 470.036 4.74722C469.831 4.92158 469.607 5.13225 469.364 5.3607C468.725 5.96099 467.956 6.684 467.058 7.19321C466.537 7.49044 464.688 8.50596 461.962 9.28441C461.962 9.28441 461.237 9.48963 460.173 9.6984C459.995 9.71825 459.808 9.73673 459.608 9.7564L459.608 9.75647C459.487 9.76834 459.362 9.78063 459.233 9.79394L459.107 9.80707C458.327 9.88839 457.473 9.9774 456.592 10.0982C456.261 10.1018 455.929 10.0947 455.605 10.0735C455.581 10.0735 455.556 10.0699 455.556 10.0699C455.144 10.0381 454.292 9.97085 453.538 9.64178L453.531 9.63847C453.065 9.43438 452.603 9.23211 452.274 8.7218C452.2 8.60504 451.799 7.95397 451.996 7.17552C452.02 7.07999 452.133 6.66246 452.552 6.25554C453.2 5.62571 454.045 5.54433 455.951 5.42048C456.933 5.35685 457.353 5.3363 457.63 5.32276C457.861 5.31145 457.992 5.30503 458.268 5.28249C460.62 5.08787 462.149 4.93926 463.011 3.86005C463.124 3.71851 463.448 3.28683 463.554 2.64638C463.575 2.51192 463.793 1.03641 462.761 0.318121C461.853 -0.311713 460.603 0.0845833 459.958 0.717956C459.271 1.39025 459.173 2.42346 459.314 2.49069C459.358 2.51252 459.419 2.43091 459.516 2.30097C459.687 2.07285 459.968 1.69579 460.469 1.4681C460.909 1.26641 461.652 1.11779 461.987 1.48579C462.23 1.75117 462.219 2.23947 462.068 2.54377C461.665 3.35541 460.13 3.30785 458.597 3.26038C458.346 3.2526 458.095 3.24482 457.849 3.24083L457.837 3.24064C455.081 3.1946 450.205 3.11314 448.608 5.47002C447.664 6.86415 447.911 9.05087 448.707 10.4025C449.147 11.1491 449.788 11.7117 450.168 11.9984C449.788 12.2885 449.143 12.8476 448.707 13.5942C447.914 14.9494 447.668 17.1326 448.608 18.5267C450.205 20.8836 455.081 20.8021 457.837 20.7561L457.849 20.7559C458.087 20.7515 458.331 20.7437 458.574 20.736C460.114 20.6867 461.663 20.6372 462.068 21.4529C462.219 21.7572 462.226 22.2455 461.987 22.5109C461.652 22.8789 460.909 22.7303 460.469 22.5286C459.974 22.3003 459.694 21.9274 459.522 21.6996C459.423 21.5673 459.36 21.4839 459.314 21.506C459.173 21.5768 459.271 22.61 459.958 23.2823C460.603 23.9121 461.853 24.3155 462.761 23.6786C463.793 22.9638 463.575 21.4848 463.554 21.3539C463.448 20.717 463.124 20.2817 463.011 20.1402C462.149 19.061 460.62 18.9159 458.268 18.7178C457.992 18.6952 457.861 18.6888 457.63 18.6775C457.353 18.6639 456.933 18.6434 455.951 18.5798C454.045 18.4524 453.2 18.3745 452.552 17.7447C452.15 17.3544 452.032 16.9476 451.999 16.835L451.996 16.8247C451.799 16.0463 452.2 15.3952 452.274 15.2784C452.598 14.7702 453.061 14.5675 453.525 14.3642L453.538 14.3585C454.292 14.0294 455.144 13.9622 455.556 13.9303C455.556 13.9303 455.577 13.9303 455.605 13.9268C455.926 13.9055 456.257 13.8949 456.592 13.902C457.521 14.0294 458.419 14.1249 459.233 14.2063L459.412 14.2248C459.685 14.253 459.938 14.2792 460.173 14.3054C461.233 14.5106 461.962 14.7194 461.962 14.7194C464.691 15.4978 466.537 16.5133 467.058 16.8106C467.956 17.3174 468.726 18.0414 469.364 18.6425C469.607 18.8712 469.831 19.0821 470.036 19.2565C470.242 19.0821 470.466 18.8712 470.709 18.6425C471.347 18.0414 472.116 17.3174 473.015 16.8106C473.536 16.5133 475.382 15.4978 478.111 14.7194C478.111 14.7194 478.84 14.5106 479.9 14.3054C480.134 14.2792 480.388 14.253 480.661 14.2248L480.84 14.2063C481.654 14.1249 482.552 14.0294 483.481 13.902C483.816 13.8949 484.147 13.9055 484.467 13.9268C484.496 13.9303 484.517 13.9303 484.517 13.9303C484.929 13.9622 485.781 14.0294 486.535 14.3585L486.548 14.3642C487.012 14.5675 487.474 14.7702 487.799 15.2784C487.873 15.3952 488.274 16.0463 488.077 16.8247L488.074 16.835C488.041 16.9476 487.923 17.3544 487.521 17.7447C486.873 18.3745 486.027 18.4524 484.122 18.5798C483.14 18.6434 482.72 18.6639 482.443 18.6775C482.212 18.6888 482.081 18.6952 481.805 18.7178C479.453 18.9159 477.924 19.061 477.061 20.1402C476.949 20.2817 476.625 20.717 476.519 21.3539C476.498 21.4848 476.28 22.9638 477.311 23.6786C478.22 24.3155 479.47 23.9121 480.115 23.2823C480.801 22.61 480.9 21.5768 480.759 21.506C480.713 21.4839 480.65 21.5673 480.55 21.6996C480.379 21.9274 480.099 22.3003 479.604 22.5286C479.164 22.7303 478.421 22.8789 478.086 22.5109C477.847 22.2455 477.854 21.7572 478.005 21.4529C478.41 20.6372 479.959 20.6867 481.499 20.736C481.742 20.7437 481.986 20.7515 482.224 20.7559L482.235 20.7561C484.991 20.8021 489.868 20.8836 491.465 18.5267C492.405 17.1326 492.159 14.9494 491.366 13.5942C490.93 12.8476 490.285 12.2885 489.905 11.9984C490.285 11.7117 490.926 11.1491 491.366 10.4025C492.162 9.05087 492.409 6.86415 491.465 5.47002C489.868 3.11314 484.991 3.1946 482.235 3.24064L482.224 3.24083C481.978 3.24482 481.727 3.2526 481.476 3.26038C479.943 3.30785 478.408 3.35541 478.005 2.54377C477.854 2.23947 477.843 1.75117 478.086 1.48579C478.421 1.11779 479.164 1.26641 479.604 1.4681C480.104 1.69579 480.386 2.07285 480.556 2.30097C480.653 2.43091 480.714 2.51252 480.759 2.49069C480.9 2.42346 480.801 1.39025 480.115 0.717956C479.47 0.0845833 478.22 -0.311713 477.311 0.318121C476.28 1.03641 476.498 2.51192 476.519 2.64638C476.625 3.28683 476.949 3.71851 477.061 3.86005C477.924 4.93926 479.453 5.08787 481.805 5.28249C482.081 5.30503 482.212 5.31145 482.443 5.32276C482.72 5.3363 483.14 5.35685 484.122 5.42048C486.027 5.54433 486.873 5.62571 487.521 6.25554C487.94 6.66246 488.052 7.07999 488.077 7.17552C488.274 7.95397 487.873 8.60504 487.799 8.7218C487.47 9.23211 487.008 9.43438 486.542 9.63847L486.535 9.64178C485.781 9.97085 484.929 10.0381 484.517 10.0699C484.517 10.0699 484.492 10.0735 484.467 10.0735C484.143 10.0947 483.812 10.1018 483.481 10.0982C482.599 9.9774 481.746 9.8884 480.966 9.80708L480.84 9.79394C480.71 9.78064 480.586 9.76834 480.465 9.75648L480.465 9.75641C480.265 9.73673 480.078 9.71825 479.9 9.6984C478.836 9.48963 478.111 9.28441 478.111 9.28441C475.385 8.50596 473.536 7.49044 473.015 7.19321C472.117 6.684 471.347 5.96099 470.709 5.3607ZM470.036 15.7043C469.88 15.4166 469.709 15.1403 469.519 14.8857C468.586 13.6154 467.22 12.6671 466.41 12.1717C467.22 11.6799 468.586 10.7281 469.519 9.45778C469.707 9.20019 469.879 8.92525 470.036 8.63805C470.194 8.92525 470.366 9.20019 470.553 9.45778C471.487 10.7281 472.853 11.6799 473.663 12.1717C472.853 12.6671 471.487 13.6154 470.553 14.8857C470.363 15.1403 470.193 15.4166 470.036 15.7043Z" fill="#C29862"/>
<path opacity="0.5" fill-rule="evenodd" clip-rule="evenodd" d="M336.484 5.3607C336.241 5.13225 336.017 4.92158 335.812 4.74722C335.607 4.92158 335.383 5.13225 335.139 5.3607C334.501 5.96099 333.732 6.684 332.833 7.19321C332.312 7.49044 330.463 8.50596 327.737 9.28441C327.737 9.28441 327.012 9.48963 325.948 9.6984C325.771 9.71825 325.583 9.73673 325.384 9.7564L325.383 9.75647C325.263 9.76834 325.138 9.78063 325.008 9.79394L324.882 9.80707C324.102 9.88839 323.249 9.9774 322.367 10.0982C322.036 10.1018 321.705 10.0947 321.381 10.0735C321.356 10.0735 321.332 10.0699 321.332 10.0699C320.92 10.0381 320.067 9.97085 319.314 9.64178L319.306 9.63847C318.84 9.43438 318.379 9.23211 318.049 8.7218C317.975 8.60504 317.574 7.95397 317.771 7.17552C317.796 7.07999 317.909 6.66246 318.328 6.25554C318.976 5.62571 319.821 5.54433 321.726 5.42048C322.709 5.35685 323.128 5.3363 323.405 5.32276C323.636 5.31145 323.768 5.30503 324.043 5.28249C326.396 5.08787 327.924 4.93926 328.787 3.86005C328.9 3.71851 329.224 3.28683 329.329 2.64638C329.35 2.51192 329.569 1.03641 328.537 0.318121C327.628 -0.311713 326.378 0.0845833 325.734 0.717956C325.047 1.39025 324.948 2.42346 325.089 2.49069C325.134 2.51252 325.195 2.43091 325.292 2.30097C325.462 2.07285 325.744 1.69579 326.244 1.4681C326.684 1.26641 327.427 1.11779 327.762 1.48579C328.005 1.75117 327.994 2.23947 327.843 2.54377C327.441 3.35541 325.905 3.30785 324.373 3.26038C324.121 3.2526 323.87 3.24482 323.624 3.24083L323.613 3.24064C320.857 3.1946 315.98 3.11314 314.383 5.47002C313.44 6.86415 313.686 9.05087 314.482 10.4025C314.922 11.1491 315.563 11.7117 315.944 11.9984C315.563 12.2885 314.919 12.8476 314.482 13.5942C313.69 14.9494 313.443 17.1326 314.383 18.5267C315.98 20.8836 320.857 20.8021 323.613 20.7561L323.624 20.7559C323.863 20.7515 324.106 20.7437 324.349 20.736C325.889 20.6867 327.439 20.6372 327.843 21.4529C327.994 21.7572 328.002 22.2455 327.762 22.5109C327.427 22.8789 326.684 22.7303 326.244 22.5286C325.75 22.3003 325.469 21.9274 325.298 21.6996C325.198 21.5673 325.136 21.4839 325.089 21.506C324.948 21.5768 325.047 22.61 325.734 23.2823C326.378 23.9121 327.628 24.3155 328.537 23.6786C329.569 22.9638 329.35 21.4848 329.329 21.3539C329.224 20.717 328.9 20.2817 328.787 20.1402C327.924 19.061 326.396 18.9159 324.043 18.7178C323.768 18.6952 323.636 18.6888 323.405 18.6775C323.128 18.6639 322.709 18.6434 321.726 18.5798C319.821 18.4524 318.976 18.3745 318.328 17.7447C317.926 17.3544 317.807 16.9476 317.774 16.835L317.771 16.8247C317.574 16.0463 317.975 15.3952 318.049 15.2784C318.374 14.7702 318.837 14.5675 319.3 14.3642L319.314 14.3585C320.067 14.0294 320.92 13.9622 321.332 13.9303C321.332 13.9303 321.353 13.9303 321.381 13.9268C321.701 13.9055 322.032 13.8949 322.367 13.902C323.297 14.0294 324.195 14.1249 325.008 14.2063L325.187 14.2248C325.46 14.253 325.714 14.2792 325.948 14.3054C327.008 14.5106 327.737 14.7194 327.737 14.7194C330.467 15.4978 332.312 16.5133 332.833 16.8106C333.732 17.3174 334.501 18.0414 335.14 18.6425C335.383 18.8712 335.607 19.0821 335.812 19.2565C336.017 19.0821 336.241 18.8712 336.484 18.6425C337.123 18.0414 337.892 17.3174 338.79 16.8106C339.312 16.5133 341.157 15.4978 343.886 14.7194C343.886 14.7194 344.615 14.5106 345.675 14.3054C345.91 14.2792 346.163 14.253 346.436 14.2248L346.615 14.2063C347.429 14.1249 348.327 14.0294 349.257 13.902C349.591 13.8949 349.922 13.9055 350.243 13.9268C350.271 13.9303 350.292 13.9303 350.292 13.9303C350.704 13.9622 351.556 14.0294 352.31 14.3585L352.323 14.3642C352.787 14.5675 353.25 14.7702 353.574 15.2784C353.648 15.3952 354.05 16.0463 353.852 16.8247L353.849 16.835C353.817 16.9476 353.698 17.3544 353.296 17.7447C352.648 18.3745 351.803 18.4524 349.898 18.5798C348.915 18.6434 348.495 18.6639 348.218 18.6775C347.987 18.6888 347.856 18.6952 347.58 18.7178C345.228 18.9159 343.7 19.061 342.837 20.1402C342.724 20.2817 342.4 20.717 342.294 21.3539C342.273 21.4848 342.055 22.9638 343.087 23.6786C343.995 24.3155 345.246 23.9121 345.89 23.2823C346.577 22.61 346.675 21.5768 346.534 21.506C346.488 21.4839 346.425 21.5673 346.326 21.6996C346.154 21.9274 345.874 22.3003 345.379 22.5286C344.939 22.7303 344.196 22.8789 343.862 22.5109C343.622 22.2455 343.629 21.7572 343.781 21.4529C344.185 20.6372 345.734 20.6867 347.274 20.736C347.518 20.7437 347.761 20.7515 347.999 20.7559L348.011 20.7561C350.767 20.8021 355.644 20.8836 357.24 18.5267C358.18 17.1326 357.934 14.9494 357.142 13.5942C356.705 12.8476 356.06 12.2885 355.68 11.9984C356.06 11.7117 356.701 11.1491 357.142 10.4025C357.937 9.05087 358.184 6.86415 357.24 5.47002C355.644 3.11314 350.767 3.1946 348.011 3.24064L347.999 3.24083C347.753 3.24482 347.502 3.2526 347.251 3.26038C345.719 3.30785 344.183 3.35541 343.781 2.54377C343.629 2.23947 343.619 1.75117 343.862 1.48579C344.196 1.11779 344.939 1.26641 345.379 1.4681C345.88 1.69579 346.161 2.07285 346.332 2.30097C346.429 2.43091 346.49 2.51252 346.534 2.49069C346.675 2.42346 346.577 1.39025 345.89 0.717956C345.246 0.0845833 343.995 -0.311713 343.087 0.318121C342.055 1.03641 342.273 2.51192 342.294 2.64638C342.4 3.28683 342.724 3.71851 342.837 3.86005C343.7 4.93926 345.228 5.08787 347.58 5.28249C347.856 5.30503 347.987 5.31145 348.218 5.32276C348.495 5.3363 348.915 5.35685 349.898 5.42048C351.803 5.54433 352.648 5.62571 353.296 6.25554C353.715 6.66246 353.828 7.07999 353.852 7.17552C354.05 7.95397 353.648 8.60504 353.574 8.7218C353.245 9.23211 352.783 9.43438 352.317 9.63847L352.31 9.64178C351.556 9.97085 350.704 10.0381 350.292 10.0699C350.292 10.0699 350.267 10.0735 350.243 10.0735C349.919 10.0947 349.588 10.1018 349.257 10.0982C348.375 9.9774 347.521 9.8884 346.741 9.80708L346.615 9.79394C346.486 9.78064 346.361 9.76834 346.241 9.75648L346.24 9.75641C346.041 9.73673 345.853 9.71825 345.675 9.6984C344.612 9.48963 343.886 9.28441 343.886 9.28441C341.161 8.50596 339.312 7.49044 338.79 7.19321C337.892 6.684 337.123 5.96099 336.484 5.3607ZM335.812 15.7043C335.655 15.4166 335.485 15.1403 335.295 14.8857C334.362 13.6154 332.995 12.6671 332.185 12.1717C332.995 11.6799 334.362 10.7281 335.295 9.45778C335.482 9.20019 335.655 8.92525 335.812 8.63805C335.969 8.92525 336.141 9.20019 336.329 9.45778C337.262 10.7281 338.628 11.6799 339.438 12.1717C338.628 12.6671 337.262 13.6154 336.329 14.8857C336.139 15.1403 335.968 15.4166 335.812 15.7043Z" fill="#C29862"/>
<path opacity="0.5" fill-rule="evenodd" clip-rule="evenodd" d="M291.658 5.3607C291.415 5.13225 291.191 4.92158 290.986 4.74722C290.78 4.92158 290.556 5.13225 290.313 5.3607C289.675 5.96099 288.906 6.684 288.007 7.19321C287.486 7.49044 285.637 8.50596 282.911 9.28441C282.911 9.28441 282.186 9.48963 281.122 9.6984C280.944 9.71825 280.757 9.73673 280.557 9.7564L280.557 9.75647C280.436 9.76834 280.312 9.78063 280.182 9.79394L280.056 9.80707C279.276 9.88839 278.423 9.9774 277.541 10.0982C277.21 10.1018 276.879 10.0947 276.555 10.0735C276.53 10.0735 276.505 10.0699 276.505 10.0699C276.093 10.0381 275.241 9.97085 274.488 9.64178L274.48 9.63847C274.014 9.43438 273.553 9.23211 273.223 8.7218C273.149 8.60504 272.748 7.95397 272.945 7.17552C272.97 7.07999 273.082 6.66246 273.501 6.25554C274.149 5.62571 274.995 5.54433 276.9 5.42048C277.882 5.35685 278.302 5.3363 278.579 5.32276C278.81 5.31145 278.941 5.30503 279.217 5.28249C281.569 5.08787 283.098 4.93926 283.961 3.86005C284.073 3.71851 284.397 3.28683 284.503 2.64638C284.524 2.51192 284.742 1.03641 283.711 0.318121C282.802 -0.311713 281.552 0.0845833 280.907 0.717956C280.221 1.39025 280.122 2.42346 280.263 2.49069C280.308 2.51252 280.369 2.43091 280.466 2.30097C280.636 2.07285 280.918 1.69579 281.418 1.4681C281.858 1.26641 282.601 1.11779 282.936 1.48579C283.179 1.75117 283.168 2.23947 283.017 2.54377C282.614 3.35541 281.079 3.30785 279.547 3.26038C279.295 3.2526 279.044 3.24482 278.798 3.24083L278.787 3.24064C276.031 3.1946 271.154 3.11314 269.557 5.47002C268.613 6.86415 268.86 9.05087 269.656 10.4025C270.096 11.1491 270.737 11.7117 271.117 11.9984C270.737 12.2885 270.093 12.8476 269.656 13.5942C268.864 14.9494 268.617 17.1326 269.557 18.5267C271.154 20.8836 276.031 20.8021 278.787 20.7561L278.798 20.7559C279.036 20.7515 279.28 20.7437 279.523 20.736C281.063 20.6867 282.612 20.6372 283.017 21.4529C283.168 21.7572 283.175 22.2455 282.936 22.5109C282.601 22.8789 281.858 22.7303 281.418 22.5286C280.923 22.3003 280.643 21.9274 280.472 21.6996C280.372 21.5673 280.31 21.4839 280.263 21.506C280.122 21.5768 280.221 22.61 280.907 23.2823C281.552 23.9121 282.802 24.3155 283.711 23.6786C284.742 22.9638 284.524 21.4848 284.503 21.3539C284.397 20.717 284.073 20.2817 283.961 20.1402C283.098 19.061 281.569 18.9159 279.217 18.7178C278.941 18.6952 278.81 18.6888 278.579 18.6775C278.302 18.6639 277.882 18.6434 276.9 18.5798C274.995 18.4524 274.149 18.3745 273.501 17.7447C273.099 17.3544 272.981 16.9476 272.948 16.835L272.945 16.8247C272.748 16.0463 273.149 15.3952 273.223 15.2784C273.548 14.7702 274.01 14.5675 274.474 14.3642L274.488 14.3585C275.241 14.0294 276.093 13.9622 276.505 13.9303C276.505 13.9303 276.527 13.9303 276.555 13.9268C276.875 13.9055 277.206 13.8949 277.541 13.902C278.47 14.0294 279.368 14.1249 280.182 14.2063L280.361 14.2248C280.634 14.253 280.888 14.2792 281.122 14.3054C282.182 14.5106 282.911 14.7194 282.911 14.7194C285.64 15.4978 287.486 16.5133 288.007 16.8106C288.906 17.3174 289.675 18.0414 290.313 18.6425C290.556 18.8712 290.781 19.0821 290.986 19.2565C291.191 19.0821 291.415 18.8712 291.658 18.6425C292.297 18.0414 293.066 17.3174 293.964 16.8106C294.485 16.5133 296.331 15.4978 299.06 14.7194C299.06 14.7194 299.789 14.5106 300.849 14.3054C301.084 14.2792 301.337 14.253 301.61 14.2248L301.789 14.2063C302.603 14.1249 303.501 14.0294 304.431 13.902C304.765 13.8949 305.096 13.9055 305.417 13.9268C305.445 13.9303 305.466 13.9303 305.466 13.9303C305.878 13.9622 306.73 14.0294 307.484 14.3585L307.497 14.3642C307.961 14.5675 308.424 14.7702 308.748 15.2784C308.822 15.3952 309.223 16.0463 309.026 16.8247L309.023 16.835C308.99 16.9476 308.872 17.3544 308.47 17.7447C307.822 18.3745 306.977 18.4524 305.071 18.5798C304.089 18.6434 303.669 18.6639 303.392 18.6775C303.161 18.6888 303.03 18.6952 302.754 18.7178C300.402 18.9159 298.873 19.061 298.011 20.1402C297.898 20.2817 297.574 20.717 297.468 21.3539C297.447 21.4848 297.229 22.9638 298.261 23.6786C299.169 24.3155 300.419 23.9121 301.064 23.2823C301.751 22.61 301.849 21.5768 301.708 21.506C301.662 21.4839 301.599 21.5673 301.5 21.6996C301.328 21.9274 301.048 22.3003 300.553 22.5286C300.113 22.7303 299.37 22.8789 299.035 22.5109C298.796 22.2455 298.803 21.7572 298.954 21.4529C299.359 20.6372 300.908 20.6867 302.448 20.736C302.691 20.7437 302.935 20.7515 303.173 20.7559L303.185 20.7561C305.941 20.8021 310.817 20.8836 312.414 18.5267C313.354 17.1326 313.108 14.9494 312.315 13.5942C311.879 12.8476 311.234 12.2885 310.854 11.9984C311.234 11.7117 311.875 11.1491 312.315 10.4025C313.111 9.05087 313.358 6.86415 312.414 5.47002C310.817 3.11314 305.941 3.1946 303.185 3.24064L303.173 3.24083C302.927 3.24482 302.676 3.2526 302.425 3.26038C300.892 3.30785 299.357 3.35541 298.954 2.54377C298.803 2.23947 298.792 1.75117 299.035 1.48579C299.37 1.11779 300.113 1.26641 300.553 1.4681C301.054 1.69579 301.335 2.07285 301.506 2.30097C301.603 2.43091 301.664 2.51252 301.708 2.49069C301.849 2.42346 301.751 1.39025 301.064 0.717956C300.419 0.0845833 299.169 -0.311713 298.261 0.318121C297.229 1.03641 297.447 2.51192 297.468 2.64638C297.574 3.28683 297.898 3.71851 298.011 3.86005C298.873 4.93926 300.402 5.08787 302.754 5.28249C303.03 5.30503 303.161 5.31145 303.392 5.32276C303.669 5.3363 304.089 5.35685 305.071 5.42048C306.977 5.54433 307.822 5.62571 308.47 6.25554C308.889 6.66246 309.002 7.07999 309.026 7.17552C309.223 7.95397 308.822 8.60504 308.748 8.7218C308.419 9.23211 307.957 9.43438 307.491 9.63847L307.484 9.64178C306.73 9.97085 305.878 10.0381 305.466 10.0699C305.466 10.0699 305.441 10.0735 305.417 10.0735C305.093 10.0947 304.762 10.1018 304.431 10.0982C303.549 9.9774 302.695 9.8884 301.915 9.80708L301.789 9.79394C301.66 9.78064 301.535 9.76834 301.415 9.75648L301.414 9.75641C301.214 9.73673 301.027 9.71825 300.849 9.6984C299.786 9.48963 299.06 9.28441 299.06 9.28441C296.334 8.50596 294.485 7.49044 293.964 7.19321C293.066 6.684 292.297 5.96099 291.658 5.3607ZM290.986 15.7043C290.829 15.4166 290.659 15.1403 290.469 14.8857C289.535 13.6154 288.169 12.6671 287.359 12.1717C288.169 11.6799 289.535 10.7281 290.469 9.45778C290.656 9.20019 290.828 8.92525 290.986 8.63805C291.143 8.92525 291.315 9.20019 291.503 9.45778C292.436 10.7281 293.802 11.6799 294.612 12.1717C293.802 12.6671 292.436 13.6154 291.503 14.8857C291.313 15.1403 291.142 15.4166 290.986 15.7043Z" fill="#C29862"/>
<path opacity="0.5" fill-rule="evenodd" clip-rule="evenodd" d="M246.834 5.3607C246.591 5.13225 246.367 4.92158 246.161 4.74722C245.956 4.92158 245.732 5.13225 245.489 5.3607C244.85 5.96099 244.081 6.684 243.183 7.19321C242.662 7.49044 240.813 8.50596 238.087 9.28441C238.087 9.28441 237.362 9.48963 236.298 9.6984C236.12 9.71825 235.933 9.73673 235.733 9.7564L235.733 9.75647C235.612 9.76834 235.487 9.78063 235.358 9.79394L235.232 9.80707C234.452 9.88839 233.598 9.9774 232.717 10.0982C232.386 10.1018 232.054 10.0947 231.73 10.0735C231.706 10.0735 231.681 10.0699 231.681 10.0699C231.269 10.0381 230.417 9.97085 229.663 9.64178L229.656 9.63847C229.19 9.43438 228.728 9.23211 228.399 8.7218C228.325 8.60504 227.924 7.95397 228.121 7.17552C228.145 7.07999 228.258 6.66246 228.677 6.25554C229.325 5.62571 230.17 5.54433 232.076 5.42048C233.058 5.35685 233.478 5.3363 233.755 5.32276C233.986 5.31145 234.117 5.30503 234.393 5.28249C236.745 5.08787 238.274 4.93926 239.136 3.86005C239.249 3.71851 239.573 3.28683 239.679 2.64638C239.7 2.51192 239.918 1.03641 238.886 0.318121C237.978 -0.311713 236.728 0.0845833 236.083 0.717956C235.396 1.39025 235.298 2.42346 235.439 2.49069C235.483 2.51252 235.544 2.43091 235.641 2.30097C235.812 2.07285 236.093 1.69579 236.594 1.4681C237.034 1.26641 237.777 1.11779 238.112 1.48579C238.355 1.75117 238.344 2.23947 238.193 2.54377C237.79 3.35541 236.255 3.30785 234.722 3.26038C234.471 3.2526 234.22 3.24482 233.974 3.24083L233.962 3.24064C231.206 3.1946 226.33 3.11314 224.733 5.47002C223.789 6.86415 224.036 9.05087 224.832 10.4025C225.272 11.1491 225.913 11.7117 226.293 11.9984C225.913 12.2885 225.268 12.8476 224.832 13.5942C224.039 14.9494 223.793 17.1326 224.733 18.5267C226.33 20.8836 231.206 20.8021 233.962 20.7561L233.974 20.7559C234.212 20.7515 234.456 20.7437 234.699 20.736C236.239 20.6867 237.788 20.6372 238.193 21.4529C238.344 21.7572 238.351 22.2455 238.112 22.5109C237.777 22.8789 237.034 22.7303 236.594 22.5286C236.099 22.3003 235.819 21.9274 235.647 21.6996C235.548 21.5673 235.485 21.4839 235.439 21.506C235.298 21.5768 235.396 22.61 236.083 23.2823C236.728 23.9121 237.978 24.3155 238.886 23.6786C239.918 22.9638 239.7 21.4848 239.679 21.3539C239.573 20.717 239.249 20.2817 239.136 20.1402C238.274 19.061 236.745 18.9159 234.393 18.7178C234.117 18.6952 233.986 18.6888 233.755 18.6775C233.478 18.6639 233.058 18.6434 232.076 18.5798C230.17 18.4524 229.325 18.3745 228.677 17.7447C228.275 17.3544 228.157 16.9476 228.124 16.835L228.121 16.8247C227.924 16.0463 228.325 15.3952 228.399 15.2784C228.723 14.7702 229.186 14.5675 229.65 14.3642L229.663 14.3585C230.417 14.0294 231.269 13.9622 231.681 13.9303C231.681 13.9303 231.702 13.9303 231.73 13.9268C232.051 13.9055 232.382 13.8949 232.717 13.902C233.646 14.0294 234.544 14.1249 235.358 14.2063L235.537 14.2248C235.81 14.253 236.063 14.2792 236.298 14.3054C237.358 14.5106 238.087 14.7194 238.087 14.7194C240.816 15.4978 242.662 16.5133 243.183 16.8106C244.081 17.3174 244.851 18.0414 245.489 18.6425C245.732 18.8712 245.956 19.0821 246.161 19.2565C246.367 19.0821 246.591 18.8712 246.834 18.6425C247.472 18.0414 248.241 17.3174 249.14 16.8106C249.661 16.5133 251.507 15.4978 254.236 14.7194C254.236 14.7194 254.965 14.5106 256.025 14.3054C256.259 14.2792 256.513 14.253 256.786 14.2248L256.965 14.2063C257.779 14.1249 258.677 14.0294 259.606 13.902C259.941 13.8949 260.272 13.9055 260.592 13.9268C260.621 13.9303 260.642 13.9303 260.642 13.9303C261.054 13.9622 261.906 14.0294 262.66 14.3585L262.673 14.3642C263.137 14.5675 263.599 14.7702 263.924 15.2784C263.998 15.3952 264.399 16.0463 264.202 16.8247L264.199 16.835C264.166 16.9476 264.048 17.3544 263.646 17.7447C262.998 18.3745 262.152 18.4524 260.247 18.5798C259.265 18.6434 258.845 18.6639 258.568 18.6775C258.337 18.6888 258.206 18.6952 257.93 18.7178C255.578 18.9159 254.049 19.061 253.186 20.1402C253.074 20.2817 252.75 20.717 252.644 21.3539C252.623 21.4848 252.405 22.9638 253.436 23.6786C254.345 24.3155 255.595 23.9121 256.24 23.2823C256.926 22.61 257.025 21.5768 256.884 21.506C256.838 21.4839 256.775 21.5673 256.675 21.6996C256.504 21.9274 256.224 22.3003 255.729 22.5286C255.289 22.7303 254.546 22.8789 254.211 22.5109C253.972 22.2455 253.979 21.7572 254.13 21.4529C254.535 20.6372 256.084 20.6867 257.624 20.736C257.867 20.7437 258.111 20.7515 258.349 20.7559L258.36 20.7561C261.116 20.8021 265.993 20.8836 267.59 18.5267C268.53 17.1326 268.284 14.9494 267.491 13.5942C267.055 12.8476 266.41 12.2885 266.03 11.9984C266.41 11.7117 267.051 11.1491 267.491 10.4025C268.287 9.05087 268.534 6.86415 267.59 5.47002C265.993 3.11314 261.116 3.1946 258.36 3.24064L258.349 3.24083C258.103 3.24482 257.852 3.2526 257.601 3.26038C256.068 3.30785 254.533 3.35541 254.13 2.54377C253.979 2.23947 253.968 1.75117 254.211 1.48579C254.546 1.11779 255.289 1.26641 255.729 1.4681C256.229 1.69579 256.511 2.07285 256.681 2.30097C256.778 2.43091 256.839 2.51252 256.884 2.49069C257.025 2.42346 256.926 1.39025 256.24 0.717956C255.595 0.0845833 254.345 -0.311713 253.436 0.318121C252.405 1.03641 252.623 2.51192 252.644 2.64638C252.75 3.28683 253.074 3.71851 253.186 3.86005C254.049 4.93926 255.578 5.08787 257.93 5.28249C258.206 5.30503 258.337 5.31145 258.568 5.32276C258.845 5.3363 259.265 5.35685 260.247 5.42048C262.152 5.54433 262.998 5.62571 263.646 6.25554C264.065 6.66246 264.177 7.07999 264.202 7.17552C264.399 7.95397 263.998 8.60504 263.924 8.7218C263.595 9.23211 263.133 9.43438 262.667 9.63847L262.66 9.64178C261.906 9.97085 261.054 10.0381 260.642 10.0699C260.642 10.0699 260.617 10.0735 260.592 10.0735C260.268 10.0947 259.937 10.1018 259.606 10.0982C258.724 9.9774 257.871 9.8884 257.091 9.80708L256.965 9.79394C256.835 9.78064 256.711 9.76834 256.59 9.75648L256.59 9.75641C256.39 9.73673 256.203 9.71825 256.025 9.6984C254.961 9.48963 254.236 9.28441 254.236 9.28441C251.51 8.50596 249.661 7.49044 249.14 7.19321C248.242 6.684 247.472 5.96099 246.834 5.3607ZM246.161 15.7043C246.005 15.4166 245.834 15.1403 245.644 14.8857C244.711 13.6154 243.345 12.6671 242.535 12.1717C243.345 11.6799 244.711 10.7281 245.644 9.45778C245.832 9.20019 246.004 8.92525 246.161 8.63805C246.319 8.92525 246.491 9.20019 246.678 9.45778C247.612 10.7281 248.978 11.6799 249.788 12.1717C248.978 12.6671 247.612 13.6154 246.678 14.8857C246.488 15.1403 246.318 15.4166 246.161 15.7043Z" fill="#C29862"/>
<path opacity="0.5" fill-rule="evenodd" clip-rule="evenodd" d="M202.008 5.3607C201.765 5.13225 201.54 4.92158 201.335 4.74722C201.13 4.92158 200.906 5.13225 200.663 5.3607C200.024 5.96099 199.255 6.684 198.357 7.19321C197.835 7.49044 195.987 8.50596 193.261 9.28441C193.261 9.28441 192.535 9.48963 191.472 9.6984C191.294 9.71825 191.107 9.73673 190.907 9.7564L190.906 9.75647C190.786 9.76834 190.661 9.78063 190.532 9.79394L190.406 9.80707C189.626 9.88839 188.772 9.9774 187.89 10.0982C187.559 10.1018 187.228 10.0947 186.904 10.0735C186.88 10.0735 186.855 10.0699 186.855 10.0699C186.443 10.0381 185.591 9.97085 184.837 9.64178L184.83 9.63847C184.364 9.43438 183.902 9.23211 183.573 8.7218C183.499 8.60504 183.097 7.95397 183.295 7.17552C183.319 7.07999 183.432 6.66246 183.851 6.25554C184.499 5.62571 185.344 5.54433 187.249 5.42048C188.232 5.35685 188.652 5.3363 188.929 5.32276C189.16 5.31145 189.291 5.30503 189.567 5.28249C191.919 5.08787 193.447 4.93926 194.31 3.86005C194.423 3.71851 194.747 3.28683 194.853 2.64638C194.874 2.51192 195.092 1.03641 194.06 0.318121C193.152 -0.311713 191.901 0.0845833 191.257 0.717956C190.57 1.39025 190.472 2.42346 190.613 2.49069C190.657 2.51252 190.718 2.43091 190.815 2.30097C190.986 2.07285 191.267 1.69579 191.768 1.4681C192.208 1.26641 192.951 1.11779 193.285 1.48579C193.528 1.75117 193.518 2.23947 193.366 2.54377C192.964 3.35541 191.428 3.30785 189.896 3.26038C189.645 3.2526 189.394 3.24482 189.148 3.24083L189.136 3.24064C186.38 3.1946 181.503 3.11314 179.907 5.47002C178.963 6.86415 179.21 9.05087 180.005 10.4025C180.446 11.1491 181.087 11.7117 181.467 11.9984C181.087 12.2885 180.442 12.8476 180.005 13.5942C179.213 14.9494 178.967 17.1326 179.907 18.5267C181.503 20.8836 186.38 20.8021 189.136 20.7561L189.148 20.7559C189.386 20.7515 189.629 20.7437 189.873 20.736C191.413 20.6867 192.962 20.6372 193.366 21.4529C193.518 21.7572 193.525 22.2455 193.285 22.5109C192.951 22.8789 192.208 22.7303 191.768 22.5286C191.273 22.3003 190.993 21.9274 190.821 21.6996C190.722 21.5673 190.659 21.4839 190.613 21.506C190.472 21.5768 190.57 22.61 191.257 23.2823C191.901 23.9121 193.152 24.3155 194.06 23.6786C195.092 22.9638 194.874 21.4848 194.853 21.3539C194.747 20.717 194.423 20.2817 194.31 20.1402C193.447 19.061 191.919 18.9159 189.567 18.7178C189.291 18.6952 189.16 18.6888 188.929 18.6775C188.652 18.6639 188.232 18.6434 187.249 18.5798C185.344 18.4524 184.499 18.3745 183.851 17.7447C183.449 17.3544 183.33 16.9476 183.298 16.835L183.295 16.8247C183.097 16.0463 183.499 15.3952 183.573 15.2784C183.897 14.7702 184.36 14.5675 184.824 14.3642L184.837 14.3585C185.591 14.0294 186.443 13.9622 186.855 13.9303C186.855 13.9303 186.876 13.9303 186.904 13.9268C187.225 13.9055 187.556 13.8949 187.89 13.902C188.82 14.0294 189.718 14.1249 190.532 14.2063L190.711 14.2248C190.984 14.253 191.237 14.2792 191.472 14.3054C192.532 14.5106 193.261 14.7194 193.261 14.7194C195.99 15.4978 197.835 16.5133 198.357 16.8106C199.255 17.3174 200.024 18.0414 200.663 18.6425C200.906 18.8712 201.13 19.0821 201.335 19.2565C201.54 19.0821 201.764 18.8712 202.007 18.6425C202.646 18.0414 203.415 17.3174 204.314 16.8106C204.835 16.5133 206.68 15.4978 209.41 14.7194C209.41 14.7194 210.139 14.5106 211.199 14.3054C211.433 14.2792 211.687 14.253 211.96 14.2248L212.139 14.2063C212.952 14.1249 213.85 14.0294 214.78 13.902C215.115 13.8949 215.446 13.9055 215.766 13.9268C215.794 13.9303 215.815 13.9303 215.815 13.9303C216.228 13.9622 217.08 14.0294 217.833 14.3585L217.847 14.3642C218.311 14.5675 218.773 14.7702 219.098 15.2784C219.172 15.3952 219.573 16.0463 219.376 16.8247L219.373 16.835C219.34 16.9476 219.221 17.3544 218.819 17.7447C218.171 18.3745 217.326 18.4524 215.421 18.5798C214.439 18.6434 214.019 18.6639 213.742 18.6775C213.511 18.6888 213.379 18.6952 213.104 18.7178C210.751 18.9159 209.223 19.061 208.36 20.1402C208.248 20.2817 207.924 20.717 207.818 21.3539C207.797 21.4848 207.578 22.9638 208.61 23.6786C209.519 24.3155 210.769 23.9121 211.413 23.2823C212.1 22.61 212.199 21.5768 212.058 21.506C212.011 21.4839 211.949 21.5673 211.849 21.6996C211.678 21.9274 211.397 22.3003 210.903 22.5286C210.463 22.7303 209.72 22.8789 209.385 22.5109C209.146 22.2455 209.153 21.7572 209.304 21.4529C209.708 20.6372 211.258 20.6867 212.798 20.736C213.041 20.7437 213.284 20.7515 213.523 20.7559L213.534 20.7561C216.29 20.8021 221.167 20.8836 222.764 18.5267C223.704 17.1326 223.457 14.9494 222.665 13.5942C222.228 12.8476 221.584 12.2885 221.204 11.9984C221.584 11.7117 222.225 11.1491 222.665 10.4025C223.461 9.05087 223.707 6.86415 222.764 5.47002C221.167 3.11314 216.29 3.1946 213.534 3.24064L213.523 3.24083C213.277 3.24482 213.026 3.2526 212.774 3.26038C211.242 3.30785 209.706 3.35541 209.304 2.54377C209.153 2.23947 209.142 1.75117 209.385 1.48579C209.72 1.11779 210.463 1.26641 210.903 1.4681C211.403 1.69579 211.685 2.07285 211.855 2.30097C211.952 2.43091 212.013 2.51252 212.058 2.49069C212.199 2.42346 212.1 1.39025 211.413 0.717956C210.769 0.0845833 209.519 -0.311713 208.61 0.318121C207.578 1.03641 207.797 2.51192 207.818 2.64638C207.924 3.28683 208.248 3.71851 208.36 3.86005C209.223 4.93926 210.751 5.08787 213.104 5.28249C213.379 5.30503 213.511 5.31145 213.742 5.32276C214.019 5.3363 214.439 5.35685 215.421 5.42048C217.326 5.54433 218.171 5.62571 218.819 6.25554C219.238 6.66246 219.351 7.07999 219.376 7.17552C219.573 7.95397 219.172 8.60504 219.098 8.7218C218.768 9.23211 218.307 9.43438 217.841 9.63847L217.833 9.64178C217.08 9.97085 216.228 10.0381 215.815 10.0699C215.815 10.0699 215.791 10.0735 215.766 10.0735C215.442 10.0947 215.111 10.1018 214.78 10.0982C213.898 9.9774 213.045 9.8884 212.265 9.80708L212.139 9.79394C212.009 9.78064 211.885 9.76834 211.764 9.75648L211.764 9.75641C211.564 9.73673 211.377 9.71825 211.199 9.6984C210.135 9.48963 209.41 9.28441 209.41 9.28441C206.684 8.50596 204.835 7.49044 204.314 7.19321C203.415 6.684 202.646 5.96099 202.008 5.3607ZM201.335 15.7043C201.179 15.4166 201.008 15.1403 200.818 14.8857C199.885 13.6154 198.519 12.6671 197.709 12.1717C198.519 11.6799 199.885 10.7281 200.818 9.45778C201.006 9.20019 201.178 8.92525 201.335 8.63805C201.492 8.92525 201.665 9.20019 201.852 9.45778C202.786 10.7281 204.152 11.6799 204.962 12.1717C204.152 12.6671 202.786 13.6154 201.852 14.8857C201.662 15.1403 201.492 15.4166 201.335 15.7043Z" fill="#C29862"/>
<path opacity="0.5" fill-rule="evenodd" clip-rule="evenodd" d="M157.183 5.3607C156.94 5.13225 156.716 4.92158 156.511 4.74722C156.306 4.92158 156.082 5.13225 155.839 5.3607C155.2 5.96099 154.431 6.684 153.532 7.19321C153.011 7.49044 151.162 8.50596 148.437 9.28441C148.437 9.28441 147.711 9.48963 146.648 9.6984C146.47 9.71825 146.282 9.73673 146.083 9.7564L146.082 9.75647C145.962 9.76834 145.837 9.78063 145.707 9.79394L145.581 9.80707C144.802 9.88839 143.948 9.9774 143.066 10.0982C142.735 10.1018 142.404 10.0947 142.08 10.0735C142.055 10.0735 142.031 10.0699 142.031 10.0699C141.619 10.0381 140.767 9.97085 140.013 9.64178L140.005 9.63847C139.54 9.43438 139.078 9.23211 138.749 8.7218C138.675 8.60504 138.273 7.95397 138.47 7.17552C138.495 7.07999 138.608 6.66246 139.027 6.25554C139.675 5.62571 140.52 5.54433 142.425 5.42048C143.408 5.35685 143.828 5.3363 144.104 5.32276C144.336 5.31145 144.467 5.30503 144.742 5.28249C147.095 5.08787 148.623 4.93926 149.486 3.86005C149.599 3.71851 149.923 3.28683 150.028 2.64638C150.049 2.51192 150.268 1.03641 149.236 0.318121C148.327 -0.311713 147.077 0.0845833 146.433 0.717956C145.746 1.39025 145.647 2.42346 145.788 2.49069C145.833 2.51252 145.894 2.43091 145.991 2.30097C146.161 2.07285 146.443 1.69579 146.943 1.4681C147.384 1.26641 148.127 1.11779 148.461 1.48579C148.704 1.75117 148.694 2.23947 148.542 2.54377C148.14 3.35541 146.604 3.30785 145.072 3.26038C144.821 3.2526 144.569 3.24482 144.323 3.24083L144.312 3.24064C141.556 3.1946 136.679 3.11314 135.083 5.47002C134.139 6.86415 134.385 9.05087 135.181 10.4025C135.621 11.1491 136.262 11.7117 136.643 11.9984C136.262 12.2885 135.618 12.8476 135.181 13.5942C134.389 14.9494 134.142 17.1326 135.083 18.5267C136.679 20.8836 141.556 20.8021 144.312 20.7561L144.323 20.7559C144.562 20.7515 144.805 20.7437 145.049 20.736C146.589 20.6867 148.138 20.6372 148.542 21.4529C148.694 21.7572 148.701 22.2455 148.461 22.5109C148.127 22.8789 147.384 22.7303 146.943 22.5286C146.449 22.3003 146.168 21.9274 145.997 21.6996C145.898 21.5673 145.835 21.4839 145.788 21.506C145.647 21.5768 145.746 22.61 146.433 23.2823C147.077 23.9121 148.327 24.3155 149.236 23.6786C150.268 22.9638 150.049 21.4848 150.028 21.3539C149.923 20.717 149.599 20.2817 149.486 20.1402C148.623 19.061 147.095 18.9159 144.742 18.7178C144.467 18.6952 144.336 18.6888 144.104 18.6775C143.828 18.6639 143.408 18.6434 142.425 18.5798C140.52 18.4524 139.675 18.3745 139.027 17.7447C138.625 17.3544 138.506 16.9476 138.473 16.835L138.47 16.8247C138.273 16.0463 138.675 15.3952 138.749 15.2784C139.073 14.7702 139.536 14.5675 140 14.3642L140.013 14.3585C140.767 14.0294 141.619 13.9622 142.031 13.9303C142.031 13.9303 142.052 13.9303 142.08 13.9268C142.401 13.9055 142.732 13.8949 143.066 13.902C143.996 14.0294 144.894 14.1249 145.707 14.2063L145.887 14.2248C146.159 14.253 146.413 14.2792 146.648 14.3054C147.708 14.5106 148.437 14.7194 148.437 14.7194C151.166 15.4978 153.011 16.5133 153.532 16.8106C154.431 17.3174 155.2 18.0414 155.839 18.6425C156.082 18.8712 156.306 19.0821 156.511 19.2565C156.716 19.0821 156.94 18.8712 157.183 18.6425C157.822 18.0414 158.591 17.3174 159.49 16.8106C160.011 16.5133 161.856 15.4978 164.585 14.7194C164.585 14.7194 165.314 14.5106 166.374 14.3054C166.609 14.2792 166.863 14.253 167.135 14.2248L167.315 14.2063C168.128 14.1249 169.026 14.0294 169.956 13.902C170.29 13.8949 170.622 13.9055 170.942 13.9268C170.97 13.9303 170.991 13.9303 170.991 13.9303C171.403 13.9622 172.256 14.0294 173.009 14.3585L173.022 14.3642C173.486 14.5675 173.949 14.7702 174.273 15.2784C174.347 15.3952 174.749 16.0463 174.552 16.8247L174.549 16.835C174.516 16.9476 174.397 17.3544 173.995 17.7447C173.347 18.3745 172.502 18.4524 170.597 18.5798C169.614 18.6434 169.194 18.6639 168.918 18.6775C168.687 18.6888 168.555 18.6952 168.28 18.7178C165.927 18.9159 164.399 19.061 163.536 20.1402C163.423 20.2817 163.099 20.717 162.994 21.3539C162.973 21.4848 162.754 22.9638 163.786 23.6786C164.695 24.3155 165.945 23.9121 166.589 23.2823C167.276 22.61 167.375 21.5768 167.234 21.506C167.187 21.4839 167.124 21.5673 167.025 21.6996C166.854 21.9274 166.573 22.3003 166.079 22.5286C165.638 22.7303 164.895 22.8789 164.561 22.5109C164.321 22.2455 164.328 21.7572 164.48 21.4529C164.884 20.6372 166.433 20.6867 167.973 20.736C168.217 20.7437 168.46 20.7515 168.699 20.7559L168.71 20.7561C171.466 20.8021 176.343 20.8836 177.939 18.5267C178.88 17.1326 178.633 14.9494 177.841 13.5942C177.404 12.8476 176.76 12.2885 176.379 11.9984C176.76 11.7117 177.401 11.1491 177.841 10.4025C178.637 9.05087 178.883 6.86415 177.939 5.47002C176.343 3.11314 171.466 3.1946 168.71 3.24064L168.699 3.24083C168.453 3.24482 168.201 3.2526 167.95 3.26038C166.418 3.30785 164.882 3.35541 164.48 2.54377C164.328 2.23947 164.318 1.75117 164.561 1.48579C164.895 1.11779 165.638 1.26641 166.079 1.4681C166.579 1.69579 166.861 2.07285 167.031 2.30097C167.128 2.43091 167.189 2.51252 167.234 2.49069C167.375 2.42346 167.276 1.39025 166.589 0.717956C165.945 0.0845833 164.695 -0.311713 163.786 0.318121C162.754 1.03641 162.973 2.51192 162.994 2.64638C163.099 3.28683 163.423 3.71851 163.536 3.86005C164.399 4.93926 165.927 5.08787 168.28 5.28249C168.555 5.30503 168.687 5.31145 168.918 5.32276C169.194 5.3363 169.614 5.35685 170.597 5.42048C172.502 5.54433 173.347 5.62571 173.995 6.25554C174.414 6.66246 174.527 7.07999 174.552 7.17552C174.749 7.95397 174.347 8.60504 174.273 8.7218C173.944 9.23211 173.483 9.43438 173.017 9.63847L173.009 9.64178C172.256 9.97085 171.403 10.0381 170.991 10.0699C170.991 10.0699 170.967 10.0735 170.942 10.0735C170.618 10.0947 170.287 10.1018 169.956 10.0982C169.074 9.9774 168.221 9.8884 167.441 9.80708L167.315 9.79394C167.185 9.78064 167.06 9.76834 166.94 9.75648L166.939 9.75641C166.74 9.73673 166.552 9.71825 166.374 9.6984C165.311 9.48963 164.585 9.28441 164.585 9.28441C161.86 8.50596 160.011 7.49044 159.49 7.19321C158.591 6.684 157.822 5.96099 157.183 5.3607ZM156.511 15.7043C156.355 15.4166 156.184 15.1403 155.994 14.8857C155.061 13.6154 153.694 12.6671 152.884 12.1717C153.694 11.6799 155.061 10.7281 155.994 9.45778C156.181 9.20019 156.354 8.92525 156.511 8.63805C156.668 8.92525 156.841 9.20019 157.028 9.45778C157.961 10.7281 159.328 11.6799 160.138 12.1717C159.328 12.6671 157.961 13.6154 157.028 14.8857C156.838 15.1403 156.667 15.4166 156.511 15.7043Z" fill="#C29862"/>
<path opacity="0.5" fill-rule="evenodd" clip-rule="evenodd" d="M112.359 5.3607C112.116 5.13225 111.892 4.92158 111.687 4.74722C111.482 4.92158 111.258 5.13225 111.014 5.3607C110.376 5.96099 109.607 6.684 108.708 7.19321C108.187 7.49044 106.338 8.50596 103.612 9.28441C103.612 9.28441 102.887 9.48963 101.823 9.6984C101.646 9.71825 101.458 9.73673 101.259 9.7564L101.258 9.75647C101.138 9.76834 101.013 9.78063 100.883 9.79394L100.757 9.80707C99.9774 9.88839 99.1239 9.9774 98.2419 10.0982C97.9109 10.1018 97.5799 10.0947 97.2559 10.0735C97.2312 10.0735 97.2066 10.0699 97.2066 10.0699C96.7945 10.0381 95.9423 9.97085 95.1887 9.64178L95.1811 9.63847C94.7153 9.43438 94.2537 9.23211 93.9244 8.7218C93.8505 8.60504 93.449 7.95397 93.6462 7.17552C93.6709 7.07999 93.7836 6.66246 94.2026 6.25554C94.8506 5.62571 95.6958 5.54433 97.601 5.42048C98.5836 5.35685 99.0035 5.3363 99.2802 5.32276C99.5113 5.31145 99.6426 5.30503 99.9182 5.28249C102.271 5.08787 103.799 4.93926 104.662 3.86005C104.775 3.71851 105.099 3.28683 105.204 2.64638C105.225 2.51192 105.444 1.03641 104.412 0.318121C103.503 -0.311713 102.253 0.0845833 101.609 0.717956C100.922 1.39025 100.823 2.42346 100.964 2.49069C101.009 2.51252 101.07 2.43091 101.167 2.30097C101.337 2.07285 101.619 1.69579 102.119 1.4681C102.559 1.26641 103.302 1.11779 103.637 1.48579C103.88 1.75117 103.869 2.23947 103.718 2.54377C103.316 3.35541 101.78 3.30785 100.248 3.26038C99.9964 3.2526 99.7452 3.24482 99.4991 3.24083L99.4878 3.24064C96.7319 3.1946 91.8551 3.11314 90.2584 5.47002C89.3146 6.86415 89.5612 9.05087 90.357 10.4025C90.7972 11.1491 91.4382 11.7117 91.8185 11.9984C91.4382 12.2885 90.7937 12.8476 90.357 13.5942C89.5647 14.9494 89.3182 17.1326 90.2584 18.5267C91.8551 20.8836 96.7319 20.8021 99.4878 20.7561L99.4991 20.7559C99.7377 20.7515 99.981 20.7437 100.224 20.736C101.764 20.6867 103.314 20.6372 103.718 21.4529C103.869 21.7572 103.877 22.2455 103.637 22.5109C103.302 22.8789 102.559 22.7303 102.119 22.5286C101.625 22.3003 101.344 21.9274 101.173 21.6996C101.073 21.5673 101.011 21.4839 100.964 21.506C100.823 21.5768 100.922 22.61 101.609 23.2823C102.253 23.9121 103.503 24.3155 104.412 23.6786C105.444 22.9638 105.225 21.4848 105.204 21.3539C105.099 20.717 104.775 20.2817 104.662 20.1402C103.799 19.061 102.271 18.9159 99.9182 18.7178C99.6426 18.6952 99.5113 18.6888 99.2802 18.6775C99.0035 18.6639 98.5835 18.6434 97.601 18.5798C95.6958 18.4524 94.8506 18.3745 94.2026 17.7447C93.8006 17.3544 93.682 16.9476 93.6492 16.835L93.6462 16.8247C93.449 16.0463 93.8505 15.3952 93.9244 15.2784C94.2489 14.7702 94.7115 14.5675 95.1755 14.3642L95.1887 14.3585C95.9423 14.0294 96.7945 13.9622 97.2066 13.9303C97.2066 13.9303 97.2277 13.9303 97.2559 13.9268C97.5763 13.9055 97.9074 13.8949 98.2419 13.902C99.1716 14.0294 100.07 14.1249 100.883 14.2063L101.062 14.2248C101.335 14.253 101.589 14.2792 101.823 14.3054C102.883 14.5106 103.612 14.7194 103.612 14.7194C106.342 15.4978 108.187 16.5133 108.708 16.8106C109.607 17.3174 110.376 18.0414 111.015 18.6425C111.258 18.8712 111.482 19.0821 111.687 19.2565C111.892 19.0821 112.116 18.8712 112.359 18.6425C112.998 18.0414 113.767 17.3174 114.665 16.8106C115.187 16.5133 117.032 15.4978 119.761 14.7194C119.761 14.7194 120.49 14.5106 121.55 14.3054C121.785 14.2792 122.038 14.253 122.311 14.2248L122.49 14.2063C123.304 14.1249 124.202 14.0294 125.132 13.902C125.466 13.8949 125.797 13.9055 126.118 13.9268C126.146 13.9303 126.167 13.9303 126.167 13.9303C126.579 13.9622 127.431 14.0294 128.185 14.3585L128.198 14.3642C128.662 14.5675 129.125 14.7702 129.449 15.2784C129.523 15.3952 129.925 16.0463 129.727 16.8247L129.724 16.835C129.692 16.9476 129.573 17.3544 129.171 17.7447C128.523 18.3745 127.678 18.4524 125.773 18.5798C124.79 18.6434 124.37 18.6639 124.093 18.6775C123.862 18.6888 123.731 18.6952 123.455 18.7178C121.103 18.9159 119.575 19.061 118.712 20.1402C118.599 20.2817 118.275 20.717 118.169 21.3539C118.148 21.4848 117.93 22.9638 118.962 23.6786C119.87 24.3155 121.121 23.9121 121.765 23.2823C122.452 22.61 122.55 21.5768 122.409 21.506C122.363 21.4839 122.3 21.5673 122.201 21.6996C122.029 21.9274 121.749 22.3003 121.254 22.5286C120.814 22.7303 120.071 22.8789 119.737 22.5109C119.497 22.2455 119.504 21.7572 119.656 21.4529C120.06 20.6372 121.609 20.6867 123.149 20.736C123.393 20.7437 123.636 20.7515 123.874 20.7559L123.886 20.7561C126.642 20.8021 131.519 20.8836 133.115 18.5267C134.055 17.1326 133.809 14.9494 133.017 13.5942C132.58 12.8476 131.935 12.2885 131.555 11.9984C131.935 11.7117 132.576 11.1491 133.017 10.4025C133.812 9.05087 134.059 6.86415 133.115 5.47002C131.519 3.11314 126.642 3.1946 123.886 3.24064L123.874 3.24083C123.628 3.24482 123.377 3.2526 123.126 3.26038C121.594 3.30785 120.058 3.35541 119.656 2.54377C119.504 2.23947 119.494 1.75117 119.737 1.48579C120.071 1.11779 120.814 1.26641 121.254 1.4681C121.755 1.69579 122.036 2.07285 122.207 2.30097C122.304 2.43091 122.365 2.51252 122.409 2.49069C122.55 2.42346 122.452 1.39025 121.765 0.717956C121.121 0.0845833 119.87 -0.311713 118.962 0.318121C117.93 1.03641 118.148 2.51192 118.169 2.64638C118.275 3.28683 118.599 3.71851 118.712 3.86005C119.575 4.93926 121.103 5.08787 123.455 5.28249C123.731 5.30503 123.862 5.31145 124.093 5.32276C124.37 5.3363 124.79 5.35685 125.773 5.42048C127.678 5.54433 128.523 5.62571 129.171 6.25554C129.59 6.66246 129.703 7.07999 129.727 7.17552C129.925 7.95397 129.523 8.60504 129.449 8.7218C129.12 9.23211 128.658 9.43438 128.192 9.63847L128.185 9.64178C127.431 9.97085 126.579 10.0381 126.167 10.0699C126.167 10.0699 126.142 10.0735 126.118 10.0735C125.794 10.0947 125.463 10.1018 125.132 10.0982C124.25 9.9774 123.396 9.8884 122.616 9.80708L122.49 9.79394C122.361 9.78064 122.236 9.76834 122.116 9.75648L122.115 9.75641C121.916 9.73673 121.728 9.71825 121.55 9.6984C120.487 9.48963 119.761 9.28441 119.761 9.28441C117.036 8.50596 115.187 7.49044 114.665 7.19321C113.767 6.684 112.998 5.96099 112.359 5.3607ZM111.687 15.7043C111.53 15.4166 111.36 15.1403 111.17 14.8857C110.237 13.6154 108.87 12.6671 108.06 12.1717C108.87 11.6799 110.237 10.7281 111.17 9.45778C111.357 9.20019 111.53 8.92525 111.687 8.63805C111.844 8.92525 112.016 9.20019 112.204 9.45778C113.137 10.7281 114.503 11.6799 115.313 12.1717C114.503 12.6671 113.137 13.6154 112.204 14.8857C112.014 15.1403 111.843 15.4166 111.687 15.7043Z" fill="#C29862"/>
<path opacity="0.5" fill-rule="evenodd" clip-rule="evenodd" d="M67.533 5.3607C67.2899 5.13225 67.0658 4.92158 66.8606 4.74722C66.6555 4.92158 66.4314 5.13225 66.1883 5.3607C65.5497 5.96099 64.7805 6.684 63.882 7.19321C63.3608 7.49044 61.5119 8.50596 58.7862 9.28441C58.7862 9.28441 58.0608 9.48963 56.9972 9.6984C56.8194 9.71825 56.632 9.73673 56.4324 9.7564L56.4318 9.75647C56.3114 9.76834 56.1867 9.78063 56.057 9.79394L55.931 9.80707C55.1512 9.88839 54.2977 9.9774 53.4158 10.0982C53.0847 10.1018 52.7537 10.0947 52.4297 10.0735C52.4051 10.0735 52.3804 10.0699 52.3804 10.0699C51.9684 10.0381 51.1161 9.97085 50.3625 9.64178L50.355 9.63847C49.8891 9.43438 49.4275 9.23211 49.0983 8.7218C49.0243 8.60504 48.6228 7.95397 48.82 7.17552C48.8447 7.07999 48.9574 6.66246 49.3765 6.25554C50.0244 5.62571 50.8696 5.54433 52.7748 5.42048C53.7574 5.35685 54.1773 5.3363 54.4541 5.32276C54.6852 5.31145 54.8164 5.30503 55.092 5.28249C57.4445 5.08787 58.9729 4.93926 59.8357 3.86005C59.9483 3.71851 60.2723 3.28683 60.378 2.64638C60.3991 2.51192 60.6174 1.03641 59.5856 0.318121C58.677 -0.311713 57.4269 0.0845833 56.7824 0.717956C56.0957 1.39025 55.9971 2.42346 56.138 2.49069C56.1827 2.51252 56.2436 2.43091 56.3407 2.30097C56.5111 2.07285 56.7927 1.69579 57.293 1.4681C57.7332 1.26641 58.4763 1.11779 58.8109 1.48579C59.0539 1.75117 59.0433 2.23947 58.8919 2.54377C58.4895 3.35541 56.9538 3.30785 55.4215 3.26038C55.1703 3.2526 54.9191 3.24482 54.673 3.24083L54.6617 3.24064C51.9057 3.1946 47.0289 3.11314 45.4323 5.47002C44.4885 6.86415 44.735 9.05087 45.5309 10.4025C45.9711 11.1491 46.612 11.7117 46.9923 11.9984C46.612 12.2885 45.9675 12.8476 45.5309 13.5942C44.7385 14.9494 44.492 17.1326 45.4323 18.5267C47.0289 20.8836 51.9057 20.8021 54.6617 20.7561L54.673 20.7559C54.9115 20.7515 55.1548 20.7437 55.3983 20.736C56.9383 20.6867 58.4874 20.6372 58.8919 21.4529C59.0433 21.7572 59.0503 22.2455 58.8109 22.5109C58.4763 22.8789 57.7332 22.7303 57.293 22.5286C56.7984 22.3003 56.518 21.9274 56.3467 21.6996C56.2472 21.5673 56.1845 21.4839 56.138 21.506C55.9971 21.5768 56.0957 22.61 56.7824 23.2823C57.4269 23.9121 58.677 24.3155 59.5856 23.6786C60.6174 22.9638 60.3991 21.4848 60.378 21.3539C60.2723 20.717 59.9483 20.2817 59.8357 20.1402C58.9729 19.061 57.4445 18.9159 55.092 18.7178C54.8164 18.6952 54.6852 18.6888 54.4541 18.6775C54.1773 18.6639 53.7573 18.6434 52.7748 18.5798C50.8696 18.4524 50.0244 18.3745 49.3765 17.7447C48.9744 17.3544 48.8559 16.9476 48.8231 16.835L48.82 16.8247C48.6228 16.0463 49.0243 15.3952 49.0983 15.2784C49.4227 14.7702 49.8854 14.5675 50.3493 14.3642L50.3625 14.3585C51.1161 14.0294 51.9684 13.9622 52.3804 13.9303C52.3804 13.9303 52.4015 13.9303 52.4297 13.9268C52.7502 13.9055 53.0812 13.8949 53.4158 13.902C54.3455 14.0294 55.2435 14.1249 56.057 14.2063L56.2363 14.2248C56.509 14.253 56.7626 14.2792 56.9972 14.3054C58.0572 14.5106 58.7862 14.7194 58.7862 14.7194C61.5155 15.4978 63.3608 16.5133 63.882 16.8106C64.7806 17.3174 65.5498 18.0414 66.1884 18.6425C66.4314 18.8712 66.6555 19.0821 66.8606 19.2565C67.0658 19.0821 67.2899 18.8712 67.5329 18.6425C68.1715 18.0414 68.9407 17.3174 69.8393 16.8106C70.3605 16.5133 72.2058 15.4978 74.9351 14.7194C74.9351 14.7194 75.664 14.5106 76.724 14.3054C76.9586 14.2792 77.2123 14.253 77.485 14.2248L77.6643 14.2063C78.4778 14.1249 79.3758 14.0294 80.3055 13.902C80.6401 13.8949 80.9711 13.9055 81.2916 13.9268C81.3197 13.9303 81.3409 13.9303 81.3409 13.9303C81.7529 13.9622 82.6051 14.0294 83.3588 14.3585L83.372 14.3642C83.8359 14.5675 84.2986 14.7702 84.623 15.2784C84.697 15.3952 85.0984 16.0463 84.9012 16.8247L84.8982 16.835C84.8654 16.9476 84.7469 17.3544 84.3448 17.7447C83.6968 18.3745 82.8517 18.4524 80.9465 18.5798C79.9639 18.6434 79.544 18.6639 79.2672 18.6775C79.0361 18.6888 78.9049 18.6952 78.6292 18.7178C76.2768 18.9159 74.7484 19.061 73.8856 20.1402C73.7729 20.2817 73.4489 20.717 73.3433 21.3539C73.3222 21.4848 73.1038 22.9638 74.1357 23.6786C75.0442 24.3155 76.2944 23.9121 76.9389 23.2823C77.6256 22.61 77.7242 21.5768 77.5833 21.506C77.5368 21.4839 77.474 21.5673 77.3746 21.6996C77.2032 21.9274 76.9229 22.3003 76.4282 22.5286C75.988 22.7303 75.245 22.8789 74.9104 22.5109C74.6709 22.2455 74.678 21.7572 74.8294 21.4529C75.2338 20.6372 76.783 20.6867 78.323 20.736C78.5665 20.7437 78.8098 20.7515 79.0483 20.7559L79.0596 20.7561C81.8156 20.8021 86.6924 20.8836 88.289 18.5267C89.2293 17.1326 88.9828 14.9494 88.1904 13.5942C87.7537 12.8476 87.1093 12.2885 86.7289 11.9984C87.1093 11.7117 87.7502 11.1491 88.1904 10.4025C88.9863 9.05087 89.2328 6.86415 88.289 5.47002C86.6924 3.11314 81.8156 3.1946 79.0596 3.24064L79.0483 3.24083C78.8022 3.24482 78.551 3.2526 78.2998 3.26038C76.7675 3.30785 75.2318 3.35541 74.8294 2.54377C74.678 2.23947 74.6674 1.75117 74.9104 1.48579C75.245 1.11779 75.988 1.26641 76.4282 1.4681C76.9286 1.69579 77.2102 2.07285 77.3806 2.30097C77.4776 2.43091 77.5386 2.51252 77.5833 2.49069C77.7242 2.42346 77.6256 1.39025 76.9389 0.717956C76.2944 0.0845833 75.0442 -0.311713 74.1357 0.318121C73.1038 1.03641 73.3222 2.51192 73.3433 2.64638C73.4489 3.28683 73.7729 3.71851 73.8856 3.86005C74.7484 4.93926 76.2768 5.08787 78.6292 5.28249C78.9049 5.30503 79.0361 5.31145 79.2672 5.32276C79.5439 5.3363 79.9639 5.35685 80.9465 5.42048C82.8517 5.54433 83.6968 5.62571 84.3448 6.25554C84.7639 6.66246 84.8766 7.07999 84.9012 7.17552C85.0984 7.95397 84.697 8.60504 84.623 8.7218C84.2938 9.23211 83.8321 9.43438 83.3663 9.63847L83.3588 9.64178C82.6051 9.97085 81.7529 10.0381 81.3409 10.0699C81.3409 10.0699 81.3162 10.0735 81.2916 10.0735C80.9676 10.0947 80.6366 10.1018 80.3055 10.0982C79.4236 9.9774 78.5701 9.8884 77.7903 9.80708L77.6643 9.79394C77.5346 9.78064 77.4099 9.76834 77.2896 9.75648L77.2889 9.75641C77.0894 9.73673 76.9019 9.71825 76.724 9.6984C75.6605 9.48963 74.9351 9.28441 74.9351 9.28441C72.2093 8.50596 70.3605 7.49044 69.8393 7.19321C68.9408 6.684 68.1716 5.96099 67.533 5.3607ZM66.8606 15.7043C66.7043 15.4166 66.5336 15.1403 66.3436 14.8857C65.4104 13.6154 64.044 12.6671 63.234 12.1717C64.044 11.6799 65.4104 10.7281 66.3436 9.45778C66.531 9.20019 66.7034 8.92525 66.8606 8.63805C67.0179 8.92525 67.1902 9.20019 67.3777 9.45778C68.3109 10.7281 69.6773 11.6799 70.4873 12.1717C69.6773 12.6671 68.3109 13.6154 67.3777 14.8857C67.1876 15.1403 67.017 15.4166 66.8606 15.7043Z" fill="#C29862"/>
<path opacity="0.5" fill-rule="evenodd" clip-rule="evenodd" d="M22.7087 5.3607C22.4657 5.13225 22.2416 4.92158 22.0364 4.74722C21.8313 4.92158 21.6071 5.13225 21.3641 5.3607C20.7255 5.96099 19.9563 6.684 19.0578 7.19321C18.5366 7.49044 16.6877 8.50596 13.962 9.28441C13.962 9.28441 13.2365 9.48963 12.173 9.6984C11.9952 9.71825 11.8078 9.73673 11.6082 9.7564L11.6075 9.75647C11.4872 9.76834 11.3625 9.78063 11.2327 9.79394L11.1068 9.80707C10.327 9.88839 9.47349 9.9774 8.59153 10.0982C8.2605 10.1018 7.92947 10.0947 7.60548 10.0735C7.58083 10.0735 7.55618 10.0699 7.55618 10.0699C7.14415 10.0381 6.29192 9.97085 5.5383 9.64178L5.53075 9.63847C5.06493 9.43438 4.60329 9.23211 4.27404 8.7218C4.20008 8.60504 3.79862 7.95397 3.99583 7.17552C4.02048 7.07999 4.13317 6.66246 4.55224 6.25554C5.20022 5.62571 6.04541 5.54433 7.9506 5.42048C8.93317 5.35685 9.35311 5.3363 9.62985 5.32276C9.86094 5.31145 9.99219 5.30503 10.2678 5.28249C12.6203 5.08787 14.1486 4.93926 15.0114 3.86005C15.1241 3.71851 15.4481 3.28683 15.5538 2.64638C15.5749 2.51192 15.7932 1.03641 14.7614 0.318121C13.8528 -0.311713 12.6026 0.0845833 11.9582 0.717956C11.2715 1.39025 11.1729 2.42346 11.3137 2.49069C11.3585 2.51252 11.4194 2.43091 11.5165 2.30097C11.6869 2.07285 11.9685 1.69579 12.4688 1.4681C12.909 1.26641 13.6521 1.11779 13.9866 1.48579C14.2296 1.75117 14.2191 2.23947 14.0676 2.54377C13.6653 3.35541 12.1296 3.30785 10.5973 3.26038C10.346 3.2526 10.0948 3.24482 9.84875 3.24083L9.83744 3.24064C7.08149 3.1946 2.20467 3.11314 0.608041 5.47002C-0.335754 6.86415 -0.08924 9.05087 0.706644 10.4025C1.14685 11.1491 1.78778 11.7117 2.16811 11.9984C1.78778 12.2885 1.14332 12.8476 0.706644 13.5942C-0.0857183 14.9494 -0.332232 17.1326 0.608041 18.5267C2.20467 20.8836 7.08149 20.8021 9.83744 20.7561L9.84875 20.7559C10.0873 20.7515 10.3306 20.7437 10.5741 20.736C12.1141 20.6867 13.6632 20.6372 14.0676 21.4529C14.2191 21.7572 14.2261 22.2455 13.9866 22.5109C13.6521 22.8789 12.909 22.7303 12.4688 22.5286C11.9742 22.3003 11.6938 21.9274 11.5225 21.6996C11.423 21.5673 11.3603 21.4839 11.3137 21.506C11.1729 21.5768 11.2715 22.61 11.9582 23.2823C12.6026 23.9121 13.8528 24.3155 14.7614 23.6786C15.7932 22.9638 15.5749 21.4848 15.5538 21.3539C15.4481 20.717 15.1241 20.2817 15.0114 20.1402C14.1486 19.061 12.6203 18.9159 10.2678 18.7178C9.99218 18.6952 9.86094 18.6888 9.62984 18.6775C9.3531 18.6639 8.93313 18.6434 7.9506 18.5798C6.04541 18.4524 5.20022 18.3745 4.55224 17.7447C4.15018 17.3544 4.03164 16.9476 3.99885 16.835L3.99583 16.8247C3.79862 16.0463 4.20008 15.3952 4.27404 15.2784C4.59847 14.7702 5.06114 14.5675 5.5251 14.3642L5.5383 14.3585C6.29192 14.0294 7.14415 13.9622 7.55618 13.9303C7.55618 13.9303 7.57731 13.9303 7.60548 13.9268C7.92595 13.9055 8.25698 13.8949 8.59153 13.902C9.52124 14.0294 10.4192 14.1249 11.2327 14.2063L11.4121 14.2248C11.6848 14.253 11.9384 14.2792 12.173 14.3054C13.233 14.5106 13.962 14.7194 13.962 14.7194C16.6912 15.4978 18.5366 16.5133 19.0578 16.8106C19.9563 17.3174 20.7256 18.0414 21.3642 18.6425C21.6072 18.8712 21.8313 19.0821 22.0364 19.2565C22.2415 19.0821 22.4656 18.8712 22.7086 18.6425C23.3473 18.0414 24.1165 17.3174 25.0151 16.8106C25.5363 16.5133 27.3816 15.4978 30.1109 14.7194C30.1109 14.7194 30.8398 14.5106 31.8998 14.3054C32.1344 14.2792 32.3881 14.253 32.6608 14.2248L32.8401 14.2063C33.6536 14.1249 34.5516 14.0294 35.4813 13.902C35.8159 13.8949 36.1469 13.9055 36.4674 13.9268C36.4955 13.9303 36.5167 13.9303 36.5167 13.9303C36.9287 13.9622 37.7809 14.0294 38.5345 14.3585L38.5477 14.3642C39.0117 14.5675 39.4744 14.7702 39.7988 15.2784C39.8728 15.3952 40.2742 16.0463 40.077 16.8247L40.074 16.835C40.0412 16.9476 39.9227 17.3544 39.5206 17.7447C38.8726 18.3745 38.0274 18.4524 36.1222 18.5798C35.1397 18.6434 34.7198 18.6639 34.443 18.6775C34.2119 18.6888 34.0807 18.6952 33.805 18.7178C31.4526 18.9159 29.9242 19.061 29.0614 20.1402C28.9487 20.2817 28.6247 20.717 28.5191 21.3539C28.498 21.4848 28.2796 22.9638 29.3114 23.6786C30.22 24.3155 31.4702 23.9121 32.1146 23.2823C32.8014 22.61 32.9 21.5768 32.7591 21.506C32.7125 21.4839 32.6498 21.5673 32.5504 21.6996C32.379 21.9274 32.0987 22.3003 31.604 22.5286C31.1638 22.7303 30.4208 22.8789 30.0862 22.5109C29.8467 22.2455 29.8538 21.7572 30.0052 21.4529C30.4096 20.6372 31.9588 20.6867 33.4987 20.736C33.7423 20.7437 33.9856 20.7515 34.2241 20.7559L34.2354 20.7561C36.9914 20.8021 41.8682 20.8836 43.4648 18.5267C44.4051 17.1326 44.1586 14.9494 43.3662 13.5942C42.9295 12.8476 42.2851 12.2885 41.9047 11.9984C42.2851 11.7117 42.926 11.1491 43.3662 10.4025C44.1621 9.05087 44.4086 6.86415 43.4648 5.47002C41.8682 3.11314 36.9914 3.1946 34.2354 3.24064L34.2241 3.24083C33.978 3.24482 33.7268 3.2526 33.4755 3.26038C31.9433 3.30785 30.4076 3.35541 30.0052 2.54377C29.8538 2.23947 29.8432 1.75117 30.0862 1.48579C30.4208 1.11779 31.1638 1.26641 31.604 1.4681C32.1043 1.69579 32.386 2.07285 32.5564 2.30097C32.6534 2.43091 32.7144 2.51252 32.7591 2.49069C32.9 2.42346 32.8014 1.39025 32.1146 0.717956C31.4702 0.0845833 30.22 -0.311713 29.3114 0.318121C28.2796 1.03641 28.498 2.51192 28.5191 2.64638C28.6247 3.28683 28.9487 3.71851 29.0614 3.86005C29.9242 4.93926 31.4526 5.08787 33.805 5.28249C34.0806 5.30503 34.2119 5.31145 34.443 5.32276C34.7197 5.3363 35.1397 5.35685 36.1222 5.42048C38.0274 5.54433 38.8726 5.62571 39.5206 6.25554C39.9397 6.66246 40.0524 7.07999 40.077 7.17552C40.2742 7.95397 39.8728 8.60504 39.7988 8.7218C39.4696 9.23211 39.0079 9.43438 38.5421 9.63847L38.5345 9.64178C37.7809 9.97085 36.9287 10.0381 36.5167 10.0699C36.5167 10.0699 36.492 10.0735 36.4674 10.0735C36.1434 10.0947 35.8123 10.1018 35.4813 10.0982C34.5993 9.9774 33.7459 9.8884 32.9661 9.80708L32.8401 9.79394C32.7104 9.78064 32.5857 9.76834 32.4654 9.75648L32.4647 9.75641C32.2651 9.73673 32.0777 9.71825 31.8998 9.6984C30.8363 9.48963 30.1109 9.28441 30.1109 9.28441C27.3851 8.50596 25.5363 7.49044 25.0151 7.19321C24.1165 6.684 23.3474 5.96099 22.7087 5.3607ZM22.0364 15.7043C21.8801 15.4166 21.7094 15.1403 21.5194 14.8857C20.5861 13.6154 19.2198 12.6671 18.4098 12.1717C19.2198 11.6799 20.5861 10.7281 21.5194 9.45778C21.7068 9.20019 21.8792 8.92525 22.0364 8.63805C22.1937 8.92525 22.366 9.20019 22.5535 9.45778C23.4867 10.7281 24.8531 11.6799 25.6631 12.1717C24.8531 12.6671 23.4867 13.6154 22.5535 14.8857C22.3634 15.1403 22.1928 15.4166 22.0364 15.7043Z" fill="#C29862"/>
</svg>
