<svg width="64" height="64" viewBox="0 0 64 64" fill="none" xmlns="http://www.w3.org/2000/svg">
<path d="M32.0469 1.26074C32.323 1.79346 32.7185 2.47499 33.251 3.18164C34.418 4.73031 36.266 6.44748 38.9326 6.96582C43.4399 8.16448 47.3981 10.5045 50.3975 13.6074L50.4092 13.6191C53.5054 16.6193 55.8392 20.577 57.0361 25.083C57.5537 27.7523 59.2721 29.6013 60.8203 30.7695C61.5264 31.3023 62.2069 31.6983 62.7393 31.9746C62.2576 32.2065 61.659 32.5401 61.0264 33.0059C59.6172 34.0434 58.0349 35.7332 57.1973 38.374L57.04 38.915C55.7593 43.7448 53.1715 47.9453 49.7402 51.0127L49.7334 51.0176L49.7275 51.0234C46.8138 53.8125 43.0935 55.9173 38.8975 57.0332C36.2307 57.5515 34.3829 59.2697 33.2158 60.8184C32.6835 61.5247 32.2878 62.2057 32.0117 62.7383C31.78 62.2565 31.4475 61.6569 30.9824 61.0244C29.9455 59.6144 28.2565 58.0315 25.6172 57.1934L25.0771 57.0361C20.6369 55.857 16.7289 53.5706 13.7451 50.5381L13.7334 50.5264L13.1484 49.9492C10.4618 47.2007 8.39091 43.7111 7.20117 39.7676L6.95996 38.915C6.17665 35.9615 4.4768 34.1126 2.97363 33.0059C2.34068 32.5399 1.74157 32.2065 1.25977 31.9746C1.79225 31.6983 2.47327 31.3025 3.17969 30.7695C4.72825 29.6011 6.44577 27.7513 6.96289 25.0811C8.2282 20.3189 10.7654 16.1702 14.1279 13.1162L14.1396 13.1045C16.8914 10.4282 20.3798 8.36847 24.3184 7.18848L25.1123 6.96387C28.0638 6.18003 29.9117 4.47946 31.0176 2.97559C31.4829 2.3427 31.8152 1.74263 32.0469 1.26074Z" stroke="#C29862"/>
<mask id="mask0_7177_7142" style="mask-type:alpha" maskUnits="userSpaceOnUse" x="5" y="5" width="54" height="54">
<path d="M15.9491 48.2908C13.1559 45.6307 11.0549 42.0988 9.98777 38.0745C8.69733 33.2081 5.33398 32.0036 5.33398 32.0036C5.33398 32.0036 9.16009 30.269 9.98778 25.9327C11.0987 21.7434 13.3299 18.0876 16.2962 15.3935C18.8822 12.8785 22.2022 10.9852 25.9494 9.99011C30.8123 8.69875 32.016 5.33301 32.016 5.33301C32.016 5.33301 33.7493 9.16183 38.0826 9.99011C42.0469 11.0428 45.5331 13.101 48.1778 15.837C50.9084 18.4828 52.9625 21.9689 54.0136 25.9327C54.8413 30.269 58.6674 32.0036 58.6674 32.0036C58.6674 32.0036 55.304 33.2081 54.0136 38.0745C52.8882 42.3186 50.6129 46.0151 47.5885 48.7188C45.0197 51.1776 41.7432 53.0292 38.0524 54.0093C33.7191 54.8376 31.9858 58.6664 31.9858 58.6664C31.9858 58.6664 30.7821 55.3007 25.9191 54.0093C22.0171 52.9731 18.5782 50.9628 15.9491 48.2908Z" fill="white"/>
</mask>
<g mask="url(#mask0_7177_7142)">
<path d="M15.9491 48.2908C13.1559 45.6307 11.0549 42.0988 9.98777 38.0745C8.69733 33.2081 5.33398 32.0036 5.33398 32.0036C5.33398 32.0036 9.16009 30.269 9.98778 25.9327C11.0987 21.7434 13.3299 18.0876 16.2962 15.3935C18.8822 12.8785 22.2022 10.9852 25.9494 9.99011C30.8123 8.69875 32.016 5.33301 32.016 5.33301C32.016 5.33301 33.7493 9.16183 38.0826 9.99011C42.0469 11.0428 45.5331 13.101 48.1778 15.837C50.9084 18.4828 52.9625 21.9689 54.0136 25.9327C54.8413 30.269 58.6674 32.0036 58.6674 32.0036C58.6674 32.0036 55.304 33.2081 54.0136 38.0745C52.8882 42.3186 50.6129 46.0151 47.5885 48.7188C45.0197 51.1776 41.7432 53.0292 38.0524 54.0093C33.7191 54.8376 31.9858 58.6664 31.9858 58.6664C31.9858 58.6664 30.7821 55.3007 25.9191 54.0093C22.0171 52.9731 18.5782 50.9628 15.9491 48.2908Z" fill="#FBF1E8"/>
<path d="M27.661 18.5135C24.7718 19.4955 22.2801 21.3593 20.5521 23.8312C18.824 26.3032 17.9505 29.2529 18.0599 32.2471C18.1694 35.2413 19.256 38.1222 21.1602 40.4667C23.0643 42.8112 25.6857 44.4956 28.6392 45.2725C31.0336 45.8779 33.5423 45.9045 35.9496 45.35C38.1303 44.8701 40.1465 43.8435 41.8006 42.3709C43.5222 40.7913 44.7718 38.7819 45.4151 36.5587C46.1141 34.141 46.2386 31.5985 45.7789 29.1264H32.3328V34.5911H40.1198C39.9642 35.4626 39.6307 36.2945 39.1393 37.0369C38.6479 37.7792 38.0086 38.4168 37.2598 38.9115C36.3091 39.528 35.2371 39.9426 34.1129 40.1288C32.9855 40.3342 31.8291 40.3342 30.7017 40.1288C29.559 39.8976 28.478 39.4355 27.5277 38.772C26.0009 37.7131 24.8545 36.2088 24.252 34.4738C23.6395 32.7062 23.6395 30.79 24.252 29.0224C24.6808 27.7834 25.3898 26.6553 26.3259 25.7223C27.3971 24.635 28.7533 23.8578 30.2457 23.476C31.7381 23.0941 33.3091 23.1224 34.7861 23.5577C35.9401 23.9046 36.9953 24.5109 37.8675 25.3283C38.7456 24.4725 39.6221 23.6145 40.4971 22.7542C40.9489 22.2917 41.4414 21.8512 41.8864 21.3776C40.5548 20.1636 38.9918 19.2189 37.2869 18.5976C34.1823 17.4932 30.7852 17.4635 27.661 18.5135Z" fill="#B50000"/>
</g>
</svg>
