<svg width="145" height="96" viewBox="0 0 145 96" fill="none" xmlns="http://www.w3.org/2000/svg">
<path fill-rule="evenodd" clip-rule="evenodd" d="M27.5639 44.7295C27.5228 44.2332 27.1976 43.3126 26.8689 42.9293C26.9442 42.8917 27.0229 42.8609 27.1051 42.8369C27.3379 42.7616 27.6015 42.7274 27.8994 42.7377C27.9131 43.2271 27.7659 44.3154 27.5639 44.7329V44.7295ZM26.3108 42.3338C25.9719 41.9984 25.5987 41.6733 25.2084 41.3482C25.5165 41.2318 25.8555 41.136 26.215 41.071C26.7491 40.982 27.3208 40.9683 27.8994 41.0744C27.9268 41.3653 27.9371 41.6596 27.9371 41.9505C27.5434 41.9402 27.1873 41.9882 26.8723 42.084C26.6703 42.149 26.4854 42.2277 26.3142 42.3304L26.3108 42.3338ZM24.5065 40.7972C24.1436 40.52 23.7704 40.2496 23.3938 39.9758C23.9314 39.6986 24.5921 39.4659 25.3145 39.3495C26.0267 39.2366 26.8004 39.2366 27.581 39.4214C27.6632 39.702 27.7282 39.9826 27.783 40.2667C27.1941 40.1846 26.6189 40.2085 26.078 40.3009C25.4994 40.4002 24.9653 40.5816 24.5031 40.7972H24.5065ZM25.1913 38.5795C24.2258 38.7369 23.3562 39.0791 22.6954 39.4727C22.312 39.2023 21.9353 38.9286 21.5827 38.6684C21.5211 38.624 21.4663 38.5795 21.4081 38.535C22.0997 38.1517 22.9659 37.8163 23.9245 37.6657C24.8695 37.5185 25.9068 37.5425 26.9613 37.8779C27.0812 38.1038 27.1873 38.3331 27.2831 38.5658C26.5608 38.4528 25.8555 38.4734 25.1913 38.576V38.5795ZM26.369 36.9265C25.4789 36.7553 24.6092 36.769 23.8013 36.8957C22.6338 37.077 21.5964 37.5048 20.7987 37.9806C20.4529 37.6212 20.155 37.2311 19.9017 36.8169C20.5453 36.4542 21.4149 36.1633 22.377 36.0161C23.4657 35.845 24.664 35.8621 25.763 36.1667C25.811 36.2215 25.8589 36.2762 25.9034 36.3275C26.0712 36.526 26.2218 36.728 26.3656 36.9265H26.369ZM22.2538 35.2427C21.2164 35.4069 20.2612 35.7286 19.5319 36.129C19.3607 35.756 19.2204 35.3693 19.1108 34.9757C19.6928 34.6711 20.4529 34.4452 21.2746 34.3528C22.1373 34.2536 23.0686 34.3049 23.9382 34.565C24.2087 34.7635 24.4757 34.9689 24.7359 35.1845C23.8971 35.0921 23.048 35.1263 22.2538 35.2427ZM18.9362 34.192C18.8677 33.7847 18.8266 33.3706 18.8164 32.9531C19.169 32.8162 19.5627 32.7306 19.9804 32.6998C20.4084 32.6622 20.8569 32.6861 21.3122 32.7649C21.6683 33.025 22.0415 33.2748 22.4249 33.528C22.0072 33.5144 21.593 33.528 21.1924 33.5725C20.3605 33.6649 19.5833 33.884 18.943 34.192H18.9362ZM18.8335 32.118C18.8677 31.5465 18.9602 30.9818 19.1005 30.4308C19.3984 30.9886 19.7955 31.4712 20.2577 31.9024C20.1448 31.9024 20.0318 31.9093 19.9222 31.9161C19.5422 31.9469 19.1758 32.0154 18.8369 32.1146L18.8335 32.118ZM15.5639 24.8523C15.9644 24.4553 16.3855 24.0686 16.8238 23.6853C17.1422 23.4081 17.4674 23.1377 17.8064 22.8742C17.7961 23.1309 17.7961 23.3876 17.8064 23.6511C17.0018 24.0173 16.2554 24.4211 15.5604 24.8557L15.5639 24.8523ZM18.8711 23.213C18.8711 23.0624 18.878 22.9153 18.8848 22.7681C18.9054 22.4977 18.9396 22.2274 18.9875 21.9673C19.3025 21.7482 19.7442 21.4779 20.0729 21.2657C20.0626 21.3375 20.0523 21.406 20.0421 21.4779C19.9838 21.9125 19.9599 22.3574 19.9701 22.8092C19.6312 22.9221 19.1861 23.0898 18.8643 23.213H18.8711ZM21.0075 22.4875C21.0109 22.2103 21.0315 21.9399 21.0657 21.6729C21.1205 21.2588 21.2164 20.8584 21.3499 20.4614C21.7025 20.2629 22.2092 20.0302 22.5824 19.842C22.5448 19.9789 22.514 20.1226 22.4797 20.2595C22.3428 20.8789 22.2606 21.5155 22.2332 22.176C21.8634 22.2616 21.3602 22.3951 21.0075 22.4875ZM23.3014 21.9501C23.3699 20.9953 23.5719 20.0644 23.9348 19.178C24.3319 19.0035 24.8626 18.805 25.2769 18.6407C25.181 18.8905 25.092 19.1404 25.0201 19.3936C24.801 20.1329 24.664 20.9029 24.6093 21.7106C24.2053 21.7756 23.6849 21.8749 23.3014 21.9501ZM25.6911 21.5395C25.8041 20.3211 26.1328 19.1472 26.7285 18.0726C27.112 17.9426 27.6118 17.833 28.009 17.7201C27.557 18.8769 27.2044 20.1089 26.975 21.4299C26.5779 21.4676 26.0746 21.4984 25.6911 21.5395ZM41.5668 22.9666C44.5591 23.7982 41.3237 27.775 45.3876 29.4452C41.4812 30.3555 39.3653 25.8174 41.5668 22.9666ZM66.1181 20.7421C60.5032 19.3252 59.346 12.6926 63.7009 11.3203C67.9463 9.98553 70.6613 16.9329 66.1181 20.7421ZM7.31619 90.8255C7.01149 87.3825 4.2383 86.4859 3.20435 83.108C5.2791 84.3161 7.81606 84.0697 9.15814 82.5981C11.3938 80.1442 9.83945 76.7184 6.92247 76.3899C8.31592 77.8375 9.22661 79.9252 7.75786 81.2428C5.71733 83.0738 3.13588 80.8971 3.78979 78.3406C4.64914 74.9696 8.15842 73.5288 11.3801 71.9921C14.5778 71.3076 17.4674 68.977 18.7445 65.3561C20.203 61.2151 18.8472 56.8686 15.4372 52.9261C18.6486 53.6071 23.2363 52.4024 25.9821 49.8528C30.1043 46.0129 30.2138 39.5412 26.4854 35.2255C23.8115 32.1317 19.8743 31.2111 19.3402 26.9502C16.7313 30.7696 16.4506 36.3241 20.8706 39.6096C23.1371 41.2934 25.6501 43.1791 26.0027 45.4379C26.6772 49.7535 18.272 52.8097 14.4751 51.0917C12.7496 50.3079 11.4178 49.2333 10.4283 47.9602C10.7262 47.0841 11.5855 46.3825 12.9379 46.338C15.4714 46.2524 17.8029 44.3667 17.6386 41.6254C17.488 39.1202 15.5604 37.5117 13.1091 37.4159C10.6817 37.32 9.16841 39.0415 9.43204 40.9614C9.7744 43.4427 12.8112 44.2777 14.3587 42.392C13.0372 42.5871 11.8149 42.1867 11.5171 40.8382C11.3116 39.9005 11.9382 38.843 13.0201 38.7848C14.4785 38.6993 15.9165 39.7944 16.0466 41.5432C16.2315 43.9492 14.6223 45.4174 12.7462 45.5543C10.8768 45.6946 9.47311 44.9177 8.49051 43.7781C7.85713 40.9306 8.22348 37.6965 9.3978 34.5411C11.7841 28.1207 18.9739 23.1617 27.8857 23.1206L28.0603 22.0597C30.159 9.28052 45.3294 3.82867 57.5554 2.49394C50.4855 4.04428 44.2681 7.84653 39.2695 12.6687C33.1753 18.5415 29.6626 28.7881 36.2601 35.2119C36.5305 35.4754 36.8147 35.7149 37.1023 35.9408L37.092 35.9545C39.7283 38.0456 40.4678 43.1278 37.0475 43.9458C35.7157 44.264 34.312 43.6172 33.5588 42.1832C32.6138 40.3831 33.8874 37.125 31.1827 36.0024C32.47 36.9846 30.813 40.6979 31.6312 43.0286C32.0832 44.3154 32.9288 45.1744 33.9525 45.6604C32.1893 45.8554 30.8472 47.197 30.8301 48.6173C30.813 50.5544 33.1411 51.9541 34.8358 50.7494C35.9382 49.9657 35.6883 48.1553 34.5277 47.5666C35.1405 48.4359 34.8906 49.5413 34.0929 49.8733C33.1822 50.2498 32.2167 49.4729 32.2989 48.4872C32.429 46.9061 33.7402 46.3414 35.1953 46.0539C35.9964 46.1943 36.8455 46.1566 37.6638 45.9444C41.1799 45.0204 42.1762 40.7766 39.9474 37.4809C44.8775 39.1407 50.6875 36.6766 52.8513 32.0188C52.9232 31.8614 52.9848 31.7039 53.0533 31.5465C54.5289 33.6444 57.5862 33.2166 58.3702 31.2008C59.2125 29.0379 57.5212 27.3815 56.1414 27.7853C56.9391 28.6067 57.2952 30.1125 56.4119 31.0023C55.6313 31.7895 54.166 31.7005 53.3751 30.6875C55.9086 23.0111 48.8147 17.4634 43.0082 19.996C36.8558 22.6791 37.8487 30.2665 42.6966 31.5396C45.4629 32.2618 48.3799 30.4821 48.7771 28.2336C47.4829 28.7915 46.4524 28.8805 45.4732 28.0214C43.6758 26.4403 45.9251 23.0282 42.4809 22.0528C44.0661 20.8105 45.9354 20.7318 47.7979 21.5121C54.6076 24.3561 53.221 34.6164 45.2712 36.5397C38.506 38.1756 34.1956 32.3028 34.7502 25.9509C35.1302 21.5805 39.831 16.3306 44.833 16.6694C43.4395 7.66173 56.477 3.42484 62.8724 3.04495C69.2096 2.67534 76.2898 7.09019 76.687 13.6304C76.9814 18.4833 72.0445 21.5942 67.5218 21.0364C72.7292 14.989 68.9631 7.61382 63.273 9.28736C58.0279 10.8343 59.0755 19.2362 64.8992 21.5703C60.8524 23.2062 57.0692 21.9091 55.4156 19.753C53.9366 17.8262 54.1283 14.7597 57.3876 13.3839C56.4256 11.2621 58.134 8.36674 60.8421 7.13811C55.6518 7.20998 51.0435 10.7179 51.362 15.9336C51.8105 23.3123 61.3694 25.6395 66.3783 22.0289C70.3977 23.5997 74.958 22.3198 77.4505 19.4484C80.8844 19.3491 83.5618 21.6148 83.079 24.4519C86.7663 22.0802 84.3971 16.6181 78.683 17.5319C79.2342 16.2998 79.4636 14.9001 79.2376 13.3874C78.594 9.06833 74.8827 4.42758 69.1378 2.58634C71.9589 3.01756 74.6225 3.78418 77.1321 4.92384C80.5112 6.45705 83.281 8.35989 85.9481 10.6974C87.725 12.2511 87.9612 15.1773 86.0302 16.7208C87.9407 16.9809 89.7073 18.3361 90.8919 20.0815C91.1692 17.9905 92.0525 16.0192 93.6411 14.9411C91.2548 14.8008 89.9675 12.0492 91.0596 9.80756C94.0828 3.62333 99.9236 1.09762 106.61 1.17291C112.81 1.25847 116.706 5.83076 116.902 10.0437C117.066 13.5243 114.094 16.755 109.685 16.998C105.648 17.2204 101.125 15.2731 100.653 10.9164C100.348 8.11691 102.731 5.26949 106.292 5.29687C109.181 5.31398 111.116 7.80547 111.085 9.50981C111.057 10.8445 109.88 12.3059 107.849 12.3538C105.966 12.4017 105.744 9.78018 107.98 9.57826C107.254 9.49612 105.299 8.31541 105.378 7.26474C102.05 8.72267 103.628 13.4319 107.754 13.6748C110.393 13.8288 112.749 11.9055 112.8 9.65356C112.875 6.29962 109.284 4.0169 105.497 4.01006C101.646 4.00321 97.2907 7.20656 98.2323 11.5838C99.3005 16.5531 104.491 18.7331 109.099 18.3327C113.338 17.9631 116.381 16.0842 117.816 13.5756C124.112 15.9199 128.255 14.3354 132.397 10.6324C134.749 10.3038 137.084 10.3996 138.067 12.7234C138.649 14.1026 137.632 15.6598 136.15 15.5435C134.855 15.4374 133.969 13.9692 134.438 12.4428C133.055 13.8254 133.551 16.5394 135.496 17.1451C138.491 18.0794 141.169 14.9959 140.231 12.2238C139.447 9.92735 136.266 8.56866 133.325 9.76307C133.729 9.37292 134.136 8.96908 134.544 8.54471C137.012 5.97793 140.724 3.79787 144.5 5.59119C141.799 0.0366745 135.297 1.73076 132.62 5.54671C128.939 10.7898 125.714 14.5749 119.812 12.5455C124.334 12.3162 127.813 9.14021 129.045 4.95806C127.399 5.70756 125.283 5.16682 123.869 4.3215C123.28 6.96014 121.212 9.86916 118.672 10.9883C118.716 10.6495 118.74 10.3038 118.733 9.95815C118.613 5.18051 113.837 0.108551 106.593 0.00245667C99.6771 -0.0967941 90.7207 2.80881 88.6767 10.208C82.6305 3.54119 73.1914 1.19686 62.8382 1.15237C54.1625 1.11472 43.0047 3.31532 35.072 8.45914C27.896 11.5119 19.1005 18.4388 12.7359 16.642C10.2092 15.9268 8.15843 14.5031 7.03203 12.542C5.40919 9.71858 5.96727 7.12442 7.65172 5.67333C9.38411 4.17776 11.7225 4.05797 13.5781 5.17709C14.8483 5.93685 15.7556 7.54879 16.6149 8.63711C18.2241 10.6666 22.2983 11.3237 24.8523 7.80889C22.0928 8.35989 20.2269 7.00806 18.5253 5.43376C15.3071 2.4563 13.0269 1.12157 9.21634 2.62057C3.70078 4.79036 3.07767 13.3497 10.0962 16.8782C5.40919 17.2341 3.11533 20.2458 4.17325 24.7702C4.94701 28.0762 4.69365 31.8374 1.52332 33.1961C5.83032 33.528 7.58665 29.2809 7.35727 25.53C7.06627 20.7215 8.58638 17.4976 14.4786 18.1C19.5422 18.3327 25.3522 14.8179 30.7377 11.9089C29.2689 13.3668 28.0227 14.9856 27.0812 16.7755C22.4523 18.2129 18.8232 20.3759 16.0124 22.8126C12.0854 26.2178 9.35672 30.6396 8.13446 33.8737C7.29565 35.8621 6.80606 37.9737 6.71704 40.0511C6.04942 41.2352 5.02917 42.0498 3.76926 41.7794C2.51961 41.5159 1.83829 39.7739 2.94414 38.2167C-0.363144 39.1271 0.574951 43.1175 3.52959 43.2373C4.72789 43.2818 5.93987 42.6144 6.71704 41.4063C6.90535 45.8589 9.02803 50.0034 13.6363 52.2895C16.5396 56.3929 17.6557 61.0919 16.4574 64.4903C14.7285 69.3774 9.3259 71.092 5.38866 68.4739C2.39635 66.4855 1.88965 61.4546 5.63858 59.5107C8.19608 58.1863 11.2158 60.1096 12.1984 61.7558C12.4997 58.881 9.64772 56.5435 6.77182 56.3792C6.20007 55.1506 6.54587 53.2649 6.14188 51.8822C5.54272 49.8322 3.05028 48.8945 0.544128 50.0547C2.01633 50.2155 3.10162 51.0917 3.21803 53.2478C3.29678 54.7331 3.73502 55.907 4.95042 56.5846C4.71761 56.6565 4.4848 56.7454 4.26227 56.855C-0.982819 59.456 -0.260422 66.951 3.46797 70.0482C4.96069 71.2871 6.67253 71.9647 8.40492 72.153C4.87167 73.871 2.07794 76.0647 1.37952 78.7582C-0.0892487 84.4119 4.33417 86.7597 4.43002 90.5825C4.4985 93.4436 3.04686 94.7543 1.4651 95.8495C4.09793 96.6195 7.60036 94.3573 7.2888 90.8323L7.31619 90.8255Z" fill="#B50000"/>
</svg>
