<svg width="145" height="96" viewBox="0 0 145 96" fill="none" xmlns="http://www.w3.org/2000/svg">
<path fill-rule="evenodd" clip-rule="evenodd" d="M117.436 44.7295C117.477 44.2332 117.802 43.3126 118.131 42.9293C118.056 42.8917 117.977 42.8609 117.895 42.8369C117.662 42.7616 117.398 42.7274 117.101 42.7377C117.087 43.2271 117.234 44.3154 117.436 44.7329V44.7295ZM118.689 42.3338C119.028 41.9984 119.401 41.6733 119.792 41.3482C119.483 41.2318 119.145 41.136 118.785 41.071C118.251 40.982 117.679 40.9683 117.101 41.0744C117.073 41.3653 117.063 41.6596 117.063 41.9505C117.457 41.9402 117.813 41.9882 118.128 42.084C118.33 42.149 118.515 42.2277 118.686 42.3304L118.689 42.3338ZM120.493 40.7972C120.856 40.52 121.23 40.2496 121.606 39.9758C121.069 39.6986 120.408 39.4659 119.685 39.3495C118.973 39.2366 118.2 39.2366 117.419 39.4214C117.337 39.702 117.272 39.9826 117.217 40.2667C117.806 40.1846 118.381 40.2085 118.922 40.3009C119.501 40.4002 120.035 40.5816 120.497 40.7972H120.493ZM119.809 38.5795C120.774 38.7369 121.644 39.0791 122.305 39.4727C122.688 39.2023 123.065 38.9286 123.417 38.6684C123.479 38.624 123.534 38.5795 123.592 38.535C122.9 38.1517 122.034 37.8163 121.075 37.6657C120.131 37.5185 119.093 37.5425 118.039 37.8779C117.919 38.1038 117.813 38.3331 117.717 38.5658C118.439 38.4528 119.145 38.4734 119.809 38.576V38.5795ZM118.631 36.9265C119.521 36.7553 120.391 36.769 121.199 36.8957C122.366 37.077 123.404 37.5048 124.201 37.9806C124.547 37.6212 124.845 37.2311 125.098 36.8169C124.455 36.4542 123.585 36.1633 122.623 36.0161C121.534 35.845 120.336 35.8621 119.237 36.1667C119.189 36.2215 119.141 36.2762 119.097 36.3275C118.929 36.526 118.778 36.728 118.634 36.9265H118.631ZM122.746 35.2427C123.784 35.4069 124.739 35.7286 125.468 36.129C125.639 35.756 125.78 35.3693 125.889 34.9757C125.307 34.6711 124.547 34.4452 123.725 34.3528C122.863 34.2536 121.931 34.3049 121.062 34.565C120.791 34.7635 120.524 34.9689 120.264 35.1845C121.103 35.0921 121.952 35.1263 122.746 35.2427ZM126.064 34.192C126.132 33.7847 126.173 33.3706 126.184 32.9531C125.831 32.8162 125.437 32.7306 125.02 32.6998C124.592 32.6622 124.143 32.6861 123.688 32.7649C123.332 33.025 122.959 33.2748 122.575 33.528C122.993 33.5144 123.407 33.528 123.808 33.5725C124.64 33.6649 125.417 33.884 126.057 34.192H126.064ZM126.167 32.118C126.132 31.5465 126.04 30.9818 125.899 30.4308C125.602 30.9886 125.204 31.4712 124.742 31.9024C124.855 31.9024 124.968 31.9093 125.078 31.9161C125.458 31.9469 125.824 32.0154 126.163 32.1146L126.167 32.118ZM129.436 24.8523C129.036 24.4553 128.614 24.0686 128.176 23.6853C127.858 23.4081 127.533 23.1377 127.194 22.8742C127.204 23.1309 127.204 23.3876 127.194 23.6511C127.998 24.0173 128.745 24.4211 129.44 24.8557L129.436 24.8523ZM126.129 23.213C126.129 23.0624 126.122 22.9153 126.115 22.7681C126.095 22.4977 126.06 22.2274 126.012 21.9673C125.697 21.7482 125.256 21.4779 124.927 21.2657C124.937 21.3375 124.948 21.406 124.958 21.4779C125.016 21.9125 125.04 22.3574 125.03 22.8092C125.369 22.9221 125.814 23.0898 126.136 23.213H126.129ZM123.992 22.4875C123.989 22.2103 123.969 21.9399 123.934 21.6729C123.879 21.2588 123.784 20.8584 123.65 20.4614C123.297 20.2629 122.791 20.0302 122.418 19.842C122.455 19.9789 122.486 20.1226 122.52 20.2595C122.657 20.8789 122.739 21.5155 122.767 22.176C123.137 22.2616 123.64 22.3951 123.992 22.4875ZM121.699 21.9501C121.63 20.9953 121.428 20.0644 121.065 19.178C120.668 19.0035 120.137 18.805 119.723 18.6407C119.819 18.8905 119.908 19.1404 119.98 19.3936C120.199 20.1329 120.336 20.9029 120.391 21.7106C120.795 21.7756 121.315 21.8749 121.699 21.9501ZM119.309 21.5395C119.196 20.3211 118.867 19.1472 118.271 18.0726C117.888 17.9426 117.388 17.833 116.991 17.7201C117.443 18.8769 117.796 20.1089 118.025 21.4299C118.422 21.4676 118.925 21.4984 119.309 21.5395ZM103.433 22.9666C100.441 23.7982 103.676 27.775 99.6124 29.4452C103.519 30.3555 105.635 25.8174 103.433 22.9666ZM78.8819 20.7421C84.4968 19.3252 85.654 12.6926 81.2991 11.3203C77.0537 9.98553 74.3387 16.9329 78.8819 20.7421ZM137.684 90.8255C137.989 87.3825 140.762 86.4859 141.796 83.108C139.721 84.3161 137.184 84.0697 135.842 82.5981C133.606 80.1442 135.161 76.7184 138.078 76.3899C136.684 77.8375 135.773 79.9252 137.242 81.2428C139.283 83.0738 141.864 80.8971 141.21 78.3406C140.351 74.9696 136.842 73.5288 133.62 71.9921C130.422 71.3076 127.533 68.977 126.256 65.3561C124.797 61.2151 126.153 56.8686 129.563 52.9261C126.351 53.6071 121.764 52.4024 119.018 49.8528C114.896 46.0129 114.786 39.5412 118.515 35.2255C121.188 32.1317 125.126 31.2111 125.66 26.9502C128.269 30.7696 128.549 36.3241 124.129 39.6096C121.863 41.2934 119.35 43.1791 118.997 45.4379C118.323 49.7535 126.728 52.8097 130.525 51.0917C132.25 50.3079 133.582 49.2333 134.572 47.9602C134.274 47.0841 133.414 46.3825 132.062 46.338C129.529 46.2524 127.197 44.3667 127.361 41.6254C127.512 39.1202 129.44 37.5117 131.891 37.4159C134.318 37.32 135.832 39.0415 135.568 40.9614C135.226 43.4427 132.189 44.2777 130.641 42.392C131.963 42.5871 133.185 42.1867 133.483 40.8382C133.688 39.9005 133.062 38.843 131.98 38.7848C130.521 38.6993 129.083 39.7944 128.953 41.5432C128.769 43.9492 130.378 45.4174 132.254 45.5543C134.123 45.6946 135.527 44.9177 136.509 43.7781C137.143 40.9306 136.777 37.6965 135.602 34.5411C133.216 28.1207 126.026 23.1617 117.114 23.1206L116.94 22.0597C114.841 9.28052 99.6706 3.82867 87.4446 2.49394C94.5145 4.04428 100.732 7.84653 105.731 12.6687C111.825 18.5415 115.337 28.7881 108.74 35.2119C108.469 35.4754 108.185 35.7149 107.898 35.9408L107.908 35.9545C105.272 38.0456 104.532 43.1278 107.952 43.9458C109.284 44.264 110.688 43.6172 111.441 42.1832C112.386 40.3831 111.113 37.125 113.817 36.0024C112.53 36.9846 114.187 40.6979 113.369 43.0286C112.917 44.3154 112.071 45.1744 111.048 45.6604C112.811 45.8554 114.153 47.197 114.17 48.6173C114.187 50.5544 111.859 51.9541 110.164 50.7494C109.062 49.9657 109.312 48.1553 110.472 47.5666C109.859 48.4359 110.109 49.5413 110.907 49.8733C111.818 50.2498 112.783 49.4729 112.701 48.4872C112.571 46.9061 111.26 46.3414 109.805 46.0539C109.004 46.1943 108.154 46.1566 107.336 45.9444C103.82 45.0204 102.824 40.7766 105.053 37.4809C100.123 39.1407 94.3125 36.6766 92.1487 32.0188C92.0768 31.8614 92.0152 31.7039 91.9467 31.5465C90.4711 33.6444 87.4138 33.2166 86.6298 31.2008C85.7875 29.0379 87.4788 27.3815 88.8586 27.7853C88.0609 28.6067 87.7048 30.1125 88.5881 31.0023C89.3687 31.7895 90.834 31.7005 91.6249 30.6875C89.0914 23.0111 96.1853 17.4634 101.992 19.996C108.144 22.6791 107.151 30.2665 102.303 31.5396C99.5371 32.2618 96.6201 30.4821 96.2229 28.2336C97.5171 28.7915 98.5476 28.8805 99.5268 28.0214C101.324 26.4403 99.0749 23.0282 102.519 22.0528C100.934 20.8105 99.0646 20.7318 97.2021 21.5121C90.3924 24.3561 91.779 34.6164 99.7288 36.5397C106.494 38.1756 110.804 32.3028 110.25 25.9509C109.87 21.5805 105.169 16.3306 100.167 16.6694C101.56 7.66173 88.523 3.42484 82.1276 3.04495C75.7904 2.67534 68.7102 7.09019 68.313 13.6304C68.0186 18.4833 72.9555 21.5942 77.4782 21.0364C72.2708 14.989 76.0369 7.61382 81.727 9.28736C86.9721 10.8343 85.9245 19.2362 80.1008 21.5703C84.1476 23.2062 87.9308 21.9091 89.5844 19.753C91.0634 17.8262 90.8717 14.7597 87.6124 13.3839C88.5744 11.2621 86.866 8.36674 84.1579 7.13811C89.3482 7.20998 93.9565 10.7179 93.638 15.9336C93.1895 23.3123 83.6306 25.6395 78.6217 22.0289C74.6023 23.5997 70.042 22.3198 67.5495 19.4484C64.1156 19.3491 61.4382 21.6148 61.921 24.4519C58.2337 22.0802 60.6029 16.6181 66.317 17.5319C65.7658 16.2998 65.5364 14.9001 65.7624 13.3874C66.406 9.06833 70.1173 4.42758 75.8622 2.58634C73.0411 3.01756 70.3775 3.78418 67.8679 4.92384C64.4888 6.45705 61.719 8.35989 59.0519 10.6974C57.275 12.2511 57.0388 15.1773 58.9698 16.7208C57.0593 16.9809 55.2927 18.3361 54.1081 20.0815C53.8308 17.9905 52.9475 16.0192 51.3589 14.9411C53.7452 14.8008 55.0325 12.0492 53.9404 9.80756C50.9172 3.62333 45.0764 1.09762 38.39 1.17291C32.1897 1.25847 28.2935 5.83076 28.0984 10.0437C27.934 13.5243 30.9058 16.755 35.3155 16.998C39.352 17.2204 43.8747 15.2731 44.3472 10.9164C44.6519 8.11691 42.269 5.26949 38.7084 5.29687C35.8188 5.31398 33.8844 7.80547 33.9152 9.50981C33.9426 10.8445 35.1203 12.3059 37.1506 12.3538C39.0336 12.4017 39.2562 9.78018 37.0205 9.57826C37.7463 9.49612 39.7012 8.31541 39.6225 7.26474C42.9503 8.72267 41.372 13.4319 37.2465 13.6748C34.6068 13.8288 32.2513 11.9055 32.1999 9.65356C32.1246 6.29962 35.7161 4.0169 39.5027 4.01006C43.3543 4.00321 47.7093 7.20656 46.7677 11.5838C45.6995 16.5531 40.5092 18.7331 35.9009 18.3327C31.6624 17.9631 28.6188 16.0842 27.1842 13.5756C20.8881 15.9199 16.7454 14.3354 12.6027 10.6324C10.2507 10.3038 7.91571 10.3996 6.93311 12.7234C6.35109 14.1026 7.36792 15.6598 8.85038 15.5435C10.1445 15.4374 11.0313 13.9692 10.5622 12.4428C11.9454 13.8254 11.449 16.5394 9.5043 17.1451C6.50857 18.0794 3.83125 14.9959 4.76934 12.2238C5.55337 9.92735 8.73397 8.56866 11.6749 9.76307C11.2709 9.37292 10.8635 8.96908 10.4561 8.54471C7.98761 5.97793 4.27633 3.79787 0.5 5.59119C3.20129 0.0366745 9.70288 1.73076 12.3802 5.54671C16.0607 10.7898 19.2858 14.5749 25.1882 12.5455C20.6655 12.3162 17.1871 9.14021 15.9545 4.95806C17.6013 5.70756 19.7172 5.16682 21.1312 4.3215C21.72 6.96014 23.7879 9.86916 26.3283 10.9883C26.2838 10.6495 26.2598 10.3038 26.2667 9.95815C26.3865 5.18051 31.1626 0.108551 38.4071 0.00245667C45.3229 -0.0967941 54.2793 2.80881 56.3233 10.208C62.3695 3.54119 71.8086 1.19686 82.1618 1.15237C90.8375 1.11472 101.995 3.31532 109.928 8.45914C117.104 11.5119 125.899 18.4388 132.264 16.642C134.791 15.9268 136.842 14.5031 137.968 12.542C139.591 9.71858 139.033 7.12442 137.348 5.67333C135.616 4.17776 133.278 4.05797 131.422 5.17709C130.152 5.93685 129.244 7.54879 128.385 8.63711C126.776 10.6666 122.702 11.3237 120.148 7.80889C122.907 8.35989 124.773 7.00806 126.475 5.43376C129.693 2.4563 131.973 1.12157 135.784 2.62057C141.299 4.79036 141.922 13.3497 134.904 16.8782C139.591 17.2341 141.885 20.2458 140.827 24.7702C140.053 28.0762 140.306 31.8374 143.477 33.1961C139.17 33.528 137.413 29.2809 137.643 25.53C137.934 20.7215 136.414 17.4976 130.521 18.1C125.458 18.3327 119.648 14.8179 114.262 11.9089C115.731 13.3668 116.977 14.9856 117.919 16.7755C122.548 18.2129 126.177 20.3759 128.988 22.8126C132.915 26.2178 135.643 30.6396 136.866 33.8737C137.704 35.8621 138.194 37.9737 138.283 40.0511C138.951 41.2352 139.971 42.0498 141.231 41.7794C142.48 41.5159 143.162 39.7739 142.056 38.2167C145.363 39.1271 144.425 43.1175 141.47 43.2373C140.272 43.2818 139.06 42.6144 138.283 41.4063C138.095 45.8589 135.972 50.0034 131.364 52.2895C128.46 56.3929 127.344 61.0919 128.543 64.4903C130.272 69.3774 135.674 71.092 139.611 68.4739C142.604 66.4855 143.11 61.4546 139.361 59.5107C136.804 58.1863 133.784 60.1096 132.802 61.7558C132.5 58.881 135.352 56.5435 138.228 56.3792C138.8 55.1506 138.454 53.2649 138.858 51.8822C139.457 49.8322 141.95 48.8945 144.456 50.0547C142.984 50.2155 141.898 51.0917 141.782 53.2478C141.703 54.7331 141.265 55.907 140.05 56.5846C140.282 56.6565 140.515 56.7454 140.738 56.855C145.983 59.456 145.26 66.951 141.532 70.0482C140.039 71.2871 138.327 71.9647 136.595 72.153C140.128 73.871 142.922 76.0647 143.62 78.7582C145.089 84.4119 140.666 86.7597 140.57 90.5825C140.501 93.4436 141.953 94.7543 143.535 95.8495C140.902 96.6195 137.4 94.3573 137.711 90.8323L137.684 90.8255Z" fill="#B50000"/>
</svg>
