<svg width="36" height="36" viewBox="0 0 36 36" fill="none" xmlns="http://www.w3.org/2000/svg">
<path d="M18.0264 0.995117C18.1763 1.2084 18.3635 1.45073 18.5928 1.7002C19.2965 2.46586 20.4005 3.31654 21.9795 3.62695C24.569 4.31507 26.841 5.65859 28.5605 7.4375L28.5654 7.44336L28.5713 7.44922C30.2362 9.06242 31.5195 11.1605 32.2393 13.5508L32.375 14.0332C32.6855 15.6114 33.5352 16.715 34.2998 17.4189C34.549 17.6483 34.7918 17.8353 35.0049 17.9854C34.8257 18.1091 34.6267 18.2615 34.4199 18.4492C33.724 19.0807 32.9426 20.0933 32.4668 21.6533L32.375 21.9727C31.6395 24.746 30.1544 27.1546 28.1885 28.9121L28.1826 28.918L28.1758 28.9238C26.5058 30.5223 24.372 31.7302 21.9629 32.3711C20.3818 32.6808 19.2766 33.5335 18.5723 34.2998C18.3432 34.549 18.1557 34.7908 18.0059 35.0039C17.8824 34.8249 17.7311 34.6254 17.5439 34.4189C16.9129 33.7227 15.9015 32.94 14.3428 32.4639L14.0234 32.373C11.4736 31.6959 9.2316 30.3835 7.52148 28.6455L7.51562 28.6396L7.50977 28.6348L7.1748 28.3037C5.63484 26.7284 4.44689 24.7263 3.76367 22.4619L3.625 21.9727C3.16288 20.23 2.32233 19.1228 1.58008 18.4492C1.373 18.2613 1.17351 18.1092 0.994141 17.9854C1.20737 17.8352 1.45078 17.6485 1.7002 17.4189C2.46483 16.715 3.31448 15.6114 3.625 14.0332C4.35098 11.2955 5.80701 8.91259 7.73535 7.16113L7.74219 7.15527L7.74805 7.14941C9.32532 5.6154 11.3264 4.43341 13.5879 3.75586L14.0439 3.62695C15.7854 3.16447 16.8914 2.32375 17.5645 1.58105C17.7518 1.3743 17.9028 1.17429 18.0264 0.995117Z" stroke="#C29862"/>
<path fill-rule="evenodd" clip-rule="evenodd" d="M21.6655 12.1709C22.7801 12.1709 23.464 13.7668 23.92 14.6281L24.5027 14.2481C24.8066 14.0708 25.1866 14.1468 25.3893 14.4508C25.6173 14.6534 25.4653 15.1347 25.1866 15.3121L24.5786 15.692C24.8573 15.9707 25.2626 16.528 25.2626 17.7693C25.2879 19.1372 25.2879 20.5051 25.2879 21.873C25.2879 22.1264 25.0853 22.329 24.832 22.329H22.8054C22.5521 22.329 22.3494 22.1264 22.3494 21.873C22.3494 21.6957 22.3494 21.5184 22.3494 21.3157H13.6352C13.6352 21.5184 13.6352 21.6957 13.6352 21.873C13.6352 22.1264 13.4326 22.329 13.1793 22.329H11.1527C10.8994 22.329 10.6967 22.1264 10.6967 21.873C10.6967 20.5051 10.6967 19.1372 10.6967 17.7693C10.722 16.528 11.1274 15.9707 11.3807 15.692L10.7727 15.3121C10.4941 15.1347 10.4181 14.7294 10.5954 14.4508C10.8487 14.1975 11.102 14.0201 11.4567 14.2481L12.0646 14.6281C12.5206 13.7668 13.2046 12.1709 14.3192 12.1709H21.6655ZM19.5629 20.3025C19.6896 20.3025 19.7909 20.2265 19.7909 20.0998V19.3399C19.7909 19.2385 19.6896 19.1372 19.5629 19.1372H16.4217C16.2951 19.1372 16.1938 19.2385 16.1938 19.3399V20.0998C16.1938 20.2265 16.2951 20.3025 16.4217 20.3025H19.5629ZM23.0081 14.7294C22.7294 14.1975 22.4761 13.6402 22.1974 13.1082H13.7872C13.5086 13.6402 13.2299 14.1975 12.9766 14.7294C16.2698 15.2867 19.7149 15.2867 23.0081 14.7294ZM11.634 18.0226C12.5713 18.1999 13.4832 18.3266 14.3699 18.5292C14.5978 18.6306 14.7498 18.8332 14.8765 19.0612C14.9272 19.1625 14.9272 19.3145 14.9018 19.4665C14.0152 19.3399 13.1539 19.1879 12.2926 19.0359C12.014 18.9345 11.786 18.7319 11.634 18.4532C11.6087 18.2506 11.6087 18.0986 11.634 18.0226ZM24.3253 18.0226C23.4134 18.1999 22.5014 18.3266 21.5895 18.5292C21.3868 18.6306 21.2095 18.8332 21.0828 19.0612C21.0575 19.1625 21.0575 19.3145 21.0828 19.4665C21.9441 19.3399 22.8307 19.1879 23.692 19.0359C23.9707 18.9345 24.1987 18.7319 24.3507 18.4532C24.376 18.2506 24.376 18.0986 24.3253 18.0226Z" fill="#C29862"/>
</svg>
