<svg width="36" height="36" viewBox="0 0 36 36" fill="none" xmlns="http://www.w3.org/2000/svg">
<path d="M18.0264 0.995117C18.1763 1.2084 18.3635 1.45073 18.5928 1.7002C19.2965 2.46586 20.4005 3.31654 21.9795 3.62695C24.569 4.31507 26.841 5.65859 28.5605 7.4375L28.5654 7.44336L28.5713 7.44922C30.2362 9.06242 31.5195 11.1605 32.2393 13.5508L32.375 14.0332C32.6855 15.6114 33.5352 16.715 34.2998 17.4189C34.549 17.6483 34.7918 17.8353 35.0049 17.9854C34.8257 18.1091 34.6267 18.2615 34.4199 18.4492C33.724 19.0807 32.9426 20.0933 32.4668 21.6533L32.375 21.9727C31.6395 24.746 30.1544 27.1546 28.1885 28.9121L28.1826 28.918L28.1758 28.9238C26.5058 30.5223 24.372 31.7302 21.9629 32.3711C20.3818 32.6808 19.2766 33.5335 18.5723 34.2998C18.3432 34.549 18.1557 34.7908 18.0059 35.0039C17.8824 34.8249 17.7311 34.6254 17.5439 34.4189C16.9129 33.7227 15.9015 32.94 14.3428 32.4639L14.0234 32.373C11.4736 31.6959 9.2316 30.3835 7.52148 28.6455L7.51562 28.6396L7.50977 28.6348L7.1748 28.3037C5.63484 26.7284 4.44689 24.7263 3.76367 22.4619L3.625 21.9727C3.16288 20.23 2.32233 19.1228 1.58008 18.4492C1.373 18.2613 1.17351 18.1092 0.994141 17.9854C1.20737 17.8352 1.45078 17.6485 1.7002 17.4189C2.46483 16.715 3.31448 15.6114 3.625 14.0332C4.35098 11.2955 5.80701 8.91259 7.73535 7.16113L7.74219 7.15527L7.74805 7.14941C9.32532 5.6154 11.3264 4.43341 13.5879 3.75586L14.0439 3.62695C15.7854 3.16447 16.8914 2.32375 17.5645 1.58105C17.7518 1.3743 17.9028 1.17429 18.0264 0.995117Z" stroke="#C29862"/>
<path d="M21.689 15.9107H21.5416C20.2638 15.9107 19.0679 15.4112 18.1669 14.4956C17.8884 14.2125 17.4461 14.1792 17.1349 14.3957C15.6933 15.278 14.481 16.51 13.6128 17.975C13.3998 18.3413 13.4981 18.8074 13.8258 19.0738C14.2025 19.3735 14.7759 19.2569 15.0216 18.8407C15.4967 18.0416 16.0864 17.3257 16.7745 16.7098V18.7075C16.2503 20.5388 15.5131 22.3036 14.5793 23.9684L14.4155 24.2514C14.1862 24.6509 14.3336 25.167 14.7268 25.3835C14.8578 25.4501 14.9889 25.5 15.1363 25.5C15.4148 25.5 15.6933 25.3502 15.8407 25.0838L16.0045 24.8008C16.7745 23.419 17.4134 21.9872 17.9212 20.5222C18.9041 21.8208 19.6413 23.2858 20.0836 24.884C20.1983 25.3169 20.6733 25.5832 21.0993 25.4501C21.5252 25.3335 21.7873 24.8507 21.6562 24.4179C21.0337 22.187 19.887 20.2725 18.4127 18.5078V16.7431C19.3628 17.2925 20.4276 17.5755 21.5416 17.5755C21.9675 17.5755 22.377 17.3923 22.4753 16.9262C22.6064 16.4101 22.1968 15.9107 21.689 15.9107Z" fill="#C29862"/>
<path d="M17.5936 13.8296C18.4983 13.8296 19.2317 13.0843 19.2317 12.1648C19.2317 11.2454 18.4983 10.5 17.5936 10.5C16.6888 10.5 15.9554 11.2454 15.9554 12.1648C15.9554 13.0843 16.6888 13.8296 17.5936 13.8296Z" fill="#C29862"/>
</svg>
