<svg width="46" height="46" viewBox="0 0 46 46" fill="none" xmlns="http://www.w3.org/2000/svg">
<path d="M23.4668 2.79297L23.4678 2.7959C23.4693 2.79924 23.4725 2.80508 23.4766 2.81348C23.4847 2.83025 23.4982 2.85659 23.5166 2.8916C23.5536 2.96193 23.6109 3.06676 23.6904 3.19531C23.8498 3.45283 24.0954 3.80466 24.4355 4.1748C25.0738 4.86921 26.0345 5.61681 27.3809 5.94238L27.6553 6.00195L27.6729 6.00488L27.6895 6.00977C30.7422 6.82044 33.4333 8.40523 35.4805 10.5186L35.8711 10.9111C37.6631 12.7741 39.0386 15.1178 39.832 17.7529L39.9932 18.3213L40.001 18.3564C40.2859 19.8488 41.0861 20.8969 41.8262 21.5781C42.1962 21.9187 42.5483 22.1647 42.8057 22.3242C42.9339 22.4037 43.0382 22.4611 43.1084 22.498C43.1434 22.5164 43.1697 22.5299 43.1865 22.5381C43.1948 22.5421 43.2007 22.5453 43.2041 22.5469L43.207 22.5479H43.2061L44.3311 23.0576L43.1699 23.4727V23.4736C43.168 23.4744 43.1633 23.4751 43.1572 23.4775C43.1446 23.4826 43.1235 23.4919 43.0947 23.5049C43.0366 23.531 42.9476 23.5738 42.8359 23.6367C42.6125 23.7626 42.2986 23.9686 41.9541 24.2812C41.3111 24.8648 40.5522 25.8296 40.083 27.3691L39.9932 27.6846C39.1249 30.9585 37.368 33.817 35.0244 35.9121L35.0234 35.9111C33.0362 37.8092 30.5089 39.2355 27.667 39.9902L27.6504 39.9951L27.6328 39.998C26.1415 40.2831 25.0939 41.0845 24.4131 41.8252C24.0729 42.1953 23.8274 42.5472 23.668 42.8047C23.5884 42.9332 23.5301 43.0381 23.4932 43.1084L23.4453 43.2041C23.4447 43.2054 23.4446 43.2065 23.4443 43.207L22.9346 44.333L22.5176 43.168V43.167C22.5167 43.1647 22.5153 43.1614 22.5137 43.1572C22.5086 43.1446 22.4993 43.1236 22.4863 43.0947C22.4603 43.0366 22.4173 42.9477 22.3545 42.8359C22.2287 42.6123 22.0235 42.297 21.7109 41.9521C21.1279 41.3088 20.1638 40.5495 18.626 40.0801L18.3105 39.9902C15.2999 39.1908 12.6409 37.639 10.6045 35.5693V35.5684C8.58189 33.638 7.03367 31.1217 6.1709 28.2617L6.00684 27.6846C5.54951 25.96 4.7317 24.9036 4.0459 24.2812C3.70136 23.9686 3.38746 23.7626 3.16406 23.6367C3.0524 23.5738 2.96336 23.531 2.90527 23.5049C2.87646 23.4919 2.85544 23.4826 2.84277 23.4775C2.83668 23.4751 2.83204 23.4744 2.83008 23.4736V23.4727L1.66895 23.0576L2.79395 22.5479H2.79297C2.79348 22.5476 2.79466 22.5475 2.7959 22.5469C2.79926 22.5453 2.80521 22.5421 2.81348 22.5381C2.83027 22.5299 2.85663 22.5164 2.8916 22.498C2.9618 22.4611 3.06606 22.4037 3.19434 22.3242C3.45172 22.1647 3.80384 21.9187 4.17383 21.5781C4.91389 20.8969 5.71405 19.8488 5.99902 18.3564L6.00684 18.3213C6.86388 15.0895 8.58735 12.2623 10.8857 10.1748C12.8864 8.23337 15.448 6.77593 18.333 6.00977L18.6484 5.91992C20.1863 5.45056 21.1503 4.69121 21.7334 4.04785C22.0459 3.70296 22.2521 3.38769 22.3779 3.16406C22.4407 3.0525 22.4837 2.96335 22.5098 2.90527C22.5226 2.87663 22.5311 2.8554 22.5361 2.84277L22.541 2.83008V2.83105L22.957 1.66699L23.4668 2.79297Z" stroke="#B50000"/>
<path d="M22.8438 15.5C20.1687 15.5 18 17.6284 18 20.255C18 23.3049 21.4316 25.6858 21.996 29.0941C21.996 29.0941 22.0678 29.8159 22.1371 30.0471C22.2215 30.328 22.5301 30.5 22.8438 30.5C23.1575 30.5 23.4661 30.3287 23.5505 30.0471C23.6198 29.8166 23.6916 29.0941 23.6916 29.0941C24.256 25.6858 27.6876 23.3055 27.6876 20.255C27.6876 17.629 25.5189 15.5 22.8438 15.5ZM22.8438 23.6255C21.031 23.6255 19.5621 22.1553 19.5621 20.3438C19.5621 18.531 21.0304 17.0621 22.8438 17.0621C24.6572 17.0621 26.1255 18.5304 26.1255 20.3438C26.1255 22.156 24.6566 23.6255 22.8438 23.6255Z" fill="#B50000"/>
</svg>
