<svg width="182" height="36" viewBox="0 0 182 36" fill="none" xmlns="http://www.w3.org/2000/svg">
<path d="M2.04053 25.1341C2.59858 24.7323 3.21144 24.4802 3.8791 24.3778C4.54676 24.2753 5.2192 24.3056 5.89643 24.4687C6.57365 24.6317 7.22496 24.9269 7.85036 25.3542C8.46859 25.7716 9.01088 26.3041 9.47723 26.9518C9.94358 27.5996 10.2802 28.2878 10.4871 29.0164C10.6867 29.7351 10.7565 30.4414 10.6963 31.1354C10.6361 31.8294 10.4515 32.4767 10.1426 33.0774C9.83366 33.6781 9.40017 34.1793 8.84212 34.5811C8.28407 34.9829 7.67122 35.235 7.00355 35.3374C6.33589 35.4398 5.66345 35.4095 4.98623 35.2465C4.30901 35.0834 3.66128 34.7932 3.04306 34.3759C2.41766 33.9486 1.87178 33.4111 1.40542 32.7633C0.939071 32.1156 0.60605 31.4324 0.406363 30.7137C0.199501 29.985 0.12617 29.2737 0.186371 28.5798C0.246572 27.8858 0.431136 27.2385 0.740064 26.6378C1.04899 26.0371 1.48248 25.5359 2.04053 25.1341ZM1.84679 26.5672C1.53786 26.7897 1.31763 27.0617 1.18609 27.3834C1.04737 27.6951 0.982988 28.0365 0.992947 28.4076C1.01287 28.7715 1.09996 29.1552 1.25421 29.5586C1.40129 29.952 1.61115 30.338 1.88378 30.7167C2.32861 31.3345 2.86592 31.8707 3.4957 32.3251C4.12549 32.7795 4.77341 33.1225 5.43947 33.3541C6.1155 33.5785 6.7718 33.681 7.40836 33.6615C8.04493 33.642 8.58743 33.4708 9.03587 33.1479C9.30493 32.9542 9.51101 32.715 9.65411 32.4304C9.80001 32.1287 9.87654 31.7937 9.88373 31.4254C9.89091 31.0571 9.82235 30.6676 9.67807 30.2571C9.53378 29.8465 9.30738 29.427 8.99887 28.9985C8.51817 28.3308 7.94937 27.7719 7.29248 27.3219C6.63559 26.8719 5.97133 26.5482 5.29968 26.3509C4.63083 26.1364 3.99028 26.0453 3.37803 26.0776C2.76577 26.1099 2.25536 26.2731 1.84679 26.5672Z" fill="#C29862"/>
<path d="M8.59718 21.941L8.2795 22.1275L7.90648 21.4922L13.7835 18.0418L14.3389 19.4244C13.9523 19.3238 13.5754 19.3244 13.208 19.4262C12.8343 19.5174 12.4093 19.7029 11.9328 19.9827L10.1855 21.0085L15.4078 29.9034L13.8195 30.8359L8.59718 21.941Z" fill="#C29862"/>
<path d="M15.1685 17.265L16.826 16.4618L18.9143 20.7714L23.224 18.6831L21.1357 14.3735L22.7932 13.5703L27.6123 23.5156L25.9548 24.3188L23.5452 19.3462L19.2356 21.4344L21.6451 26.4071L19.9876 27.2103L15.1685 17.265Z" fill="#C29862"/>
<path d="M26.302 12.0539L28.024 11.4001L29.9854 16.566L33.3837 12.0249L32.5011 9.70023L34.223 9.04643L38.1458 19.3781L36.4238 20.0319L33.6779 12.7997L30.2796 17.3408L31.9468 21.7318L30.2248 22.3856L26.302 12.0539Z" fill="#C29862"/>
<path d="M40.1899 18.7134L37.2368 8.83061L36.8838 8.93608L36.6729 8.23016L40.926 6.95927C41.2554 6.86083 41.5743 6.7912 41.8824 6.75037C42.1989 6.69426 42.4847 6.68575 42.7399 6.72484C42.9915 6.75216 43.2067 6.82885 43.3853 6.95489C43.5605 7.06917 43.6814 7.23808 43.7482 7.46162C43.8396 7.76751 43.7793 8.0803 43.5672 8.39998C43.367 8.71615 43.132 9.02345 42.8623 9.3219C42.5891 9.60858 42.3342 9.87058 42.0975 10.1079C41.8727 10.3417 41.7831 10.5351 41.8288 10.688C41.8639 10.8057 41.9949 10.9011 42.2219 10.9743C42.4453 11.0357 42.7192 11.0948 43.0438 11.1516C43.3684 11.2084 43.7176 11.2835 44.0915 11.3768C44.4772 11.4666 44.8464 11.587 45.199 11.7379C45.5517 11.8888 45.8696 12.095 46.1528 12.3564C46.4324 12.6061 46.632 12.9309 46.7516 13.3309C46.9168 13.8839 46.9474 14.3938 46.8434 14.8606C46.7476 15.3121 46.5502 15.7235 46.251 16.0949C45.9484 16.4545 45.5576 16.7763 45.0786 17.0604C44.6078 17.3292 44.0783 17.5515 43.49 17.7273L40.1899 18.7134ZM41.7437 17.4802L43.2085 17.0425C43.5262 16.9476 43.8562 16.8297 44.1986 16.689C44.5375 16.5364 44.8364 16.3574 45.0954 16.1518C45.3662 15.9428 45.5681 15.6966 45.7014 15.4133C45.8346 15.13 45.8467 14.806 45.7377 14.4413C45.6287 14.0765 45.4432 13.7988 45.1811 13.6079C44.9155 13.4054 44.6117 13.2462 44.2695 13.1306C43.9274 13.015 43.5688 12.9299 43.1936 12.8754C42.8268 12.8056 42.4758 12.7246 42.1407 12.6325C41.8056 12.5404 41.5123 12.4166 41.2607 12.2611C41.0057 12.0938 40.8325 11.8572 40.7411 11.5513C40.6602 11.2807 40.6975 11.0197 40.8531 10.7681C41.0203 10.5131 41.2088 10.2645 41.4184 10.0225C41.6363 9.76514 41.8289 9.50896 41.9962 9.25391C42.1599 8.98711 42.1979 8.70664 42.11 8.41251C42.0783 8.30662 41.9996 8.21479 41.8739 8.13703C41.7564 8.04399 41.613 7.9715 41.4436 7.91956C41.2861 7.86411 41.1162 7.83159 40.9339 7.82198C40.7634 7.80886 40.6016 7.82514 40.4487 7.87085L39.0016 8.30327L41.7437 17.4802Z" fill="#C29862"/>
<path d="M50.6286 4.11627C51.2992 3.96393 51.9618 3.9708 52.6166 4.13686C53.2713 4.30292 53.8787 4.59308 54.4387 5.00732C54.9987 5.42156 55.4833 5.94737 55.8926 6.58474C56.2991 7.21015 56.5908 7.91201 56.7676 8.69033C56.9444 9.46865 56.986 10.2336 56.8923 10.9853C56.7959 11.7249 56.5846 12.4025 56.2586 13.018C55.9325 13.6336 55.5101 14.1577 54.9913 14.5903C54.4726 15.023 53.878 15.3155 53.2074 15.4678C52.5369 15.6201 51.8742 15.6133 51.2195 15.4472C50.5647 15.2811 49.9574 14.991 49.3973 14.5768C48.8373 14.1625 48.3541 13.6427 47.9476 13.0173C47.5383 12.3799 47.2453 11.6721 47.0685 10.8937C46.8917 10.1154 46.8515 9.35643 46.9479 8.61677C47.0415 7.86514 47.2514 7.18156 47.5775 6.56602C47.9036 5.95048 48.326 5.42639 48.8447 4.99374C49.3634 4.56109 49.9581 4.2686 50.6286 4.11627ZM49.8913 5.3604C49.5201 5.44473 49.2112 5.60934 48.9646 5.85424C48.7153 6.08717 48.5229 6.37643 48.3874 6.72203C48.2638 7.06491 48.1943 7.45215 48.1791 7.88375C48.1611 8.30338 48.2038 8.74071 48.3071 9.19573C48.4758 9.93813 48.7614 10.6413 49.1641 11.3054C49.5668 11.9694 50.0297 12.538 50.5527 13.011C51.0877 13.4813 51.6521 13.8316 52.2458 14.0619C52.8396 14.2921 53.4059 14.3461 53.9447 14.2237C54.2681 14.1502 54.5511 14.0104 54.7938 13.8041C55.0459 13.5832 55.247 13.3045 55.3972 12.9682C55.5475 12.6318 55.6362 12.2465 55.6635 11.8122C55.6908 11.3778 55.6459 10.9032 55.5289 10.3883C55.3467 9.58607 55.0409 8.84964 54.6115 8.17906C54.1821 7.50848 53.6967 6.95138 53.1552 6.50775C52.6229 6.04943 52.0686 5.71574 51.4923 5.50669C50.9159 5.29763 50.3822 5.24887 49.8913 5.3604Z" fill="#C29862"/>
<path d="M62.8375 7.98684L71.9706 6.80397L72.0653 7.53463L62.9321 8.71749L62.8375 7.98684Z" fill="#C29862"/>
<path d="M78.9441 1.07117L78.5761 1.08721L78.544 0.351156L85.1685 0.0623478L85.0119 1.54409C84.7174 1.27424 84.384 1.09826 84.0117 1.01617C83.6389 0.921802 83.1765 0.886653 82.6244 0.910721L80.7843 0.990945L81.2014 10.5597L82.5447 10.5011C82.876 10.4867 83.2248 10.4531 83.5912 10.4002C83.9571 10.3351 84.2907 10.2345 84.5921 10.0985C84.9057 9.96188 85.1617 9.7725 85.3601 9.53032C85.5584 9.28815 85.6494 8.97691 85.6328 8.59661C85.6162 8.21632 85.5103 7.90137 85.315 7.65177C85.1193 7.3899 84.876 7.16698 84.5853 6.983C84.294 6.78675 83.9735 6.62251 83.6236 6.49027C83.2854 6.34523 82.9656 6.19939 82.6642 6.05275C82.3628 5.90611 82.0977 5.74559 81.8689 5.5712C81.6395 5.38455 81.4944 5.15734 81.4336 4.8896L82.4495 3.66537C82.4954 3.87232 82.6325 4.05685 82.8608 4.21897C83.1009 4.36829 83.378 4.52214 83.6921 4.68051C84.0186 4.83835 84.364 5.00766 84.7283 5.18843C85.0926 5.3692 85.4276 5.58198 85.7333 5.82677C86.0506 6.05875 86.3147 6.33607 86.5254 6.65874C86.7479 6.96861 86.8685 7.33823 86.8872 7.76759C86.9123 8.34417 86.8174 8.84609 86.6025 9.27335C86.3994 9.68781 86.1074 10.0385 85.7266 10.3255C85.3453 10.6003 84.8876 10.8169 84.3537 10.9754C83.8316 11.121 83.2638 11.2072 82.6504 11.234L79.3934 11.376L78.9441 1.07117Z" fill="#C29862"/>
<path d="M94.0998 9.33214C93.704 9.62303 93.333 9.89574 92.9867 10.1503C92.6404 10.4048 92.2944 10.6286 91.9487 10.8217C91.6154 11.0027 91.264 11.1467 90.8946 11.2536C90.5374 11.3607 90.1562 11.4123 89.751 11.4083C89.3949 11.4049 89.0886 11.3344 88.8321 11.1968C88.5755 11.0593 88.3624 10.873 88.1928 10.638C88.0232 10.4031 87.8968 10.1317 87.8139 9.8239C87.731 9.50382 87.6913 9.16574 87.6947 8.80966C87.7004 8.22028 87.7919 7.65015 87.9692 7.09927C88.1465 6.53611 88.3978 5.95525 88.7228 5.35668C89.048 4.74584 89.4349 4.10489 89.8835 3.43384C90.332 2.76279 90.8366 2.0186 91.3971 1.20127L90.9851 0L93.0479 0.019966L96.7535 11.1077L94.6722 11.0876L94.0998 9.33214ZM91.6838 2.03294C91.2104 2.72831 90.8174 3.36306 90.5049 3.93719C90.2047 4.49916 89.9602 5.01869 89.7714 5.49577C89.5827 5.96058 89.4496 6.38909 89.3722 6.78129C89.2948 7.16122 89.2545 7.52309 89.2511 7.86689C89.2483 8.16158 89.2762 8.44429 89.335 8.71501C89.3938 8.98574 89.4775 9.21987 89.5861 9.41739C89.6947 9.61492 89.8282 9.77585 89.9867 9.90019C90.1575 10.0124 90.3473 10.0695 90.556 10.0715C91.1577 10.0773 91.7115 9.94758 92.2176 9.68232C92.7236 9.41706 93.2614 9.04773 93.8308 8.57433L91.6838 2.03294Z" fill="#C29862"/>
<path d="M98.7282 0.126367L100.566 0.251187L100.241 5.0291L105.019 5.35363L105.344 0.575719L107.181 0.700539L106.433 11.7265L104.595 11.6017L104.969 6.0887L100.191 5.76416L99.817 11.2771L97.9793 11.1523L98.7282 0.126367Z" fill="#C29862"/>
<path d="M110.123 0.972576L111.949 1.21363L111.322 5.96137L116.07 6.58811L116.697 1.84038L118.523 2.08143L117.076 13.0377L115.25 12.7967L115.974 7.31853L111.226 6.69179L110.503 12.1699L108.677 11.9289L110.123 0.972576Z" fill="#C29862"/>
<path d="M125.9 3.12967C126.574 3.26506 127.176 3.54247 127.706 3.96191C128.235 4.38135 128.671 4.89463 129.012 5.50176C129.354 6.10888 129.581 6.78696 129.693 7.53599C129.808 8.27298 129.787 9.03274 129.63 9.81527C129.473 10.5978 129.198 11.3128 128.805 11.9603C128.414 12.5957 127.944 13.1276 127.395 13.5558C126.845 13.984 126.245 14.2894 125.595 14.4719C124.945 14.6544 124.282 14.678 123.608 14.5426C122.934 14.4072 122.332 14.1298 121.803 13.7103C121.273 13.2909 120.838 12.7776 120.496 12.1705C120.155 11.5634 119.927 10.8913 119.812 10.1543C119.699 9.4053 119.721 8.63952 119.878 7.85699C120.036 7.07446 120.31 6.36547 120.7 5.73002C121.093 5.08253 121.564 4.54467 122.114 4.11645C122.663 3.68823 123.263 3.38286 123.913 3.20036C124.564 3.01785 125.226 2.99428 125.9 3.12967ZM124.718 3.96317C124.345 3.88823 123.996 3.91203 123.671 4.03459C123.348 4.14512 123.054 4.33031 122.789 4.59019C122.536 4.85248 122.314 5.17741 122.123 5.56497C121.935 5.9405 121.795 6.357 121.703 6.81448C121.554 7.56089 121.526 8.31945 121.622 9.09013C121.718 9.86082 121.908 10.569 122.191 11.2146C122.487 11.8626 122.859 12.4132 123.306 12.8663C123.754 13.3194 124.248 13.6003 124.79 13.7091C125.115 13.7744 125.431 13.7626 125.737 13.6737C126.057 13.5752 126.354 13.4033 126.629 13.1579C126.904 12.9124 127.143 12.5972 127.345 12.212C127.548 11.8269 127.701 11.3755 127.805 10.8578C127.967 10.0512 127.989 9.25408 127.872 8.46652C127.755 7.67896 127.54 6.97199 127.227 6.34562C126.929 5.70963 126.56 5.17834 126.119 4.75175C125.679 4.32515 125.212 4.0623 124.718 3.96317Z" fill="#C29862"/>
<path d="M133.214 5.79176L132.858 5.69644L133.049 4.98478L139.81 6.79591L139.215 8.16204C139.015 7.81616 138.75 7.54811 138.42 7.3579C138.092 7.15583 137.662 6.9833 137.128 6.84031L134.993 6.26838L133.945 10.1825L137.147 11.0404L136.957 11.7521L133.754 10.8942L132.515 15.52L134.561 16.0681C135.095 16.2111 135.589 16.2864 136.045 16.294C136.5 16.3017 136.952 16.1812 137.4 15.9325L137.217 17.5424L130.189 15.6597L130.38 14.9481L130.736 15.0434L133.214 5.79176Z" fill="#C29862"/>
<path d="M150.937 10.5703L150.888 21.5733L151.578 21.8329C151.088 22.8555 150.495 23.6624 149.8 24.2536C149.117 24.8491 148.3 25.3094 147.351 25.6343L146.793 24.4005C147.74 24.2192 148.529 23.9523 149.161 23.5996C149.788 23.2584 150.248 22.802 150.542 22.2303L144.337 19.8937C143.992 19.7639 143.695 19.6651 143.445 19.5972C143.206 19.5336 142.99 19.4981 142.796 19.4907C142.609 19.4991 142.437 19.5391 142.278 19.6107C142.12 19.6824 141.951 19.7827 141.771 19.9118L142.011 18.2307L142.873 18.5552C143.555 17.8936 144.174 17.2606 144.729 16.6563C145.285 16.052 145.804 15.4404 146.286 14.8217C146.78 14.2072 147.247 13.5762 147.688 12.9286C148.14 12.2854 148.601 11.5998 149.072 10.8717L149.093 9.8758L150.937 10.5703ZM149.06 12.2644C148.659 12.8746 148.26 13.4461 147.863 13.9787C147.477 14.5157 147.068 15.0441 146.636 15.5637C146.209 16.0719 145.75 16.5944 145.259 17.1313C144.768 17.6681 144.231 18.2401 143.648 18.8473L148.992 20.8593L149.06 12.2644Z" fill="#C29862"/>
<path d="M157.289 13.087L158.951 13.8804L156.571 18.8672L162.202 18.1872L163.273 15.9432L164.935 16.7366L160.175 26.7101L158.513 25.9167L161.845 18.9353L156.214 19.6152L154.191 23.8539L152.528 23.0605L157.289 13.087Z" fill="#C29862"/>
<path d="M161.848 27.6068L167.099 18.7286L166.782 18.5411L167.157 17.9069L170.977 20.1665C171.273 20.3416 171.541 20.5283 171.78 20.7269C172.036 20.9211 172.237 21.1252 172.381 21.3391C172.532 21.5424 172.622 21.7524 172.65 21.9691C172.685 22.1753 172.644 22.3788 172.525 22.5796C172.362 22.8544 172.092 23.0225 171.713 23.0838C171.345 23.1515 170.96 23.1876 170.558 23.1923C170.162 23.1863 169.796 23.1771 169.461 23.1645C169.137 23.1581 168.934 23.2236 168.853 23.361C168.79 23.4667 168.809 23.6277 168.91 23.844C169.016 24.0497 169.159 24.291 169.337 24.5678C169.516 24.8446 169.698 25.152 169.883 25.4899C170.079 25.834 170.242 26.1868 170.37 26.5482C170.499 26.9096 170.564 27.283 170.564 27.6684C170.57 28.0432 170.467 28.4103 170.255 28.7696C169.961 29.2664 169.608 29.635 169.194 29.8756C168.798 30.1119 168.362 30.2463 167.886 30.2788C167.416 30.3007 166.915 30.2323 166.381 30.0735C165.864 29.9105 165.341 29.6726 164.813 29.3601L161.848 27.6068ZM163.809 27.9102L165.124 28.6885C165.41 28.8572 165.72 29.0195 166.056 29.1753C166.398 29.3206 166.733 29.4185 167.059 29.4691C167.397 29.5259 167.715 29.507 168.013 29.4125C168.312 29.3179 168.558 29.1068 168.751 28.7792C168.945 28.4515 169.023 28.1267 168.985 27.8047C168.954 27.4722 168.864 27.1411 168.717 26.8114C168.569 26.4817 168.388 26.1606 168.174 25.8482C167.976 25.5315 167.797 25.2188 167.637 24.9103C167.477 24.6017 167.369 24.3023 167.312 24.0121C167.262 23.7112 167.318 23.4234 167.481 23.1486C167.624 22.9055 167.841 22.7557 168.132 22.6991C168.432 22.6487 168.743 22.6183 169.063 22.6079C169.4 22.5931 169.719 22.5605 170.019 22.5102C170.326 22.4493 170.558 22.2867 170.714 22.0225C170.771 21.9274 170.785 21.8072 170.756 21.6621C170.745 21.5127 170.701 21.3581 170.624 21.1986C170.558 21.0453 170.466 20.8984 170.349 20.7581C170.243 20.624 170.121 20.5163 169.984 20.435L168.684 19.6662L163.809 27.9102Z" fill="#C29862"/>
<path d="M180.013 25.7966C180.565 26.2062 180.992 26.7135 181.292 27.3184C181.593 27.9234 181.768 28.5733 181.819 29.268C181.869 29.9627 181.786 30.673 181.569 31.3986C181.359 32.1144 181.017 32.7929 180.541 33.4341C180.066 34.0752 179.512 34.605 178.881 35.0235C178.257 35.4321 177.605 35.7132 176.926 35.8667C176.246 36.0203 175.574 36.0411 174.907 35.9294C174.241 35.8176 173.632 35.5569 173.08 35.1473C172.527 34.7378 172.101 34.2305 171.8 33.6255C171.5 33.0206 171.324 32.3707 171.274 31.676C171.224 30.9812 171.303 30.2759 171.513 29.5601C171.73 28.8345 172.076 28.1511 172.552 27.5099C173.027 26.8688 173.577 26.3439 174.201 25.9353C174.832 25.5168 175.487 25.2308 176.167 25.0772C176.846 24.9237 177.519 24.9028 178.185 25.0146C178.851 25.1264 179.461 25.3871 180.013 25.7966ZM178.589 26.0476C178.283 25.8208 177.957 25.6937 177.611 25.6661C177.271 25.6287 176.927 25.6711 176.576 25.7933C176.235 25.9229 175.896 26.1225 175.559 26.392C175.229 26.6517 174.925 26.9689 174.647 27.3437C174.193 27.9553 173.846 28.6301 173.604 29.3682C173.363 30.1063 173.233 30.8278 173.215 31.5327C173.206 32.245 173.308 32.9014 173.52 33.5019C173.732 34.1025 174.06 34.5673 174.504 34.8964C174.77 35.0939 175.061 35.2175 175.375 35.2674C175.707 35.3147 176.05 35.2858 176.403 35.1807C176.756 35.0756 177.106 34.892 177.453 34.6298C177.801 34.3675 178.131 34.0244 178.446 33.6002C178.936 32.9394 179.296 32.2276 179.525 31.4651C179.754 30.7025 179.86 29.9713 179.844 29.2714C179.845 28.569 179.737 27.9311 179.521 27.3576C179.304 26.7841 178.993 26.3474 178.589 26.0476Z" fill="#C29862"/>
</svg>
