<svg width="56" height="56" viewBox="0 0 56 56" fill="none" xmlns="http://www.w3.org/2000/svg">
<path d="M11.1458 45.1056C8.21298 42.3126 6.00697 38.604 4.88647 34.3785C3.53151 29.2689 0 28.0041 0 28.0041C0 28.0041 4.01741 26.1828 4.88647 21.6296C6.05292 17.2309 8.39575 13.3923 11.5103 10.5636C14.2256 7.92277 17.7116 5.93477 21.6461 4.88995C26.7522 3.53402 28.016 0 28.016 0C28.016 0 29.836 4.02026 34.386 4.88995C38.5485 5.99532 42.209 8.15635 44.986 11.0292C47.8531 13.8073 50.0099 17.4677 51.1135 21.6296C51.9826 26.1828 56 28.0041 56 28.0041C56 28.0041 52.4685 29.2689 51.1135 34.3785C49.9318 38.8348 47.5428 42.7161 44.3672 45.555C41.67 48.1367 38.2297 50.0809 34.3543 51.1101C29.8043 51.9797 27.9843 56 27.9843 56C27.9843 56 26.7204 52.466 21.6144 51.1101C17.5172 50.022 13.9064 47.9113 11.1458 45.1056Z" fill="#B50000"/>
<path d="M29.6044 20.8891C30.144 24.5713 32.9737 27.4522 36.5627 27.9731L36.7496 28.0002L36.5627 28.0273C32.9737 28.5483 30.144 31.4291 29.6044 35.1113M36.303 28.0002L22.5273 28.0002" stroke="white"/>
<circle cx="21.25" cy="27.9999" r="1.5" stroke="white"/>
</svg>
