<svg width="14" height="10" viewBox="0 0 14 10" fill="none" xmlns="http://www.w3.org/2000/svg">
<path d="M7.47619 1.90632C7.91799 1.82025 8.26238 1.73497 8.6128 1.68918C9.81881 1.53007 10.7826 2.24624 10.6895 3.21548C10.5796 4.36238 9.099 5.43032 7.73782 4.80851C6.79164 4.3773 6.12602 3.5603 5.21633 3.08243C3.48792 2.17636 1.34572 3.07967 0.974609 4.87326C1.12374 4.76903 1.24831 4.67822 1.37762 4.59255C2.12803 4.08839 2.81681 4.01614 3.56335 4.51951C5.00206 5.48964 5.8719 7.02863 7.07361 8.20933C7.97808 9.09866 9.33789 9.65418 10.6765 9.46204C13.2288 9.09945 14.2213 6.55208 13.9235 4.4441C13.6499 2.49884 12.1931 0.557428 9.88217 0.500822C8.78435 0.473975 8.12574 1.10803 7.47705 1.90671V1.90632" fill="white"/>
</svg>
