<svg width="14" height="10" viewBox="0 0 14 10" fill="none" xmlns="http://www.w3.org/2000/svg">
<path d="M7.47303 1.90632C7.03123 1.82025 6.68684 1.73497 6.33642 1.68918C5.13041 1.53007 4.16664 2.24624 4.25974 3.21548C4.36965 4.36238 5.85022 5.43032 7.2114 4.80851C8.15758 4.3773 8.8232 3.5603 9.73289 3.08243C11.4613 2.17636 13.6035 3.07967 13.9746 4.87326C13.8255 4.76903 13.7009 4.67822 13.5716 4.59255C12.8212 4.08839 12.1324 4.01614 11.3859 4.51951C9.94716 5.48964 9.07732 7.02863 7.87561 8.20933C6.97114 9.09866 5.61133 9.65418 4.27267 9.46204C1.72046 9.09945 0.727933 6.55208 1.02576 4.4441C1.29927 2.49884 2.75611 0.557428 5.06705 0.500822C6.16487 0.473975 6.82347 1.10803 7.47217 1.90671V1.90632" fill="white"/>
</svg>
