<svg width="36" height="36" viewBox="0 0 36 36" fill="none" xmlns="http://www.w3.org/2000/svg">
<path d="M18.0264 0.995117C18.1763 1.2084 18.3635 1.45073 18.5928 1.7002C19.2965 2.46586 20.4005 3.31654 21.9795 3.62695C24.569 4.31507 26.841 5.65859 28.5605 7.4375L28.5654 7.44336L28.5713 7.44922C30.2362 9.06242 31.5195 11.1605 32.2393 13.5508L32.375 14.0332C32.6855 15.6114 33.5352 16.715 34.2998 17.4189C34.549 17.6483 34.7918 17.8353 35.0049 17.9854C34.8257 18.1091 34.6267 18.2615 34.4199 18.4492C33.6777 19.1228 32.8371 20.23 32.375 21.9727C31.6395 24.746 30.1544 27.1546 28.1885 28.9121L28.1826 28.918L28.1758 28.9238C26.5058 30.5223 24.372 31.7302 21.9629 32.3711C20.3818 32.6808 19.2766 33.5335 18.5723 34.2998C18.3432 34.549 18.1557 34.7908 18.0059 35.0039C17.8824 34.8249 17.7311 34.6254 17.5439 34.4189C16.8709 33.6762 15.7649 32.8355 14.0234 32.373C11.4736 31.6959 9.2316 30.3835 7.52148 28.6455L7.51562 28.6396L7.50977 28.6348L7.1748 28.3037C5.52482 26.6158 4.27886 24.4381 3.625 21.9727C3.16288 20.23 2.32233 19.1228 1.58008 18.4492C1.373 18.2613 1.17351 18.1092 0.994141 17.9854C1.20737 17.8352 1.45078 17.6485 1.7002 17.4189C2.46483 16.715 3.31448 15.6114 3.625 14.0332C4.35098 11.2955 5.80701 8.91259 7.73535 7.16113L7.74219 7.15527L7.74805 7.14941C9.43051 5.5131 11.5954 4.27717 14.0439 3.62695C15.7854 3.16447 16.8914 2.32375 17.5645 1.58105C17.7518 1.3743 17.9028 1.17429 18.0264 0.995117Z" stroke="#B50000"/>
<rect x="11" y="12" width="15" height="12" rx="2" fill="#B50000"/>
<path d="M13 15.5L18.5 18.5L24 15.5" stroke="#FBF1E8" stroke-linecap="round"/>
</svg>
