<svg width="56" height="56" viewBox="0 0 56 56" fill="none" xmlns="http://www.w3.org/2000/svg">
<path d="M11.1458 45.1056C8.21298 42.3126 6.00697 38.604 4.88647 34.3785C3.53151 29.2689 0 28.0041 0 28.0041C0 28.0041 4.01741 26.1828 4.88647 21.6296C6.05292 17.2309 8.39575 13.3923 11.5103 10.5636C14.2256 7.92277 17.7116 5.93477 21.6461 4.88995C26.7522 3.53402 28.016 0 28.016 0C28.016 0 29.836 4.02026 34.386 4.88995C38.5485 5.99532 42.209 8.15635 44.986 11.0292C47.8531 13.8073 50.0099 17.4677 51.1135 21.6296C51.9826 26.1828 56 28.0041 56 28.0041C56 28.0041 52.4685 29.2689 51.1135 34.3785C49.9318 38.8348 47.5428 42.7161 44.3672 45.555C41.67 48.1367 38.2297 50.0809 34.3543 51.1101C29.8043 51.9797 27.9843 56 27.9843 56C27.9843 56 26.7204 52.466 21.6144 51.1101C17.5172 50.022 13.9064 47.9113 11.1458 45.1056Z" fill="#B50000"/>
<path d="M27.929 20.0462C27.929 20.0536 27.9347 20.0591 27.9392 20.0654C27.9437 20.0708 27.949 20.0763 27.9543 20.0822C27.9649 20.0932 27.9766 20.103 27.9883 20.1124C28.0121 20.1319 28.0385 20.1496 28.0656 20.1652C28.1211 20.1966 28.1823 20.2197 28.2487 20.233C28.3812 20.2589 28.5375 20.2467 28.6971 20.1609C28.7379 20.1402 28.7764 20.1128 28.816 20.0834C28.8353 20.0681 28.8541 20.0509 28.8734 20.0336C28.8926 20.0156 28.9115 19.9972 28.927 19.9792C28.9968 19.9059 29.0542 19.8233 29.107 19.7316C29.2089 19.5487 29.2788 19.3348 29.3056 19.0896C29.3116 19.0359 29.3146 18.9603 29.312 18.8639C29.3078 18.7668 29.2999 18.6501 29.2701 18.5012C29.2391 18.3496 29.187 18.2102 29.1244 18.0687C29.0931 17.9982 29.058 17.9277 29.0198 17.8568C29.0013 17.8208 28.981 17.7851 28.9606 17.7487C28.9387 17.7111 28.916 17.6731 28.893 17.6343L28.6345 17.1956L28.3412 17.4866C28.2321 17.5948 28.1155 17.7099 27.9936 17.8302L28.4676 18.0292C28.4291 17.9136 28.3887 17.7992 28.3461 17.6805C28.2966 17.5485 28.2464 17.4126 28.1955 17.2735C28.1638 17.1932 28.1302 17.1153 28.0913 17.0463C28.0539 16.977 28.0139 16.91 27.9679 16.8446C27.8886 16.7236 27.4002 15.993 27.404 16.0001C27.4112 16.0161 27.4172 16.0322 27.4213 16.049C27.4383 16.1164 27.444 16.1849 27.4474 16.2508C27.4546 16.3828 27.4474 16.5077 27.4274 16.6213C27.4093 16.7357 27.384 16.8395 27.3602 16.9367C27.3081 17.138 27.256 17.3045 27.2096 17.4467C27.2077 17.4537 27.2021 17.4686 27.1975 17.4808L27.1832 17.5188L27.1537 17.5936C27.1345 17.6437 27.1141 17.6931 27.0937 17.742C27.0537 17.8404 27.0118 17.9363 26.9695 18.0311C26.9269 18.1255 26.8842 18.2184 26.8408 18.3093C26.8189 18.3547 26.7967 18.399 26.7755 18.444C26.765 18.4656 26.7529 18.4895 26.7435 18.509L26.7182 18.5658C26.6498 18.7163 26.6174 18.862 26.6102 18.9963C26.5985 19.2631 26.7102 19.4989 26.8408 19.6999C26.9714 19.9004 27.113 20.0665 27.2039 20.2079C27.1435 20.0399 27.0367 19.8526 26.9431 19.6486C26.8978 19.5459 26.8559 19.4402 26.8344 19.3367C26.8227 19.285 26.8163 19.2345 26.8148 19.1855C26.8118 19.1366 26.8159 19.0892 26.8235 19.0414C26.8371 18.9466 26.8733 18.8459 26.9333 18.7311C26.948 18.7022 26.9673 18.6736 26.9843 18.6426C27.0099 18.5991 27.036 18.5553 27.0624 18.5114C27.1145 18.4229 27.1658 18.3304 27.2179 18.2372C27.3202 18.0488 27.5285 17.4236 27.5357 17.4236C27.5433 17.4236 27.5535 17.4267 27.5652 17.4341C27.5784 17.4424 27.5942 17.4545 27.6135 17.4721C27.635 17.4886 27.6505 17.5137 27.6671 17.5442L27.6799 17.5681C27.6818 17.5724 27.6837 17.5763 27.6863 17.5814L27.6874 17.5834L27.689 17.5889L27.6927 17.5998L27.6991 17.6214C27.7169 17.6802 27.7339 17.7393 27.7516 17.7981C27.7852 17.916 27.818 18.037 27.8479 18.1526L27.9845 18.6806L28.3578 18.3665C28.4831 18.2611 28.6061 18.1573 28.7277 18.0546L28.291 17.9375C28.4099 18.1612 28.5186 18.4201 28.5507 18.6246C28.5661 18.7343 28.5684 18.8545 28.562 18.9705C28.5552 19.0868 28.5397 19.2004 28.5167 19.3078C28.494 19.4147 28.4635 19.5154 28.4257 19.6035C28.3869 19.694 28.3457 19.7618 28.291 19.8229C28.2378 19.8832 28.1747 19.9322 28.1106 19.9702C28.0789 19.9894 28.0456 20.0054 28.0136 20.0191C27.9973 20.0258 27.9819 20.0317 27.9664 20.0372C27.9588 20.0391 27.9513 20.0422 27.9441 20.0438C27.9388 20.0446 27.9286 20.0473 27.929 20.0462Z" fill="white"/>
<path d="M20.4191 28.1882V26.1955H19.4136V35.7876L17.6328 35.5741V25.2949C17.6328 25.2949 19.2475 25.4814 19.7899 25.4963C20.3591 25.5127 22.0667 25.4132 22.0667 25.4132V28.4679L20.4191 28.1882Z" fill="white"/>
<path d="M36.8889 30.4918C36.6949 30.473 36.4692 30.406 36.2107 30.2912C35.9763 30.1764 35.8064 30.0617 35.7023 29.9469V34.6589H36.8893V30.4926V30.4918M36.7433 26.1382H35.5803V29.3166C35.7415 29.1572 35.9317 29.0267 36.1499 28.9245C36.3435 28.8356 36.5413 28.7753 36.7436 28.7431V26.1382H36.7433ZM33.9211 36.0433V25.4158C33.8041 25.4174 35.1735 25.4867 36.0642 25.4867C37.0271 25.4867 38.4633 25.2705 38.4633 25.2705V28.7424C37.7367 28.7424 37.1509 28.8379 36.707 29.0291C36.3111 29.2011 36.0125 29.3797 35.8106 29.5642C35.8751 29.6472 35.9684 29.7252 36.0895 29.7984C36.2107 29.8717 36.3239 29.9304 36.4288 29.9751C36.6062 30.0452 36.8108 30.1024 37.0403 30.1471C37.2705 30.1917 37.5385 30.2203 37.8458 30.2329C37.9911 30.2391 38.1304 30.2329 38.2636 30.2141C38.3968 30.1953 38.5316 30.1694 38.669 30.1377V35.5368C38.669 35.5368 36.958 35.753 36.3877 35.8133C35.7706 35.8792 33.9207 36.0429 33.9207 36.0429V36.0433H33.9211Z" fill="white"/>
<path d="M32.082 25.1124C31.914 25.0822 31.4381 24.9945 31.3486 24.9777V26.8054C31.2984 27.1611 31.1697 28.0445 31.0829 28.3739C31.0002 28.6881 30.8134 29.1601 30.6334 29.6172C30.5122 29.9236 30.3888 30.2369 30.2948 30.5076V24.7599C30.2084 24.7399 29.5546 24.5875 29.3353 24.5315C29.1251 24.4778 28.5234 24.3086 28.5234 24.3086V36.2777L30.2944 36.2491V31.832C30.3593 31.4658 30.4258 31.1242 30.4794 30.9236C30.5616 30.6161 30.7443 30.1547 30.9198 29.7085C31.0836 29.2933 31.2524 28.8655 31.3482 28.5451V36.2107L33.0418 36.1386V25.2526C33.0418 25.2526 32.4379 25.1763 32.082 25.1124Z" fill="white"/>
<path d="M14.9067 29.8711V34.1875C14.9067 34.3073 14.8561 34.4143 14.7554 34.5079C14.6542 34.6015 14.527 34.6446 14.3734 34.6379C14.359 34.6375 14.3451 34.636 14.3315 34.6348C14.3179 34.6364 14.3035 34.6375 14.2896 34.6379C14.1363 34.6442 14.0091 34.6011 13.908 34.5079C13.8072 34.4143 13.7563 34.3073 13.7563 34.1875V29.8711V25.5547C13.7563 25.4348 13.8072 25.3279 13.908 25.2342C14.0088 25.1406 14.136 25.0975 14.2896 25.1042C14.3039 25.105 14.3179 25.1061 14.3315 25.1073C14.3451 25.1057 14.3594 25.1046 14.3734 25.1042C14.5266 25.0979 14.6538 25.1414 14.7554 25.2342C14.8561 25.3279 14.9067 25.4348 14.9067 25.5547V29.8711ZM16.6086 26.174C16.572 25.9765 16.4652 25.7619 16.2878 25.53C16.1602 25.36 16.0153 25.219 15.8518 25.1061C15.7831 25.0591 15.6971 25.0066 15.5789 24.9526C15.0867 24.7254 14.0276 24.4547 13.1976 24.6329C13.081 24.6584 12.9512 24.696 12.8111 24.7783C12.5983 24.9036 12.4786 25.0666 12.3752 25.2021C12.1978 25.4336 12.0906 25.6483 12.054 25.8465C12.0177 26.0439 12 26.2382 12 26.4286V32.9853C12 33.1756 12.0181 33.3703 12.054 33.5678C12.0902 33.7652 12.1974 33.9798 12.3752 34.2117C12.5024 34.3818 12.6473 34.5228 12.8111 34.6352C12.8798 34.6822 12.9659 34.7347 13.084 34.7888C13.5762 35.016 14.6353 35.2866 15.4657 35.108C15.5823 35.0829 15.7122 35.0449 15.8518 34.9627C16.0647 34.8373 16.1847 34.6744 16.2878 34.5392C16.4652 34.3077 16.572 34.0931 16.6086 33.8952C16.6452 33.6974 16.663 33.5031 16.663 33.3127V26.7565C16.663 26.5661 16.6448 26.3714 16.6086 26.174Z" fill="white"/>
<path d="M41.0922 29.8697V25.5529C41.0922 25.4331 41.1428 25.3265 41.2439 25.2325C41.3447 25.1389 41.4719 25.0958 41.6259 25.1025C41.6402 25.1032 41.6542 25.1044 41.6678 25.106C41.6814 25.1044 41.6953 25.1032 41.7097 25.1025C41.8629 25.0962 41.9901 25.1397 42.0913 25.2325C42.1921 25.3265 42.243 25.4331 42.243 25.5529V29.8693V34.1857C42.243 34.3056 42.1924 34.4126 42.0913 34.5062C41.9901 34.5998 41.8629 34.6429 41.7097 34.6362C41.6953 34.6358 41.681 34.6339 41.6678 34.6331C41.6542 34.6347 41.6399 34.6358 41.6259 34.6362C41.4727 34.6425 41.3455 34.5994 41.2439 34.5062C41.1431 34.4126 41.0922 34.3056 41.0922 34.1857V29.8697ZM39.3359 26.7555V33.3114C39.3359 33.5018 39.3541 33.6965 39.3903 33.8939C39.4269 34.0913 39.5337 34.306 39.7115 34.5379C39.8149 34.673 39.9346 34.8364 40.1474 34.9614C40.2875 35.0436 40.4173 35.0812 40.5336 35.1067C41.3632 35.2853 42.4223 35.0146 42.9153 34.7874C43.0326 34.7334 43.1195 34.6805 43.1878 34.6339C43.3516 34.5211 43.4965 34.3796 43.6237 34.2104C43.8015 33.9789 43.9083 33.7643 43.9449 33.5664C43.9815 33.3686 43.9993 33.1743 43.9993 32.9839V29.8697V26.4281C43.9993 26.2377 43.9812 26.0426 43.9449 25.8456C43.9087 25.6481 43.8015 25.4335 43.6237 25.2012C43.5203 25.066 43.4006 24.9031 43.1878 24.7773C43.0477 24.6951 42.9179 24.6575 42.8016 24.632C41.972 24.4538 40.9129 24.7241 40.42 24.9517C40.3022 25.0057 40.2158 25.0582 40.1471 25.1052C39.9836 25.218 39.8383 25.3594 39.7111 25.5291C39.5333 25.7606 39.4265 25.9752 39.3899 26.173C39.3537 26.3709 39.3359 26.5652 39.3359 26.7555Z" fill="white"/>
<path d="M24.4922 30.1973C24.4922 30.1973 24.8545 30.3026 25.1127 30.3026C25.3539 30.3026 25.8227 30.408 25.8227 30.408" fill="white"/>
<path d="M25.1115 30.4323C25.2202 30.4323 25.3878 30.4566 25.5354 30.4828C25.6075 30.4957 25.6728 30.5087 25.72 30.5184C25.7434 30.5231 25.7622 30.5275 25.7751 30.5302C25.7815 30.5318 25.7868 30.5325 25.7898 30.5333C25.7913 30.5337 25.7928 30.5341 25.7936 30.5341C25.7939 30.5341 25.7943 30.5341 25.7943 30.5345C25.7947 30.5345 25.7947 30.5345 25.7947 30.5345C25.7947 30.5345 25.7947 30.5345 25.8215 30.4064C25.8483 30.2783 25.8483 30.2783 25.8479 30.2783C25.8479 30.2783 25.8479 30.2783 25.8475 30.2783C25.8472 30.2783 25.8468 30.2783 25.8464 30.2779C25.8457 30.2775 25.8438 30.2775 25.8423 30.2771C25.8385 30.2764 25.8332 30.2752 25.8264 30.2736C25.8128 30.2705 25.7932 30.2666 25.7687 30.2615C25.7203 30.2513 25.6528 30.238 25.578 30.2247C25.4308 30.1984 25.244 30.1702 25.1115 30.1702V30.4323ZM24.491 30.1961C24.457 30.3226 24.457 30.3226 24.457 30.3226C24.4574 30.3226 24.4574 30.3226 24.4574 30.3226C24.4578 30.3226 24.4582 30.3226 24.4585 30.323C24.4593 30.3234 24.4604 30.3234 24.4619 30.3241C24.465 30.3249 24.4695 30.3261 24.4748 30.3277C24.4857 30.3308 24.5016 30.3351 24.5212 30.3402C24.5605 30.3504 24.6159 30.3641 24.679 30.3774C24.8039 30.4041 24.9696 30.4327 25.1115 30.4327V30.1702C24.9956 30.1702 24.8507 30.1463 24.7299 30.1205C24.6707 30.1075 24.619 30.095 24.5823 30.0856C24.5642 30.0809 24.5495 30.077 24.5397 30.0742C24.5344 30.0731 24.531 30.0719 24.5287 30.0711C24.5272 30.0707 24.5265 30.0703 24.5257 30.0703C24.5253 30.0703 24.5253 30.0703 24.525 30.0703C24.5246 30.0703 24.5246 30.0703 24.5246 30.0703C24.525 30.0703 24.525 30.0703 24.525 30.0703C24.525 30.0703 24.5253 30.0695 24.491 30.1961Z" fill="white"/>
<path d="M24.5599 29.4456V25.0811C24.5599 25.0811 24.0726 25.1802 23.6412 25.246C23.446 25.2757 22.8516 25.3494 22.8516 25.3494V36.074L24.5599 36.1743V29.4445V29.4456Z" fill="white"/>
<path d="M26.4221 24.6442C26.2406 24.6975 25.7299 24.8248 25.6133 24.8534V36.2232L27.3695 36.267V24.3379C27.3695 24.3379 26.6618 24.5741 26.4221 24.6446V24.6442Z" fill="white"/>
<path d="M16.9944 18.4854C17.8138 19.0972 18.3649 19.6272 18.5192 19.771C18.7 19.9386 20.1857 21.3167 21.908 21.428C23.6272 21.5388 25.5941 20.3883 25.6269 19.2715C25.6435 18.7047 25.163 18.1383 24.6407 17.9432C23.9254 17.6764 22.9701 18.0478 22.8285 18.6228C22.7659 18.8775 22.8474 19.2347 23.1048 19.4412C23.4192 19.6926 23.8107 19.5716 23.8522 19.5579L23.8465 19.5489C23.8091 19.5606 23.4577 19.6699 23.1754 19.4443C22.9444 19.259 22.8716 18.9386 22.9274 18.7094C23.0543 18.1935 23.9114 17.8594 24.5538 18.0991C25.0223 18.2738 25.4544 18.7827 25.4393 19.2915C25.4099 20.2939 23.6438 21.3273 22.1005 21.2274C20.5544 21.1271 19.2209 19.8901 19.0586 19.7397C18.9197 19.6108 18.4249 19.1352 17.6892 18.5856C17.3326 18.3193 17.1548 18.1865 16.963 18.0901C16.7773 17.9965 16.2731 17.7423 15.7031 17.7188C15.9202 17.7998 16.0896 17.8848 16.1844 17.933C16.3976 18.0404 16.5962 18.1888 16.9929 18.4857L16.9944 18.4854Z" fill="white"/>
<path d="M43.2192 19.4209C43.2071 19.3406 43.0195 18.2238 42.1299 17.7365C41.4622 17.3706 40.7167 17.5336 40.2204 17.7193C40.5099 17.7071 40.8168 17.7549 41.1066 17.914C41.9053 18.3511 42.0737 19.3539 42.085 19.426C42.302 20.844 41.0112 22.0995 40.0909 22.6307C39.7395 22.8332 39.444 22.9304 39.2934 22.9766C36.2878 23.9105 33.0697 23.2602 33.0697 23.2602C29.4545 22.8273 27.9629 21.0141 27.9629 21.0141C27.9629 21.0141 26.4712 22.8281 22.8568 23.2602C22.8568 23.2602 19.6394 23.9105 16.6331 22.9766C16.4832 22.9296 16.1866 22.8336 15.8355 22.6307C14.9153 22.0999 13.6241 20.8444 13.8411 19.426C13.8524 19.3535 14.0208 18.3515 14.8195 17.914C15.1093 17.7549 15.4162 17.7079 15.7057 17.7193C15.209 17.5336 14.4639 17.3706 13.7962 17.7365C12.9062 18.2238 12.7186 19.3406 12.7065 19.4209C12.4653 21.0007 13.9026 22.3988 14.9282 22.9911C15.3188 23.2167 15.6491 23.324 15.8163 23.3761C19.1642 24.4166 22.7488 23.6919 22.7488 23.6919C26.7754 23.2104 27.9629 21.6099 27.9629 21.6099C27.9629 21.6099 29.1503 23.2104 33.1769 23.6919C33.1769 23.6919 36.7607 24.4162 40.1094 23.3761C40.2766 23.324 40.6062 23.2167 40.9976 22.9911C42.0227 22.3996 43.4608 21.0007 43.2188 19.4209H43.2192Z" fill="white"/>
<path d="M38.2346 18.5868C37.499 19.136 37.0041 19.6119 36.8649 19.7408C36.7026 19.8916 35.369 21.1291 33.8234 21.2286C32.28 21.3285 30.514 20.2951 30.4845 19.2927C30.4694 18.7838 30.9012 18.2758 31.3696 18.1003C32.012 17.8606 32.8692 18.1943 32.996 18.7106C33.0523 18.939 32.9794 19.2598 32.7481 19.4451C32.4661 19.6711 32.1147 19.5622 32.0773 19.5497L32.0717 19.5587C32.1132 19.572 32.5046 19.693 32.819 19.4415C33.0764 19.2355 33.1583 18.8783 33.0953 18.6232C32.9542 18.0482 31.9992 17.6764 31.2832 17.9432C30.7616 18.1379 30.2803 18.7047 30.2973 19.2715C30.3305 20.3883 32.297 21.5396 34.0163 21.428C35.7382 21.3167 37.2238 19.9383 37.405 19.771C37.5594 19.6272 38.1108 19.0972 38.9302 18.4854C39.3269 18.1884 39.5255 18.0407 39.7387 17.933C39.8335 17.8852 40.0033 17.7998 40.2196 17.7188C39.65 17.7423 39.1454 17.9969 38.9597 18.0901C38.7683 18.1869 38.5902 18.32 38.2339 18.586L38.2346 18.5868Z" fill="white"/>
</svg>
