<svg width="56" height="56" viewBox="0 0 56 56" fill="none" xmlns="http://www.w3.org/2000/svg">
<path d="M44.8542 45.1056C47.787 42.3126 49.993 38.604 51.1135 34.3785C52.4685 29.2689 56 28.0041 56 28.0041C56 28.0041 51.9826 26.1828 51.1135 21.6296C49.9471 17.2309 47.6043 13.3923 44.4897 10.5636C41.7744 7.92277 38.2884 5.93477 34.3539 4.88995C29.2478 3.53402 27.984 0 27.984 0C27.984 0 26.164 4.02026 21.614 4.88995C17.4515 5.99532 13.791 8.15635 11.014 11.0292C8.14687 13.8073 5.99012 17.4677 4.88647 21.6296C4.01741 26.1828 0 28.0041 0 28.0041C0 28.0041 3.53151 29.2689 4.88647 34.3785C6.06816 38.8348 8.45718 42.7161 11.6328 45.555C14.33 48.1367 17.7703 50.0809 21.6457 51.1101C26.1957 51.9797 28.0157 56 28.0157 56C28.0157 56 29.2796 52.466 34.3856 51.1101C38.4828 50.022 42.0936 47.9113 44.8542 45.1056Z" fill="#B50000"/>
</svg>
