<svg width="46" height="47" viewBox="0 0 46 47" fill="none" xmlns="http://www.w3.org/2000/svg">
<path d="M23.4668 3.29297L23.4678 3.2959C23.4693 3.29924 23.4725 3.30508 23.4766 3.31348C23.4847 3.33025 23.4982 3.35659 23.5166 3.3916C23.5536 3.46193 23.6109 3.56676 23.6904 3.69531C23.8498 3.95283 24.0954 4.30466 24.4355 4.6748C25.0738 5.36921 26.0345 6.11681 27.3809 6.44238L27.6553 6.50195L27.6729 6.50488L27.6895 6.50977C30.7422 7.32044 33.4333 8.90523 35.4805 11.0186L35.8711 11.4111C37.6631 13.2741 39.0386 15.6178 39.832 18.2529L39.9932 18.8213L40.001 18.8564C40.2859 20.3488 41.0861 21.3969 41.8262 22.0781C42.1962 22.4187 42.5483 22.6647 42.8057 22.8242C42.9339 22.9037 43.0382 22.9611 43.1084 22.998C43.1434 23.0164 43.1697 23.0299 43.1865 23.0381C43.1948 23.0421 43.2007 23.0453 43.2041 23.0469L43.207 23.0479H43.2061L44.3311 23.5576L43.1699 23.9727V23.9736C43.168 23.9744 43.1633 23.9751 43.1572 23.9775C43.1446 23.9826 43.1235 23.9919 43.0947 24.0049C43.0366 24.031 42.9476 24.0738 42.8359 24.1367C42.6125 24.2626 42.2986 24.4686 41.9541 24.7812C41.3111 25.3648 40.5522 26.3296 40.083 27.8691L39.9932 28.1846C39.1249 31.4585 37.368 34.317 35.0244 36.4121L35.0234 36.4111C33.0362 38.3092 30.5089 39.7355 27.667 40.4902L27.6504 40.4951L27.6328 40.498C26.1415 40.7831 25.0939 41.5845 24.4131 42.3252C24.0729 42.6953 23.8274 43.0472 23.668 43.3047C23.5884 43.4332 23.5301 43.5381 23.4932 43.6084L23.4453 43.7041C23.4447 43.7054 23.4446 43.7065 23.4443 43.707L22.9346 44.833L22.5176 43.668V43.667C22.5167 43.6647 22.5153 43.6614 22.5137 43.6572C22.5086 43.6446 22.4993 43.6236 22.4863 43.5947C22.4603 43.5366 22.4173 43.4477 22.3545 43.3359C22.2287 43.1123 22.0235 42.797 21.7109 42.4521C21.1279 41.8088 20.1638 41.0495 18.626 40.5801L18.3105 40.4902C15.2999 39.6908 12.6409 38.139 10.6045 36.0693V36.0684C8.58189 34.138 7.03367 31.6217 6.1709 28.7617L6.00684 28.1846C5.54951 26.46 4.7317 25.4036 4.0459 24.7812C3.70136 24.4686 3.38746 24.2626 3.16406 24.1367C3.0524 24.0738 2.96336 24.031 2.90527 24.0049C2.87646 23.9919 2.85544 23.9826 2.84277 23.9775C2.83668 23.9751 2.83204 23.9744 2.83008 23.9736V23.9727L1.66895 23.5576L2.79395 23.0479H2.79297C2.79348 23.0476 2.79466 23.0475 2.7959 23.0469C2.79926 23.0453 2.80521 23.0421 2.81348 23.0381C2.83027 23.0299 2.85663 23.0164 2.8916 22.998C2.9618 22.9611 3.06606 22.9037 3.19434 22.8242C3.45172 22.6647 3.80384 22.4187 4.17383 22.0781C4.91389 21.3969 5.71405 20.3488 5.99902 18.8564L6.00684 18.8213C6.86388 15.5895 8.58735 12.7623 10.8857 10.6748C12.8864 8.73337 15.448 7.27593 18.333 6.50977L18.6484 6.41992C20.1863 5.95056 21.1503 5.19121 21.7334 4.54785C22.0459 4.20296 22.2521 3.88769 22.3779 3.66406C22.4407 3.5525 22.4837 3.46335 22.5098 3.40527C22.5226 3.37663 22.5311 3.3554 22.5361 3.34277L22.541 3.33008V3.33105L22.957 2.16699L23.4668 3.29297Z" stroke="#B50000"/>
<path d="M21.1869 27.3895C24.6255 30.8282 27.2684 31.6914 30.3835 28.5762C30.871 28.0757 31.327 27.4431 30.6801 26.7963L28.1585 24.868C27.3626 24.4399 27.0518 24.7444 26.6752 25.1646C25.2985 26.7012 23.8134 26.1912 22.8187 25.1646L21.3354 23.6813C20.3088 22.6866 19.7989 21.2012 21.3354 19.8249C21.7558 19.4482 22.0602 19.1373 21.632 18.3415L19.7038 15.8199C19.0568 15.173 18.4243 15.629 17.9237 16.1165C14.8087 19.2315 15.6718 21.8744 19.1104 25.3132L21.1869 27.3895Z" fill="#B50000"/>
</svg>
