<svg width="15" height="16" viewBox="0 0 15 16" fill="none" xmlns="http://www.w3.org/2000/svg">
<path d="M5.18687 12.3895C8.62551 15.8282 11.2684 16.6914 14.3835 13.5762C14.871 13.0757 15.327 12.4431 14.6801 11.7963L12.1585 9.86802C11.3626 9.43986 11.0518 9.74437 10.6752 10.1646C9.29854 11.7012 7.81336 11.1912 6.81874 10.1646L5.33543 8.6813C4.30883 7.68657 3.79886 6.20123 5.33543 4.82486C5.75584 4.44821 6.06019 4.13729 5.63204 3.34154L3.70375 0.819928C3.05683 0.173005 2.4243 0.628972 1.92369 1.11653C-1.19126 4.2315 -0.328241 6.87441 3.1104 10.3132L5.18687 12.3895Z" fill="white"/>
</svg>
