<svg width="10" height="15" viewBox="0 0 10 15" fill="none" xmlns="http://www.w3.org/2000/svg">
<path d="M4.84379 0C2.16868 0 0 2.12837 0 4.75498C0 7.80486 3.43159 10.1858 3.99597 13.5941C3.99597 13.5941 4.06778 14.3159 4.13706 14.5471C4.22147 14.828 4.53011 15 4.84379 15C5.15747 15 5.46611 14.8287 5.55052 14.5471C5.6198 14.3166 5.69161 13.5941 5.69161 13.5941C6.25598 10.1858 9.68758 7.80549 9.68758 4.75498C9.68758 2.129 7.5189 0 4.84379 0ZM4.84379 8.12547C3.03099 8.12547 1.56211 6.65533 1.56211 4.84379C1.56211 3.03099 3.03036 1.56211 4.84379 1.56211C6.65722 1.56211 8.12547 3.03036 8.12547 4.84379C8.12547 6.65596 6.65659 8.12547 4.84379 8.12547Z" fill="white"/>
</svg>
