<svg width="18" height="16" viewBox="0 0 18 16" fill="none" xmlns="http://www.w3.org/2000/svg">
<path fill-rule="evenodd" clip-rule="evenodd" d="M16.213 0.156816C15.5041 0.357055 7.49757 2.71031 0.978336 4.61288C0.459412 4.77985 0.0845082 5.2069 0.0109434 5.67628C-0.0626213 6.14566 0.243812 6.54849 0.65649 6.66642C1.0089 6.77589 4.54221 7.81189 4.54221 7.81189L4.6472 13.8231L8.30117 11.6364L5.41764 7.33522L12.6 4.72727L6.55962 8.69492L8.30117 11.3381C8.40331 11.4724 10.535 14.7701 10.6883 14.9715C10.9436 15.3072 11.3338 15.9616 11.5749 15.9955C11.9968 16.0547 12.5106 15.5273 12.8293 14.6726C13.1389 13.8766 15.2362 8.35464 17.9291 0.997515C18.2387 0.201496 17.5104 -0.260595 16.213 0.156816Z" fill="white"/>
</svg>
