<svg width="30" height="16" viewBox="0 0 30 16" fill="none" xmlns="http://www.w3.org/2000/svg">
<path fill-rule="evenodd" clip-rule="evenodd" d="M15 3.16496C14.9999 3.16491 14.9999 3.16486 14.9998 3.16481V3.16511C14.8631 3.28131 14.7138 3.42169 14.5518 3.57391L14.5518 3.57393C14.1261 3.97413 13.6133 4.45613 13.0143 4.7956C12.6668 4.99375 11.4343 5.67077 9.61721 6.18973C9.61721 6.18973 9.13359 6.32655 8.4246 6.46572C8.30602 6.47896 8.18106 6.49128 8.048 6.5044C7.96767 6.51232 7.88438 6.52054 7.79777 6.52942L7.71376 6.53818L7.71372 6.53819C7.19387 6.5924 6.62495 6.65173 6.03702 6.73229C5.81634 6.73464 5.59566 6.72992 5.37967 6.71577C5.36324 6.71577 5.34681 6.71341 5.34681 6.71341C5.07213 6.69218 4.50399 6.64736 4.00159 6.42798L3.99656 6.42578C3.68603 6.28971 3.37828 6.15487 3.15878 5.81466C3.10948 5.73682 2.84185 5.30277 2.97332 4.78381C2.98975 4.72012 3.06487 4.44177 3.34425 4.17049C3.77622 3.7506 4.33966 3.69634 5.60975 3.61378C6.26477 3.57136 6.54472 3.55766 6.72921 3.54863C6.88327 3.54109 6.97076 3.53681 7.15451 3.52178C8.72275 3.39204 9.74164 3.29297 10.3168 2.57349C10.3919 2.47914 10.6079 2.19135 10.6784 1.76438C10.6924 1.67474 10.838 0.69107 10.1501 0.212207C9.54444 -0.207682 8.71101 0.0565157 8.28139 0.478764C7.8236 0.92696 7.75786 1.61577 7.85177 1.66059C7.88159 1.67514 7.92223 1.62073 7.98693 1.53411C8.10051 1.38202 8.28826 1.13065 8.6218 0.978859C8.91526 0.8444 9.41062 0.745322 9.63365 0.990651C9.79564 1.16757 9.7886 1.4931 9.68764 1.69597C9.4194 2.23707 8.39567 2.20536 7.37417 2.17372C7.20665 2.16853 7.0392 2.16334 6.87514 2.16068L6.8676 2.16055C5.03036 2.12986 1.77924 2.07555 0.71486 3.64681C0.0856852 4.57622 0.250022 6.03404 0.780595 6.93515C1.07405 7.43289 1.50133 7.80796 1.75488 7.99903C1.50133 8.19246 1.07171 8.56517 0.780595 9.0629C0.252369 9.96637 0.0880329 11.4218 0.71486 12.3513C1.77924 13.9225 5.03036 13.8682 6.8676 13.8375L6.87514 13.8374C7.03413 13.8345 7.19632 13.8293 7.35866 13.8241H7.35869C8.38531 13.7913 9.41804 13.7583 9.68764 14.3021C9.7886 14.505 9.79329 14.8305 9.63365 15.0074C9.41062 15.2527 8.91526 15.1537 8.6218 15.0192C8.29205 14.867 8.10515 14.6184 7.99093 14.4665C7.92462 14.3783 7.88281 14.3227 7.85177 14.3375C7.75786 14.3846 7.8236 15.0735 8.28139 15.5217C8.71101 15.9415 9.54444 16.2105 10.1501 15.7859C10.838 15.3093 10.6924 14.3233 10.6784 14.236C10.6079 13.8114 10.3919 13.5213 10.3168 13.4269C9.74164 12.7074 8.72275 12.6107 7.15451 12.4786C6.97078 12.4636 6.88328 12.4593 6.72925 12.4518L6.72921 12.4518C6.54472 12.4428 6.26477 12.4291 5.60975 12.3866C4.33966 12.3017 3.77622 12.2498 3.34425 11.8299C3.07622 11.5697 2.99719 11.2985 2.97533 11.2235L2.97332 11.2166C2.84185 10.6976 3.10948 10.2636 3.15878 10.1858C3.37506 9.84692 3.6835 9.71179 3.9928 9.57629L4.00159 9.57243C4.50399 9.35305 5.07213 9.30824 5.34681 9.28701C5.34681 9.28701 5.36089 9.287 5.37967 9.28464C5.59331 9.27049 5.81399 9.26342 6.03702 9.26813C6.65681 9.35306 7.25546 9.41675 7.79777 9.471L7.91738 9.48337L7.9177 9.4834C8.09935 9.50216 8.26832 9.5196 8.4246 9.53705C9.13125 9.67387 9.61721 9.81305 9.61721 9.81305C11.4367 10.332 12.6668 11.009 13.0143 11.2072C13.6133 11.545 14.1261 12.0277 14.5519 12.4285L14.5519 12.4285C14.7138 12.5809 14.8631 12.7214 14.9998 12.8377V12.8377C14.9998 12.8377 14.9998 12.8377 14.9998 12.8377C14.9999 12.8377 14.9999 12.8378 15 12.8378V12.8375C15.1367 12.7213 15.286 12.5807 15.4479 12.4283L15.4479 12.4283C15.8737 12.0276 16.3865 11.5449 16.9855 11.207C17.333 11.0089 18.5631 10.3319 20.3826 9.81292C20.3826 9.81292 20.8686 9.67374 21.5752 9.53692C21.7316 9.51947 21.9007 9.50201 22.0824 9.48324L22.202 9.47087C22.7443 9.41662 23.343 9.35293 23.9628 9.26801C24.1858 9.26329 24.4065 9.27036 24.6201 9.28452C24.6389 9.28688 24.653 9.28688 24.653 9.28688C24.9277 9.30811 25.4958 9.35293 25.9982 9.57231L26.007 9.57616C26.3163 9.71167 26.6247 9.8468 26.841 10.1856C26.8903 10.2635 27.158 10.6975 27.0265 11.2165L27.0245 11.2234C27.0026 11.2984 26.9236 11.5696 26.6556 11.8298C26.2236 12.2497 25.6601 12.3016 24.3901 12.3865C23.735 12.4289 23.4551 12.4426 23.2706 12.4517L23.2705 12.4517C23.1165 12.4592 23.029 12.4635 22.8453 12.4785C21.2771 12.6106 20.2582 12.7073 19.683 13.4268C19.6079 13.5212 19.3919 13.8113 19.3214 14.2359C19.3074 14.3232 19.1618 15.3092 19.8497 15.7857C20.4554 16.2103 21.2888 15.9414 21.7184 15.5215C22.1762 15.0733 22.2419 14.3845 22.148 14.3373C22.117 14.3226 22.0752 14.3782 22.0089 14.4664C21.8947 14.6183 21.7078 14.8668 21.378 15.0191C21.0845 15.1535 20.5892 15.2526 20.3662 15.0073C20.2065 14.8304 20.2112 14.5048 20.3122 14.302C20.5818 13.7581 21.6145 13.7911 22.6411 13.824H22.6411C22.8035 13.8292 22.9657 13.8344 23.1247 13.8372L23.1322 13.8374C24.9694 13.8681 28.2206 13.9224 29.2849 12.3511C29.9118 11.4217 29.7474 9.96625 29.2192 9.06278C28.9281 8.56504 28.4985 8.19233 28.2449 7.9989C28.4985 7.80783 28.9258 7.43276 29.2192 6.93503C29.7498 6.03392 29.9141 4.5761 29.2849 3.64668C28.2206 2.07543 24.9694 2.12974 23.1322 2.16043L23.1247 2.16055C22.9606 2.16321 22.7932 2.1684 22.6256 2.17359C21.6041 2.20523 20.5804 2.23694 20.3122 1.69584C20.2112 1.49298 20.2042 1.16744 20.3662 0.990524C20.5892 0.745196 21.0845 0.844273 21.378 0.978732C21.7115 1.13052 21.8993 1.3819 22.0129 1.53398C22.0776 1.6206 22.1182 1.67502 22.148 1.66046C22.2419 1.61564 22.1762 0.926833 21.7184 0.478637C21.2888 0.0563888 20.4554 -0.207809 19.8497 0.212081C19.1618 0.690943 19.3074 1.67461 19.3214 1.76425C19.3919 2.19122 19.6079 2.47901 19.683 2.57337C20.2582 3.29284 21.2771 3.39192 22.8453 3.52166C23.029 3.53668 23.1165 3.54097 23.2706 3.54851C23.4551 3.55753 23.735 3.57123 24.3901 3.61365C25.6601 3.69622 26.2236 3.75047 26.6556 4.17036C26.9349 4.44164 27.0101 4.71999 27.0265 4.78368C27.158 5.30265 26.8903 5.73669 26.841 5.81454C26.6215 6.15474 26.3138 6.28959 26.0032 6.42565L25.9982 6.42785C25.4958 6.64723 24.9277 6.69206 24.653 6.71329C24.653 6.71329 24.6366 6.71564 24.6201 6.71564C24.4041 6.7298 24.1835 6.73452 23.9628 6.73216C23.3748 6.6516 22.8059 6.59227 22.286 6.53805L22.202 6.52929C22.1154 6.52041 22.0321 6.5122 21.9518 6.50428L21.9518 6.50428C21.8187 6.49116 21.6938 6.47884 21.5752 6.4656C20.8662 6.32642 20.3826 6.1896 20.3826 6.1896C18.5655 5.67064 17.333 4.99363 16.9855 4.79548C16.3865 4.456 15.8737 3.974 15.448 3.5738L15.448 3.5738C15.2861 3.42157 15.1367 3.28118 15 3.16498V3.16494C15 3.16495 15 3.16495 15 3.16496ZM14.9999 5.75894C14.8951 5.95036 14.7803 6.13362 14.6553 6.30532C14.0332 7.15217 13.1223 7.78673 12.5823 8.11462C13.1223 8.44487 14.0332 9.07706 14.6553 9.92391C14.782 10.0936 14.8957 10.2777 14.9999 10.4694C15.1041 10.2776 15.2178 10.0935 15.3445 9.92379C15.9666 9.07693 16.8775 8.44474 17.4175 8.11449C16.8775 7.7866 15.9666 7.15204 15.3445 6.30519C15.2196 6.13353 15.1047 5.95032 14.9999 5.75894Z" fill="#FBF1E8"/>
</svg>
