<svg width="38" height="20" viewBox="0 0 38 20" fill="none" xmlns="http://www.w3.org/2000/svg">
<path d="M25.0625 0.264687C25.8196 -0.259833 26.8614 0.0710017 27.3984 0.598672C27.9699 1.15843 28.0525 2.01786 27.9356 2.07523C27.8328 2.12493 27.6268 1.5214 26.9727 1.22367C26.6058 1.05564 25.9868 0.931705 25.708 1.23832C25.5057 1.45946 25.5145 1.86661 25.6406 2.12016C26.0313 2.90694 27.701 2.72383 29.1563 2.70023C31.4511 2.6619 35.5241 2.59205 36.8565 4.55863C37.6428 5.72041 37.4376 7.54266 36.7744 8.66898C36.4077 9.29085 35.8736 9.75922 35.5567 9.99809C35.8735 10.2398 36.4105 10.7061 36.7744 11.3282C37.4347 12.4575 37.6399 14.2767 36.8565 15.4385C35.5241 17.4052 31.4512 17.3343 29.1563 17.2959C27.7009 17.2694 26.0312 17.0901 25.6406 17.877C25.5145 18.1305 25.5086 18.5377 25.708 18.7588C25.9868 19.0655 26.6058 18.9415 26.9727 18.7735C27.6238 18.4729 27.8299 17.8725 27.9356 17.9219C28.0524 17.9824 27.9699 18.8417 27.3984 19.4014C26.8615 19.9262 25.8196 20.2628 25.0625 19.7325C24.2033 19.1371 24.3846 17.9052 24.4024 17.795C24.4904 17.2645 24.7595 16.9014 24.8535 16.7832C25.5725 15.884 26.8465 15.7628 28.8067 15.5977C29.3114 15.5564 29.2359 15.5807 30.7383 15.4834C32.3254 15.3773 33.0295 15.3117 33.5693 14.7871C33.9154 14.4512 34.0097 14.1004 34.0332 14.0205C34.1975 13.3719 33.8634 12.8288 33.8018 12.7315C33.5289 12.3042 33.1383 12.1359 32.7481 11.9649C32.1201 11.6908 31.4097 11.635 31.0664 11.6084C31.064 11.6084 31.0471 11.6082 31.0254 11.6055C30.7585 11.5878 30.4827 11.5791 30.2041 11.585C29.4295 11.6911 28.6808 11.7711 28.0029 11.8389C27.7185 11.8684 27.4573 11.8944 27.2197 11.9209C26.3444 12.0904 25.7393 12.2626 25.7285 12.2657C23.4546 12.9143 21.917 13.761 21.4824 14.0088C20.4496 14.5914 19.62 15.5165 19 16.044V16.0479C18.8289 15.9025 18.6422 15.726 18.4395 15.5352C17.9073 15.0343 17.2663 14.4311 16.5176 14.0088C16.0833 13.7611 14.5449 12.9144 12.2705 12.2657C12.2543 12.261 11.6515 12.0896 10.7803 11.9209C10.585 11.8991 10.3735 11.877 10.1465 11.8536C10.0973 11.8485 10.0467 11.8442 9.9961 11.8389C9.31841 11.7711 8.57038 11.6911 7.79591 11.585C7.51712 11.5791 7.2407 11.5878 6.97364 11.6055C6.95021 11.6084 6.93263 11.6084 6.93263 11.6084C6.58928 11.635 5.87897 11.6907 5.25099 11.9649L5.24025 11.9698C4.85361 12.1391 4.46763 12.3089 4.19728 12.7325C4.13489 12.831 3.80175 13.3729 3.96583 14.0205C3.96659 14.0231 3.96687 14.0262 3.96778 14.0293C3.99513 14.1232 4.0947 14.462 4.4297 14.7871C4.96965 15.3119 5.67421 15.3773 7.26173 15.4834C8.08024 15.5364 8.43057 15.5532 8.66114 15.5645C8.85343 15.5739 8.96288 15.5789 9.19239 15.5977C11.1527 15.7628 12.4265 15.8839 13.1455 16.7832C13.2394 16.9012 13.5096 17.2642 13.5977 17.795C13.6155 17.9054 13.7958 19.1372 12.9365 19.7325C12.1794 20.2628 11.1375 19.9262 10.6006 19.4014C10.0294 18.8419 9.9468 17.9829 10.0635 17.9219C10.1023 17.9035 10.1554 17.9728 10.2383 18.083C10.3811 18.2729 10.6145 18.5833 11.0264 18.7735C11.3932 18.9415 12.0122 19.0655 12.291 18.7588C12.4906 18.5377 12.4846 18.1306 12.3584 17.877C12.021 17.1977 10.7303 17.2393 9.44728 17.2803C9.24443 17.2868 9.04145 17.2933 8.84278 17.2969H8.834C6.5374 17.3353 2.47309 17.4026 1.14259 15.4385C0.359236 14.2767 0.564374 12.4574 1.22462 11.3282C1.58836 10.7063 2.12543 10.2409 2.44239 9.99906C2.12547 9.76023 1.59145 9.2911 1.22462 8.66898C0.561431 7.54267 0.356265 5.72041 1.14259 4.55863C2.47309 2.59458 6.5374 2.66187 8.834 2.70023H8.84278C9.04783 2.70356 9.25744 2.71035 9.46681 2.71684C10.7434 2.75638 12.0228 2.7961 12.3584 2.12016C12.4846 1.86657 12.4935 1.45947 12.291 1.23832C12.0122 0.931738 11.3932 1.05561 11.0264 1.22367C10.6096 1.41339 10.3744 1.72694 10.2324 1.91703C10.1516 2.02531 10.1008 2.09342 10.0635 2.07523C9.94684 2.01708 10.0294 1.15815 10.6006 0.598672C11.1375 0.070973 12.1794 -0.259712 12.9365 0.264687C13.7956 0.862751 13.6155 2.09126 13.5977 2.20512C13.5096 2.73874 13.2395 3.09883 13.1455 3.21684C12.4265 4.11616 11.1527 4.24021 9.19239 4.40238C8.96288 4.42115 8.85343 4.42618 8.66114 4.43559C8.43057 4.44687 8.08022 4.46364 7.26173 4.51664C5.67425 4.61983 4.96965 4.68822 4.4297 5.21293C4.08061 5.55189 3.98642 5.89974 3.96583 5.97953C3.80149 6.62823 4.13565 7.17129 4.19728 7.26859C4.47164 7.69373 4.857 7.86221 5.24513 8.03227L5.25099 8.0352C5.87898 8.3094 6.58928 8.3651 6.93263 8.39164C6.93263 8.39164 6.95313 8.39456 6.97364 8.39457C7.24363 8.41226 7.52005 8.41803 7.79591 8.41508C8.5307 8.31441 9.24191 8.24064 9.89161 8.17289C9.92665 8.16924 9.96143 8.16479 9.9961 8.16117C10.1044 8.15007 10.2092 8.13982 10.3096 8.12992C10.4758 8.11354 10.6322 8.0986 10.7803 8.08207C11.6549 7.91038 12.2551 7.7417 12.2705 7.73734C14.5419 7.08864 16.0833 6.24187 16.5176 5.99418C17.2662 5.56985 17.9074 4.96699 18.4395 4.46684C18.6421 4.27639 18.829 4.10042 19 3.95512V3.95707C19.6201 4.48421 20.4491 5.4085 21.4824 5.99418C21.9171 6.24204 23.4576 7.08877 25.7285 7.73734C25.7399 7.74057 26.342 7.90977 27.2197 8.08207C27.4573 8.10858 27.7156 8.13171 28.0029 8.16117C28.6808 8.23193 29.4295 8.30894 30.2041 8.41508C30.4798 8.41802 30.7556 8.41224 31.0254 8.39457C31.0445 8.39457 31.0638 8.39201 31.0664 8.39164C31.4097 8.36511 32.1201 8.3093 32.7481 8.0352C33.1384 7.86418 33.5259 7.69516 33.8018 7.26762C33.864 7.16928 34.1973 6.62739 34.0332 5.97953C34.0126 5.89962 33.9183 5.5518 33.5693 5.21293C33.0295 4.6884 32.3253 4.61981 30.7383 4.51664C29.2359 4.41935 29.3114 4.44366 28.8067 4.40238C26.8465 4.24022 25.5725 4.11611 24.8535 3.21684C24.7595 3.09868 24.4903 2.73851 24.4024 2.20512C24.3846 2.09198 24.2032 0.862972 25.0625 0.264687ZM19 7.1973C18.8688 7.43703 18.7248 7.66688 18.5684 7.88187C17.7909 8.94004 16.6525 9.73271 15.9775 10.1426C16.6525 10.5554 17.7907 11.3459 18.5684 12.4043C18.7267 12.6165 18.8688 12.8472 18.999 13.087C19.1294 12.847 19.2722 12.6166 19.4307 12.4043C20.2083 11.3459 21.3475 10.5554 22.0225 10.1426C21.3475 9.73277 20.2083 8.94022 19.4307 7.88187C19.2742 7.66678 19.1313 7.43618 19 7.19633V7.1973Z" fill="white"/>
</svg>
