<svg width="41" height="40" viewBox="0 0 41 40" fill="none" xmlns="http://www.w3.org/2000/svg">
<path d="M20.5342 1.1875C20.6923 1.46426 20.8889 1.77924 21.1318 2.10156C21.8742 3.08662 23.0609 4.19452 24.7822 4.53418C27.3942 5.22835 29.7061 6.54217 31.5098 8.28125L31.875 8.64648C33.6671 10.3829 35.0477 12.6409 35.8223 15.2129L35.9688 15.7314C36.3088 17.4521 37.4154 18.6384 38.3994 19.3809C38.7215 19.6239 39.0359 19.8213 39.3125 19.9795C39.0731 20.1108 38.8065 20.2742 38.5303 20.4775C37.5641 21.1889 36.4715 22.3785 35.9688 24.2744C35.1773 27.2587 33.5791 29.8514 31.4629 31.7432L31.4561 31.749L31.4502 31.7549C29.6512 33.4768 27.3508 34.7767 24.7559 35.4658C23.037 35.8065 21.8521 36.9143 21.1104 37.8984C20.8676 38.2206 20.6698 38.5349 20.5117 38.8115C20.3806 38.5723 20.2185 38.3052 20.0156 38.0293C19.3049 37.0627 18.1163 35.969 16.2217 35.4658C13.4782 34.7373 11.0653 33.3257 9.22461 31.4551L9.21289 31.4434L8.85156 31.0869C7.07587 29.2702 5.73472 26.927 5.03125 24.2744C4.52851 22.3785 3.43588 21.1889 2.46973 20.4775C2.19324 20.274 1.92613 20.1109 1.68652 19.9795C1.96328 19.8212 2.2782 19.6241 2.60059 19.3809C3.58457 18.6384 4.69119 17.4521 5.03125 15.7314C5.81244 12.7856 7.38031 10.2212 9.45605 8.33594L9.46777 8.32422C11.2786 6.56302 13.6086 5.23382 16.2432 4.53418C18.1378 4.03106 19.3263 2.93731 20.0371 1.9707C20.2403 1.69437 20.4029 1.42702 20.5342 1.1875Z" stroke="#C29862"/>
</svg>
