<svg width="29" height="12" viewBox="0 0 29 12" fill="none" xmlns="http://www.w3.org/2000/svg">
<path d="M4.33539 10.0007C4.15067 10.0147 4.04501 10.0227 4.04534 10.0624L4.04672 10.0633C4.04718 10.1581 4.65109 10.2762 5.22967 10.2404C5.67585 10.2133 6.07023 10.097 6.55822 9.95311L6.56188 9.95203C7.01469 9.81867 6.94928 9.80671 7.15888 9.7598C7.37861 9.71014 8.47911 9.46641 8.91995 10.0973C9.07427 10.3185 9.15028 10.6593 9.03373 10.8948C8.85224 11.2617 8.23865 11.3073 7.95166 11.0382C7.75524 10.854 7.656 10.5402 7.63565 10.2762C7.63934 10.2675 7.49101 10.5931 7.46614 10.8469C7.3958 11.5619 8.04468 11.9808 8.70022 11.9378L8.70068 11.9377C9.12361 11.9052 9.53746 11.7156 9.76571 11.3445C10.172 10.6823 9.92279 9.72025 9.4649 9.25854C9.01007 8.79951 8.27506 8.73454 7.67527 8.8626C6.48788 9.11655 5.60692 9.90438 4.33539 10.0007Z" fill="#B50000"/>
<path d="M24.691 10.0007C24.8757 10.0147 24.9814 10.0227 24.981 10.0624L24.9796 10.0633C24.9792 10.1581 24.3757 10.2762 23.7967 10.2404C23.3505 10.2133 22.9562 10.097 22.4682 9.95314L22.4681 9.9531L22.4645 9.95203C22.2272 9.88216 22.1323 9.84561 22.0654 9.8199C22.0047 9.79654 21.9673 9.78213 21.8675 9.7598C21.6478 9.71014 20.5473 9.46641 20.1064 10.0973C19.9521 10.3185 19.8766 10.6593 19.9926 10.8948C20.1741 11.2617 20.7877 11.3073 21.0747 11.0382C21.2346 10.8883 21.3216 10.6161 21.3373 10.5595C21.3815 10.4018 21.3907 10.2762 21.3907 10.2762C21.387 10.2675 21.5354 10.5931 21.5602 10.8469C21.5929 11.1794 21.4225 11.4549 21.3907 11.505C21.0806 11.9873 20.4671 11.947 20.3261 11.9378L20.3257 11.9377L20.3214 11.9374C20.2077 11.9288 19.5911 11.8818 19.2607 11.3445C18.367 9.88625 19.9597 8.56554 21.3511 8.8626C21.8284 8.96467 22.0895 9.11734 22.3843 9.28971C22.569 9.39767 22.7669 9.51337 23.0394 9.6292C23.7454 9.92906 24.3516 9.97498 24.691 10.0007Z" fill="#B50000"/>
<path d="M4.95604 4.37658C4.94984 4.37725 4.94394 4.3778 4.93894 4.37823C4.93022 4.37897 4.92426 4.37934 4.92426 4.37934C3.83508 4.4755 2.71804 4.97031 2.40449 6.09465C2.18256 6.89154 2.45654 7.91413 3.46952 7.81824C4.34973 7.72807 5.14108 7.25331 6.00863 7.08981C7.19021 6.86677 8.55557 7.71615 8.52103 7.84675C8.51335 7.87558 8.44042 7.85697 8.3161 7.82524C8.02985 7.75218 7.47116 7.6096 6.80925 7.8164C6.59395 7.88377 6.32376 8.01415 5.78624 8.27356L5.78605 8.27364C5.51032 8.40679 5.24236 8.55495 4.9671 8.68877C3.82947 9.2437 2.28712 9.53076 1.17456 8.7366C-0.735658 7.37034 -0.112051 4.05287 1.58776 2.80245C6.55162 -0.857332 22.4751 -0.857648 27.4381 2.80153C27.5344 2.87235 28.1918 3.36671 28.5944 4.13056C29.389 5.6403 28.7855 7.43701 28.7031 7.67246V7.67338C28.6533 7.79157 28.5737 7.9562 28.452 8.13233C28.452 8.13233 28.2148 8.47631 27.8513 8.73567C27.1429 9.24108 26.1644 9.2236 25.9581 9.21624C25.0787 9.18451 24.3826 8.84604 24.0588 8.68785C23.975 8.64705 23.9017 8.60853 23.8156 8.56332C23.6834 8.49391 23.5212 8.40875 23.2453 8.27535C22.704 8.01368 22.4327 7.88308 22.2167 7.81548C21.5549 7.60872 20.9965 7.75121 20.7102 7.82428C20.5857 7.85603 20.5127 7.87467 20.5049 7.84583C20.4703 7.71615 21.8362 6.86631 23.0173 7.08889C23.5516 7.1896 24.0003 7.35469 24.0003 7.35469C24.1101 7.395 24.1999 7.43194 24.2867 7.46765C24.4357 7.5289 24.5758 7.58652 24.7926 7.65131C24.9032 7.68442 25.1575 7.75662 25.4804 7.80628C25.5191 7.81272 25.5389 7.81548 25.5564 7.81732C25.707 7.83158 25.9774 7.85411 26.2437 7.67384C26.4321 7.54645 26.538 7.37263 26.585 7.27973C27.3759 5.73588 25.3872 4.49209 24.1016 4.37842C24.1016 4.37842 24.0869 4.37704 24.0699 4.37566C20.6586 4.10416 16.9724 5.79724 14.5132 8.03948V8.04082C11.9855 5.73593 8.4201 4.10088 4.95604 4.37658Z" fill="#B50000"/>
</svg>
