<svg width="30" height="16" viewBox="0 0 30 16" fill="none" xmlns="http://www.w3.org/2000/svg">
<path fill-rule="evenodd" clip-rule="evenodd" d="M14.6914 3.16496C14.6913 3.16491 14.6913 3.16486 14.6912 3.16481V3.16511C14.5545 3.28131 14.4052 3.42169 14.2432 3.57391L14.2432 3.57393C13.8175 3.97413 13.3047 4.45613 12.7057 4.7956C12.3582 4.99375 11.1257 5.67077 9.30862 6.18973C9.30862 6.18973 8.825 6.32655 8.116 6.46572C7.99743 6.47896 7.87247 6.49128 7.73941 6.5044C7.65907 6.51232 7.57579 6.52054 7.48918 6.52942L7.40517 6.53818L7.40513 6.53819C6.88528 6.5924 6.31636 6.65173 5.72843 6.73229C5.50775 6.73464 5.28707 6.72992 5.07108 6.71577C5.05465 6.71577 5.03821 6.71341 5.03821 6.71341C4.76354 6.69218 4.1954 6.64736 3.693 6.42798L3.68797 6.42578C3.37743 6.28971 3.06968 6.15487 2.85019 5.81466C2.80089 5.73682 2.53325 5.30277 2.66472 4.78381C2.68116 4.72012 2.75628 4.44177 3.03565 4.17049C3.46762 3.7506 4.03106 3.69634 5.30115 3.61378C5.95618 3.57136 6.23613 3.55766 6.42062 3.54863C6.57467 3.54109 6.66217 3.53681 6.84592 3.52178C8.41416 3.39204 9.43305 3.29297 10.0082 2.57349C10.0834 2.47914 10.2993 2.19135 10.3698 1.76438C10.3839 1.67474 10.5294 0.69107 9.84154 0.212207C9.23584 -0.207682 8.40242 0.0565157 7.9728 0.478764C7.515 0.92696 7.44927 1.61577 7.54318 1.66059C7.57299 1.67514 7.61363 1.62073 7.67833 1.53411C7.79192 1.38202 7.97966 1.13065 8.31321 0.978859C8.60667 0.8444 9.10203 0.745322 9.32505 0.990651C9.48704 1.16757 9.48 1.4931 9.37905 1.69597C9.1108 2.23707 8.08707 2.20536 7.06558 2.17372C6.89806 2.16853 6.7306 2.16334 6.56655 2.16068L6.55901 2.16055C4.72176 2.12986 1.47065 2.07555 0.406266 3.64681C-0.222909 4.57622 -0.0585721 6.03404 0.472001 6.93515C0.765459 7.43289 1.19273 7.80796 1.44628 7.99903C1.19273 8.19246 0.763111 8.56517 0.472001 9.0629C-0.0562244 9.96637 -0.220561 11.4218 0.406266 12.3513C1.47065 13.9225 4.72177 13.8682 6.55901 13.8375L6.56655 13.8374C6.72554 13.8345 6.88773 13.8293 7.05007 13.8241H7.0501C8.07671 13.7913 9.10945 13.7583 9.37905 14.3021C9.48 14.505 9.4847 14.8305 9.32505 15.0074C9.10203 15.2527 8.60667 15.1537 8.31321 15.0192C7.98346 14.867 7.79656 14.6184 7.68234 14.4665C7.61603 14.3783 7.57422 14.3227 7.54318 14.3375C7.44927 14.3846 7.515 15.0735 7.9728 15.5217C8.40242 15.9415 9.23584 16.2105 9.84154 15.7859C10.5294 15.3093 10.3839 14.3233 10.3698 14.236C10.2993 13.8114 10.0834 13.5213 10.0082 13.4269C9.43305 12.7074 8.41416 12.6107 6.84592 12.4786C6.66218 12.4636 6.57469 12.4593 6.42065 12.4518L6.42062 12.4518C6.23613 12.4428 5.95618 12.4291 5.30115 12.3866C4.03106 12.3017 3.46762 12.2498 3.03565 11.8299C2.76762 11.5697 2.68859 11.2985 2.66673 11.2235L2.66472 11.2166C2.53325 10.6976 2.80089 10.2636 2.85019 10.1858C3.06647 9.84692 3.3749 9.71179 3.6842 9.57629L3.693 9.57243C4.1954 9.35305 4.76354 9.30824 5.03821 9.28701C5.03821 9.28701 5.0523 9.287 5.07108 9.28464C5.28472 9.27049 5.5054 9.26342 5.72843 9.26813C6.34821 9.35306 6.94687 9.41675 7.48918 9.471L7.60879 9.48337L7.60911 9.4834C7.79076 9.50216 7.95972 9.5196 8.116 9.53705C8.82265 9.67387 9.30862 9.81305 9.30862 9.81305C11.1281 10.332 12.3582 11.009 12.7057 11.2072C13.3047 11.545 13.8175 12.0277 14.2433 12.4285L14.2434 12.4285C14.4052 12.5809 14.5545 12.7214 14.6912 12.8377V12.8377C14.6912 12.8377 14.6912 12.8377 14.6912 12.8377C14.6913 12.8377 14.6913 12.8378 14.6914 12.8378V12.8375C14.8281 12.7213 14.9774 12.5807 15.1393 12.4283L15.1393 12.4283C15.5651 12.0276 16.0779 11.5449 16.6769 11.207C17.0244 11.0089 18.2546 10.3319 20.074 9.81292C20.074 9.81292 20.56 9.67374 21.2666 9.53692C21.423 9.51947 21.5921 9.50201 21.7738 9.48324L21.8934 9.47087C22.4357 9.41662 23.0344 9.35293 23.6542 9.26801C23.8772 9.26329 24.0979 9.27036 24.3115 9.28452C24.3303 9.28688 24.3444 9.28688 24.3444 9.28688C24.6191 9.30811 25.1872 9.35293 25.6896 9.57231L25.6984 9.57616C26.0077 9.71167 26.3161 9.8468 26.5324 10.1856C26.5817 10.2635 26.8494 10.6975 26.7179 11.2165L26.7159 11.2234C26.694 11.2984 26.615 11.5696 26.347 11.8298C25.915 12.2497 25.3516 12.3016 24.0815 12.3865C23.4264 12.4289 23.1465 12.4426 22.962 12.4517L22.962 12.4517C22.8079 12.4592 22.7204 12.4635 22.5367 12.4785C20.9685 12.6106 19.9496 12.7073 19.3744 13.4268C19.2993 13.5212 19.0833 13.8113 19.0129 14.2359C18.9988 14.3232 18.8532 15.3092 19.5411 15.7857C20.1468 16.2103 20.9802 15.9414 21.4098 15.5215C21.8676 15.0733 21.9333 14.3845 21.8394 14.3373C21.8084 14.3226 21.7666 14.3782 21.7003 14.4664C21.5861 14.6183 21.3992 14.8668 21.0694 15.0191C20.7759 15.1535 20.2806 15.2526 20.0576 15.0073C19.8979 14.8304 19.9026 14.5048 20.0036 14.302C20.2732 13.7581 21.3059 13.7911 22.3325 13.824H22.3325C22.4949 13.8292 22.6571 13.8344 22.8161 13.8372L22.8236 13.8374C24.6609 13.8681 27.912 13.9224 28.9764 12.3511C29.6032 11.4217 29.4388 9.96625 28.9106 9.06278C28.6195 8.56504 28.1899 8.19233 27.9363 7.9989C28.1899 7.80783 28.6172 7.43276 28.9106 6.93503C29.4412 6.03392 29.6055 4.5761 28.9764 3.64668C27.912 2.07543 24.6609 2.12974 22.8236 2.16043L22.8161 2.16055C22.652 2.16321 22.4846 2.1684 22.317 2.17359C21.2955 2.20523 20.2718 2.23694 20.0036 1.69584C19.9026 1.49298 19.8956 1.16744 20.0576 0.990524C20.2806 0.745196 20.7759 0.844273 21.0694 0.978732C21.403 1.13052 21.5907 1.3819 21.7043 1.53398C21.769 1.6206 21.8096 1.67502 21.8394 1.66046C21.9333 1.61564 21.8676 0.926833 21.4098 0.478637C20.9802 0.0563888 20.1468 -0.207809 19.5411 0.212081C18.8532 0.690943 18.9988 1.67461 19.0129 1.76425C19.0833 2.19122 19.2993 2.47901 19.3744 2.57337C19.9496 3.29284 20.9685 3.39192 22.5367 3.52166C22.7204 3.53668 22.8079 3.54097 22.962 3.54851C23.1465 3.55753 23.4264 3.57123 24.0815 3.61365C25.3516 3.69622 25.915 3.75047 26.347 4.17036C26.6263 4.44164 26.7015 4.71999 26.7179 4.78368C26.8494 5.30265 26.5817 5.73669 26.5324 5.81454C26.3129 6.15474 26.0052 6.28959 25.6946 6.42565L25.6896 6.42785C25.1872 6.64723 24.6191 6.69206 24.3444 6.71329C24.3444 6.71329 24.328 6.71564 24.3115 6.71564C24.0956 6.7298 23.8749 6.73452 23.6542 6.73216C23.0662 6.6516 22.4973 6.59227 21.9775 6.53805L21.8934 6.52929C21.8068 6.52041 21.7235 6.5122 21.6432 6.50428L21.6432 6.50428C21.5101 6.49116 21.3852 6.47884 21.2666 6.4656C20.5576 6.32642 20.074 6.1896 20.074 6.1896C18.2569 5.67064 17.0244 4.99363 16.6769 4.79548C16.0779 4.456 15.5652 3.974 15.1394 3.5738L15.1394 3.5738C14.9775 3.42157 14.8281 3.28118 14.6914 3.16498V3.16494C14.6914 3.16495 14.6914 3.16495 14.6914 3.16496ZM14.6913 5.75894C14.5865 5.95036 14.4717 6.13362 14.3467 6.30532C13.7246 7.15217 12.8137 7.78673 12.2737 8.11462C12.8137 8.44487 13.7246 9.07706 14.3467 9.92391C14.4734 10.0936 14.5871 10.2777 14.6913 10.4694C14.7955 10.2776 14.9092 10.0935 15.0359 9.92379C15.658 9.07693 16.5689 8.44474 17.1089 8.11449C16.5689 7.7866 15.658 7.15204 15.0359 6.30519C14.911 6.13353 14.7961 5.95032 14.6913 5.75894Z" fill="#B50000"/>
</svg>
