<svg width="29" height="12" viewBox="0 0 29 12" fill="none" xmlns="http://www.w3.org/2000/svg">
<path d="M4.33539 1.99931C4.15067 1.98532 4.04501 1.97732 4.04534 1.93761L4.04672 1.93668C4.04718 1.84195 4.65109 1.72377 5.22967 1.75964C5.67585 1.7867 6.07023 1.90299 6.55822 2.04689L6.56188 2.04797C7.01469 2.18133 6.94928 2.19329 7.15888 2.2402C7.37861 2.28986 8.47911 2.53359 8.91995 1.90266C9.07427 1.68146 9.15028 1.34069 9.03373 1.10524C8.85224 0.738265 8.23865 0.692738 7.95166 0.96176C7.75524 1.14598 7.656 1.45975 7.63565 1.72377C7.63934 1.7325 7.49101 1.40692 7.46614 1.15307C7.3958 0.438067 8.04468 0.0191627 8.70022 0.0622262L8.70068 0.0622598C9.12361 0.09478 9.53746 0.2844 9.76571 0.655492C10.172 1.3177 9.92279 2.27975 9.4649 2.74146C9.01007 3.20049 8.27506 3.26546 7.67527 3.1374C6.48788 2.88345 5.60692 2.09562 4.33539 1.99931Z" fill="#B50000"/>
<path d="M24.691 1.99931C24.8757 1.98532 24.9814 1.97732 24.981 1.93761L24.9796 1.93668C24.9792 1.84195 24.3757 1.72377 23.7967 1.75964C23.3505 1.7867 22.9562 1.90298 22.4682 2.04686L22.4681 2.0469L22.4645 2.04797C22.2272 2.11784 22.1323 2.15439 22.0654 2.1801C22.0047 2.20346 21.9673 2.21787 21.8675 2.2402C21.6478 2.28986 20.5473 2.53359 20.1064 1.90266C19.9521 1.68146 19.8766 1.34069 19.9926 1.10524C20.1741 0.738265 20.7877 0.692738 21.0747 0.96176C21.2346 1.11168 21.3216 1.38392 21.3373 1.44048C21.3815 1.59822 21.3907 1.72377 21.3907 1.72377C21.387 1.7325 21.5354 1.40692 21.5602 1.15307C21.5929 0.820583 21.4225 0.545122 21.3907 0.494998C21.0806 0.0126578 20.4671 0.0529693 20.3261 0.0622262L20.3257 0.0622598L20.3214 0.0625911C20.2077 0.0712473 19.5911 0.118222 19.2607 0.655492C18.367 2.11375 19.9597 3.43446 21.3511 3.1374C21.8284 3.03533 22.0895 2.88266 22.3843 2.71029C22.569 2.60233 22.7669 2.48663 23.0394 2.3708C23.7454 2.07094 24.3516 2.02502 24.691 1.99931Z" fill="#B50000"/>
<path d="M4.95604 7.62342C4.94984 7.62275 4.94394 7.6222 4.93894 7.62177C4.93022 7.62103 4.92426 7.62066 4.92426 7.62066C3.83508 7.5245 2.71804 7.02969 2.40449 5.90535C2.18256 5.10846 2.45654 4.08587 3.46952 4.18176C4.34973 4.27193 5.14108 4.74669 6.00863 4.91019C7.19021 5.13323 8.55557 4.28385 8.52103 4.15325C8.51335 4.12442 8.44042 4.14303 8.3161 4.17476C8.02985 4.24782 7.47116 4.3904 6.80925 4.1836C6.59395 4.11623 6.32376 3.98585 5.78624 3.72644L5.78605 3.72636C5.51032 3.59321 5.24236 3.44505 4.9671 3.31123C3.82947 2.7563 2.28712 2.46924 1.17456 3.2634C-0.735658 4.62966 -0.112051 7.94713 1.58776 9.19755C6.55162 12.8573 22.4751 12.8576 27.4381 9.19847C27.5344 9.12765 28.1918 8.63329 28.5944 7.86944C29.389 6.3597 28.7855 4.56299 28.7031 4.32754V4.32662C28.6533 4.20843 28.5737 4.0438 28.452 3.86767C28.452 3.86767 28.2148 3.52369 27.8513 3.26433C27.1429 2.75892 26.1644 2.7764 25.9581 2.78376C25.0787 2.81549 24.3826 3.15396 24.0588 3.31215C23.975 3.35295 23.9017 3.39147 23.8156 3.43668C23.6834 3.50609 23.5212 3.59125 23.2453 3.72465C22.704 3.98632 22.4327 4.11692 22.2167 4.18452C21.5549 4.39128 20.9965 4.24879 20.7102 4.17572C20.5857 4.14397 20.5127 4.12533 20.5049 4.15417C20.4703 4.28385 21.8362 5.13369 23.0173 4.91111C23.5516 4.8104 24.0003 4.64531 24.0003 4.64531C24.1101 4.605 24.1999 4.56806 24.2867 4.53235C24.4357 4.4711 24.5758 4.41348 24.7926 4.34869C24.9032 4.31558 25.1575 4.24338 25.4804 4.19372C25.5191 4.18728 25.5389 4.18452 25.5564 4.18268C25.707 4.16842 25.9774 4.14589 26.2437 4.32616C26.4321 4.45355 26.538 4.62737 26.585 4.72027C27.3759 6.26412 25.3872 7.50791 24.1016 7.62158C24.1016 7.62158 24.0869 7.62296 24.0699 7.62434C20.6586 7.89584 16.9724 6.20276 14.5132 3.96052V3.95918C11.9855 6.26407 8.4201 7.89912 4.95604 7.62342Z" fill="#B50000"/>
</svg>
