<svg width="19" height="18" viewBox="0 0 19 18" fill="none" xmlns="http://www.w3.org/2000/svg">
<path d="M9.33203 0.5C11.5412 0.5 13.332 2.29086 13.332 4.5C13.332 6.23575 12.226 7.7121 10.6807 8.26562C12.6575 8.55409 14.5032 9.47107 15.9326 10.9004L16.252 11.2363C17.8021 12.9484 18.6669 15.1795 18.667 17.5H17.667C17.6669 15.4281 16.8949 13.4358 15.5107 11.9072L15.2256 11.6074C13.6628 10.0448 11.543 9.16699 9.33301 9.16699C7.12299 9.16708 5.00316 10.0447 3.44043 11.6074C1.8777 13.1701 1.00009 15.29 1 17.5H0C8.61216e-05 15.0248 0.983136 12.6507 2.7334 10.9004C4.16236 9.47143 6.00724 8.5544 7.9834 8.26562C6.43803 7.7121 5.33203 6.23575 5.33203 4.5C5.33203 2.29086 7.12289 0.5 9.33203 0.5ZM9.33203 1.5C7.67518 1.5 6.33203 2.84315 6.33203 4.5C6.33203 6.15685 7.67518 7.5 9.33203 7.5C10.9889 7.5 12.332 6.15685 12.332 4.5C12.332 2.84315 10.9889 1.5 9.33203 1.5Z" fill="#ffffff"/>
</svg>
