<svg width="56" height="56" viewBox="0 0 56 56" fill="none" xmlns="http://www.w3.org/2000/svg">
<path d="M28.0381 1.04688C28.2912 1.44008 28.6497 1.93776 29.127 2.45703C30.1968 3.621 31.8704 4.90887 34.2637 5.37402C38.0836 6.38946 41.467 8.31168 44.1084 10.8584L44.627 11.377L44.6318 11.3828L44.6377 11.3887C47.2626 13.932 49.2831 17.2367 50.416 20.999L50.6299 21.7578C51.0956 24.1495 52.3817 25.8228 53.5439 26.8926C54.0628 27.3701 54.5612 27.7272 54.9541 27.9805C54.6067 28.1938 54.1812 28.4945 53.7285 28.9053C52.6805 29.8565 51.4929 31.3885 50.7686 33.7637L50.6299 34.25C49.4723 38.6152 47.1344 42.4111 44.0342 45.1826L44.0273 45.1875L44.0215 45.1934C41.3874 47.7147 38.0233 49.6178 34.2285 50.626C31.837 51.0917 30.1641 52.3795 29.0947 53.543C28.6174 54.0623 28.2589 54.5599 28.0059 54.9531C27.7928 54.6058 27.4948 54.1798 27.085 53.7275C26.1344 52.6786 24.6027 51.4907 22.2285 50.7656L21.7432 50.627C17.7301 49.5613 14.198 47.4949 11.502 44.7549L11.4902 44.7432L10.9619 44.2217C8.53433 41.7382 6.66317 38.5847 5.58789 35.0205L5.37012 34.25C4.66611 31.5953 3.38941 29.9199 2.27148 28.9053C1.81849 28.4942 1.39249 28.1938 1.04492 27.9805C1.43794 27.7272 1.9369 27.3704 2.45605 26.8926C3.61829 25.8228 4.90437 24.1495 5.37012 21.7578C6.51272 17.449 8.80589 13.6953 11.8467 10.9336L11.8525 10.9277L11.8594 10.9219C14.3459 8.5037 17.4979 6.64258 21.0576 5.57617L21.7744 5.37305C24.4277 4.66846 26.1023 3.39124 27.1162 2.27246C27.5262 1.82007 27.825 1.39427 28.0381 1.04688Z" stroke="#C29862"/>
<path d="M28.8931 34C22.0599 34 18.1624 29.4955 18 22H21.4229C21.5353 27.5015 24.0587 29.8318 26.0574 30.3123V22H29.2805V26.7447C31.2543 26.5405 33.3277 24.3784 34.0273 22H37.2503C36.7132 24.9309 34.4646 27.0931 32.8656 27.982C34.4646 28.7027 37.0256 30.5886 38 34H34.4521C33.6901 31.7177 31.7914 29.952 29.2805 29.7117V34H28.8931Z" fill="#C29862"/>
</svg>
