<svg width="17" height="17" viewBox="0 0 17 17" fill="none" xmlns="http://www.w3.org/2000/svg">
<path fill-rule="evenodd" clip-rule="evenodd" d="M8.5 0C3.8018 0 0 3.79969 0 8.5C0 10.2726 0.540571 11.9123 1.50078 13.3211C1.53652 13.3741 1.55986 13.4344 1.56906 13.4976C1.57825 13.5609 1.57308 13.6254 1.55391 13.6863L0.690625 16.575L3.51953 15.5988C3.58 15.5787 3.64422 15.5724 3.70745 15.5805C3.77067 15.5885 3.83127 15.6107 3.88477 15.6453C5.20982 16.5051 6.79608 17 8.5 17C13.2004 17 17 13.2004 17 8.5C17 3.79956 13.2004 0 8.5 0ZM5.02031 3.70547L6.56758 6.26212L5.92344 6.89962C5.85786 6.96579 5.81584 7.05167 5.80384 7.14405C5.79184 7.23644 5.81053 7.33021 5.85703 7.41094C6.84002 9.1132 8.0047 10.4375 9.63555 11.1562C9.7137 11.191 9.8005 11.2013 9.88462 11.1859C9.96873 11.1705 10.0462 11.1301 10.107 11.0699L10.791 10.3859L13.2879 11.9465C13.0114 12.5687 12.651 12.9392 12.2387 13.1551C11.7611 13.4051 11.1778 13.4525 10.5121 13.3145C9.18077 13.0384 7.57262 11.9921 6.26211 10.6516C4.9516 9.31109 3.93744 7.68109 3.67891 6.35507C3.54964 5.69207 3.60675 5.12108 3.85156 4.66837C4.06236 4.27858 4.42042 3.94487 5.02031 3.70547Z" fill="white"/>
</svg>
