<svg width="1440" height="812" viewBox="0 0 1440 812" fill="none" xmlns="http://www.w3.org/2000/svg">
<mask id="mask0_8701_16606" style="mask-type:alpha" maskUnits="userSpaceOnUse" x="0" y="0" width="1440" height="812">
<path d="M1440 720C1440 746.51 1418.51 768 1392 768H759.466C760.956 768.173 762.469 768.272 764 768.292V768.307C740.122 768.621 720.786 787.955 720.162 812H720.131C719.505 787.857 700.013 768.462 676 768.303V768.296C677.627 768.285 679.233 768.183 680.814 768H48C21.4904 768 0 746.51 0 720V0H1440V720Z" fill="#D9D9D9"/>
</mask>
<g mask="url(#mask0_8701_16606)">
<path d="M1440 768H759.466C760.956 768.173 762.469 768.272 764 768.292V768.307C740.122 768.621 720.786 787.955 720.162 812H720.131C719.505 787.857 700.013 768.462 676 768.303V768.296C677.627 768.285 679.233 768.183 680.814 768H0V0H1440V768Z" fill="#D9D9D9"/>
</g>
</svg>
