<svg width="329" height="469" viewBox="0 0 329 469" fill="none" xmlns="http://www.w3.org/2000/svg">
<path opacity="0.9" d="M62.7922 47.8697C87.0768 18.6255 123.733 0 164.744 0C205.755 0 242.411 18.6255 266.695 47.8697L292.392 47.8697C292.36 48.4641 292.344 49.0628 292.344 49.6653C292.344 67.8412 307.096 82.5758 325.293 82.5758C326.303 82.5758 327.302 82.5304 328.289 82.4415L328.289 385.362C327.302 385.274 326.303 385.228 325.293 385.228C307.096 385.228 292.344 399.963 292.344 418.139C292.344 419.147 292.389 420.145 292.478 421.13H266.695C242.411 450.375 205.755 469 164.744 469C123.732 469 87.0766 450.375 62.792 421.13H35.8084C35.8973 420.145 35.9427 419.147 35.9427 418.139C35.9427 399.963 21.1911 385.228 2.99401 385.228C1.98476 385.228 0.986118 385.274 0 385.362L0.000130791 82.4418C0.986235 82.5305 1.98487 82.5759 2.9941 82.5759C21.1912 82.5759 35.9428 67.8413 35.9428 49.6654C35.9428 49.0629 35.9266 48.4642 35.8946 47.8697H62.7922Z" fill="#FBF1E8"/>
</svg>
