<svg width="64" height="64" viewBox="0 0 64 64" fill="none" xmlns="http://www.w3.org/2000/svg">
<path d="M32.0469 1.26074C32.323 1.79346 32.7185 2.47499 33.251 3.18164C34.418 4.73031 36.266 6.44748 38.9326 6.96582C43.4399 8.16448 47.3981 10.5045 50.3975 13.6074L50.4092 13.6191C53.5054 16.6193 55.8392 20.577 57.0361 25.083C57.5537 27.7523 59.2721 29.6013 60.8203 30.7695C61.5264 31.3023 62.2069 31.6983 62.7393 31.9746C62.2576 32.2065 61.659 32.5401 61.0264 33.0059C59.5232 34.1126 57.8233 35.9615 57.04 38.915C55.7593 43.7448 53.1715 47.9453 49.7402 51.0127L49.7334 51.0176L49.7275 51.0234C46.8138 53.8125 43.0935 55.9173 38.8975 57.0332C36.2307 57.5515 34.3829 59.2697 33.2158 60.8184C32.6836 61.5247 32.2878 62.2057 32.0117 62.7383C31.78 62.2565 31.4475 61.6569 30.9824 61.0244C29.8765 59.5205 28.0286 57.8199 25.0771 57.0361C20.6369 55.857 16.7289 53.5706 13.7451 50.5381L13.7334 50.5264C10.5639 47.5078 8.17429 43.4944 6.95996 38.915C6.17665 35.9615 4.4768 34.1126 2.97363 33.0059C2.34068 32.5399 1.74157 32.2065 1.25977 31.9746C1.79225 31.6983 2.47327 31.3025 3.17969 30.7695C4.72825 29.6011 6.44577 27.7513 6.96289 25.0811C8.2282 20.3189 10.7654 16.1702 14.1279 13.1162L14.1396 13.1045C17.0749 10.2497 20.8484 8.09615 25.1123 6.96387C28.0638 6.18003 29.9117 4.47946 31.0176 2.97559C31.4829 2.3427 31.8152 1.74263 32.0469 1.26074Z" fill="#FBF1E8" stroke="#B50000"/>
<path opacity="0.4" d="M32.0391 6.66553C32.2751 7.03818 32.6024 7.50101 33.0322 7.98193C34.0382 9.10735 35.6151 10.3539 37.873 10.7935C41.4534 11.7453 44.6243 13.5465 47.0996 15.9331L47.5967 16.4302C50.0566 18.8137 51.9498 21.9115 53.0117 25.438L53.2129 26.1489C53.6532 28.4054 54.8977 29.982 56.0215 30.9878C56.5021 31.418 56.9645 31.7448 57.3369 31.981C57.0085 32.1796 56.6137 32.4532 56.1953 32.8218C55.1109 33.7771 53.8765 35.3564 53.2129 37.8589C52.1279 41.9505 49.9356 45.5078 47.0303 48.105L47.0244 48.1099L47.0186 48.1157C44.5498 50.4788 41.3962 52.2626 37.8389 53.2075C35.583 53.6479 34.0072 54.8942 33.002 56.019C32.5725 56.4996 32.2447 56.961 32.0088 57.3335C31.8104 57.0053 31.5375 56.6107 31.1699 56.1929C30.2153 55.1078 28.6374 53.8727 26.1367 53.2085C22.3751 52.2096 19.0646 50.2724 16.5381 47.7046L16.5332 47.6987L16.5273 47.6938L16.0312 47.2046C13.5937 44.7109 11.7545 41.496 10.79 37.8589C10.1264 35.3564 8.89202 33.7771 7.80762 32.8218C7.38895 32.453 6.99356 32.1796 6.66504 31.981C7.03757 31.7448 7.50046 31.4182 7.98145 30.9878C9.10527 29.982 10.3498 28.4054 10.79 26.1489C11.861 22.1102 14.0108 18.5925 16.8604 16.0044L16.8662 15.9985L16.873 15.9927C19.3585 13.5754 22.5539 11.7517 26.166 10.7925C28.667 10.1283 30.2456 8.89227 31.2002 7.80713C31.568 7.38896 31.8407 6.99387 32.0391 6.66553Z" fill="#FBF1E8" stroke="#C29862"/>
<path d="M26.3782 25.9833C26.7219 25.6455 27.3888 25.4345 27.8734 25.7704C28.4226 26.1533 28.3076 26.9388 28.2962 27.0117C28.2398 27.3531 28.0662 27.5837 28.0062 27.6591C27.546 28.2343 26.7311 28.3141 25.4769 28.4179C25.1538 28.4443 25.2021 28.4289 24.2405 28.4912C23.2251 28.5572 22.7745 28.6009 22.429 28.9365C22.2056 29.1534 22.1453 29.3767 22.1321 29.4277C22.0273 29.8426 22.2412 30.1896 22.2806 30.2519C22.4571 30.5252 22.7048 30.6328 22.9544 30.7421C23.3563 30.9176 23.8109 30.9537 24.0306 30.9706C24.0318 30.9708 24.0444 30.9726 24.0569 30.9726C24.2296 30.9839 24.406 30.9881 24.5823 30.9863C25.0782 30.9183 25.5577 30.8695 25.9915 30.8242C26.1754 30.8053 26.3405 30.7894 26.4925 30.7724C27.0524 30.6625 27.4368 30.5545 27.4466 30.5517C28.9001 30.1366 29.8863 29.5951 30.1644 29.4365C30.8261 29.0614 31.3573 28.47 31.7542 28.1328V30.1972C31.6692 30.3533 31.5786 30.5047 31.4769 30.6445C30.9792 31.3218 30.2506 31.8295 29.8187 32.0917C30.2506 32.3559 30.9792 32.8618 31.4769 33.539C31.5797 33.6768 31.6698 33.8284 31.7542 33.9843V35.8681C31.3574 35.5306 30.8256 34.9393 30.1644 34.5663C29.8864 34.4078 28.9021 33.8653 27.4466 33.4501C27.4333 33.4463 27.0478 33.337 26.4925 33.2294C26.3405 33.2125 26.1735 33.1955 25.9915 33.1767C25.5577 33.1333 25.0781 33.0825 24.5823 33.0146C24.4041 33.0108 24.2277 33.017 24.0569 33.0283C24.0425 33.0301 24.0314 33.0302 24.0306 33.0302C23.8109 33.0472 23.3563 33.0823 22.9544 33.2578C22.7047 33.3672 22.4552 33.4754 22.2806 33.749C22.2408 33.8118 22.0272 34.1585 22.1321 34.5732C22.1473 34.6247 22.2078 34.8497 22.429 35.0644C22.7745 35.3997 23.2253 35.4418 24.2405 35.5097C25.2021 35.572 25.1538 35.5565 25.4769 35.5829C26.7312 35.6886 27.546 35.7663 28.0062 36.3417C28.0664 36.4174 28.2399 36.6498 28.2962 36.9892C28.308 37.063 28.4217 37.8483 27.8734 38.2285C27.3889 38.5679 26.722 38.3533 26.3782 38.0175C26.0123 37.6592 25.9596 37.1088 26.0345 37.0703C26.1021 37.0382 26.2338 37.4227 26.6507 37.6152C26.8854 37.7227 27.2818 37.8023 27.4603 37.6064C27.5879 37.465 27.5838 37.2043 27.5032 37.0419C27.2535 36.5381 26.1848 36.6529 25.2532 36.6699C23.7848 36.6944 21.1786 36.7395 20.3255 35.4814C19.8241 34.738 19.9549 33.5733 20.3773 32.8505C20.6101 32.4524 20.9547 32.1537 21.1575 31.999C20.9547 31.8461 20.612 31.5464 20.3773 31.1484C19.9529 30.4276 19.8223 29.261 20.3255 28.5175C21.1784 27.2591 23.7847 27.3045 25.2532 27.329C26.1846 27.3441 27.2532 27.4606 27.5032 26.957C27.5839 26.7947 27.5897 26.5341 27.4603 26.3925C27.2818 26.1963 26.8855 26.2762 26.6507 26.3837C26.2323 26.5742 26.1003 26.96 26.0345 26.9287C25.9595 26.8926 26.0122 26.3418 26.3782 25.9833ZM35.638 25.7695C36.1224 25.4337 36.7894 25.6457 37.1331 25.9833C37.4992 26.3419 37.552 26.8928 37.4769 26.9287C37.411 26.959 37.2787 26.573 36.8607 26.3828C36.6258 26.2754 36.2293 26.1965 36.0511 26.3925C35.9218 26.534 35.9275 26.7948 36.0081 26.957C36.2579 27.4606 37.3267 27.3442 38.2581 27.329C39.7266 27.3045 42.3329 27.2593 43.1859 28.5175C43.6892 29.261 43.5585 30.4275 43.1341 31.1484C42.8993 31.5465 42.5566 31.8461 42.3538 31.999C42.5566 32.1537 42.9012 32.4525 43.1341 32.8505C43.5565 33.5733 43.6872 34.738 43.1859 35.4814C42.3327 36.7394 39.7265 36.6944 38.2581 36.6699C37.3267 36.6528 36.2579 36.5382 36.0081 37.0419C35.9277 37.204 35.9241 37.4639 36.0511 37.6054C36.2294 37.8015 36.6258 37.7226 36.8607 37.6152C37.2767 37.4231 37.4091 37.0399 37.4769 37.0703C37.5517 37.1088 37.4991 37.6592 37.1331 38.0175C36.7893 38.3532 36.1224 38.568 35.638 38.2285C35.0897 37.8481 35.2034 37.0624 35.2151 36.9892C35.2714 36.6498 35.4449 36.4174 35.5052 36.3417C35.9652 35.7663 36.7803 35.6886 38.0345 35.5829C38.3575 35.5565 38.3097 35.5719 39.2708 35.5097C40.2864 35.4418 40.7368 35.3991 41.0823 35.0634C41.3038 34.8485 41.3641 34.6244 41.3792 34.5732C41.4843 34.1583 41.2704 33.8115 41.2308 33.749C41.0561 33.4755 40.8067 33.3672 40.5569 33.2578C40.1551 33.0824 39.7004 33.0462 39.4808 33.0292C39.4785 33.0292 39.4676 33.0289 39.4544 33.0273C39.2838 33.016 39.1071 33.0108 38.929 33.0146C38.4334 33.0825 37.9535 33.1333 37.5198 33.1767C37.338 33.1955 37.1707 33.2125 37.0189 33.2294C36.4629 33.3371 36.077 33.4466 36.0648 33.4501C34.6098 33.8652 33.6252 34.4067 33.347 34.5654C32.6858 34.9384 32.154 35.5306 31.7571 35.8681V33.9843C31.8415 33.8283 31.9316 33.6769 32.0345 33.539C32.5321 32.8618 33.2607 32.356 33.6927 32.0917C33.2607 31.8294 32.532 31.3216 32.0345 30.6445C31.9328 30.5047 31.8421 30.3532 31.7571 30.1972V28.1328C32.154 28.47 32.6854 29.0614 33.347 29.4365C33.625 29.595 34.6115 30.1366 36.0648 30.5517C36.075 30.5546 36.4596 30.6626 37.0189 30.7724C37.1707 30.7894 37.3362 30.8044 37.5198 30.8232C37.9535 30.8685 38.4334 30.9184 38.929 30.9863C39.1052 30.9881 39.2819 30.9839 39.4544 30.9726C39.4661 30.9726 39.4783 30.971 39.4808 30.9706C39.7004 30.9537 40.1551 30.9175 40.5569 30.7421C40.8066 30.6328 41.0543 30.5251 41.2308 30.2519C41.2702 30.1896 41.4844 29.8419 41.3792 29.4267C41.3657 29.3746 41.305 29.1526 41.0823 28.9365C40.7369 28.601 40.2861 28.5572 39.2708 28.4912C38.3097 28.4289 38.3575 28.4443 38.0345 28.4179C36.7805 28.3142 35.9653 28.2343 35.5052 27.6591C35.4449 27.5834 35.2714 27.3528 35.2151 27.0117C35.2038 26.9391 35.0884 26.1524 35.638 25.7695Z" fill="#B50000"/>
</svg>
