<svg width="172" height="172" viewBox="0 0 172 172" fill="none" xmlns="http://www.w3.org/2000/svg">
<path d="M86.0889 1.38672C86.2423 1.7273 86.4291 2.13072 86.6553 2.58203C87.3827 4.03345 88.4958 5.99662 90.0371 8.04199C93.112 12.1224 97.9272 16.5751 104.834 17.9033C117.097 21.1618 127.875 27.5279 136.049 35.9834L136.061 35.9951C144.496 44.1686 150.848 54.942 154.103 67.1973C155.426 74.117 159.882 78.9401 163.963 82.0195C166.007 83.5619 167.968 84.6753 169.419 85.4033C169.87 85.6297 170.273 85.8171 170.613 85.9707C170.329 86.0827 170.003 86.2176 169.642 86.3789C168.298 86.9794 166.466 87.9399 164.508 89.3818C160.71 92.1777 156.432 96.7873 154.309 104.086L154.11 104.801C150.628 117.934 143.588 129.367 134.239 137.725L134.232 137.73L134.227 137.736C126.286 145.337 116.155 151.063 104.736 154.097C97.8312 155.426 93.0168 159.878 89.9424 163.958C88.4012 166.003 87.289 167.966 86.5615 169.417C86.3354 169.868 86.1486 170.272 85.9951 170.612C85.8833 170.328 85.748 170.002 85.5869 169.641C84.9868 168.296 84.0278 166.463 82.5869 164.504C79.793 160.704 75.1863 156.424 67.8926 154.299L67.1777 154.1C55.1029 150.893 44.4667 144.674 36.3389 136.413L36.3271 136.401L35.5244 135.623C27.5552 127.757 21.4913 117.548 18.209 105.964L17.8896 104.801C15.8439 97.0867 11.4121 92.2679 7.49219 89.3818C5.53364 87.9399 3.7023 86.9794 2.3584 86.3789C1.99698 86.2174 1.67019 86.0827 1.38574 85.9707C1.7263 85.8171 2.12967 85.6298 2.58105 85.4033C4.03164 84.6753 5.99295 83.5619 8.03711 82.0195C12.1183 78.9402 16.5728 74.1169 17.8965 67.1973C21.3365 54.2439 28.2373 42.9472 37.4004 34.625L37.4062 34.6191L37.4131 34.6133C45.1581 27.0807 55.0367 21.3477 66.1885 18.1973L67.2725 17.9004C74.9813 15.8532 79.7966 11.4183 82.6807 7.49609C84.1216 5.53643 85.0816 3.704 85.6816 2.35938C85.8429 1.99805 85.977 1.67116 86.0889 1.38672Z" stroke="#C29862"/>
</svg>
